<svg width="22" height="31" viewBox="0 0 22 31" fill="none" xmlns="http://www.w3.org/2000/svg">
<path d="M18.8911 23.6757C18.3144 24.4055 17.5991 25.032 16.7708 25.5102L11.0074 28.8379L5.24446 25.5102C4.41623 25.032 3.70045 24.4055 3.12378 23.6757C8.32616 22.8086 13.6892 22.8086 18.8911 23.6757H18.8911Z" fill="#DA241C"/>
<path d="M1.6446 9.07896C2.65575 8.69627 3.68402 8.37758 4.72362 8.12305V9.3037C4.70174 9.35826 4.69026 9.41685 4.69026 9.47661V9.60348C4.69026 9.60783 4.69033 9.61214 4.69044 9.6165C4.42733 9.75118 4.25489 9.98328 4.14067 10.2862L4.13692 10.2961L4.13364 10.3063C3.85641 11.1657 3.7068 12.0581 3.61355 12.9545C3.47731 13.0528 3.39042 13.1946 3.35615 13.3618L3.34688 13.4071L3.34711 13.4534C3.35189 14.3806 3.36141 15.3078 3.36141 16.235V16.2599L3.36426 16.2848C3.37027 16.3372 3.38098 16.3853 3.39582 16.4294C2.76596 16.4328 2.13675 16.4366 1.50806 16.4409V9.13049L1.64462 9.07894L1.6446 9.07896Z" fill="#DA241C"/>
<path d="M20.5094 9.13451V16.4449C20.0612 16.4418 19.6128 16.439 19.1641 16.4364C19.1795 16.3912 19.1906 16.3419 19.1966 16.2878L19.1993 16.2634V16.239C19.1993 15.3112 19.2136 14.3835 19.2136 13.4558V13.4431L19.213 13.4303C19.2013 13.2139 19.1036 13.0431 18.9429 12.9348C18.8501 12.0454 18.7059 11.1591 18.4246 10.3081L18.4219 10.3002L18.419 10.2923C18.3066 9.98754 18.1327 9.755 17.8684 9.62026C17.8686 9.61599 17.8686 9.61175 17.8686 9.60749V9.48062C17.8686 9.42082 17.8572 9.3622 17.8352 9.30762V8.26562C18.6907 8.49432 19.5376 8.76682 20.3728 9.08297L20.5093 9.13453L20.5094 9.13451Z" fill="#DA241C"/>
<path d="M0.644616 8.3528C1.9858 7.80727 3.35423 7.37149 4.73903 7.04492V7.07938C4.73903 7.13324 4.74811 7.18512 4.76493 7.23346C4.71785 7.30668 4.69141 7.39658 4.69141 7.49771V7.56436C4.69141 7.58334 4.69257 7.60221 4.69486 7.62095C3.45445 7.92182 2.22774 8.31259 1.02299 8.79291V17.1112C0.839932 17.1125 0.656451 17.1138 0.473389 17.1155V8.42257L0.644616 8.35282V8.3528Z" fill="#1F3F66"/>
<path d="M21.5457 8.4225V17.1154C21.3627 17.1137 21.1792 17.1124 20.9961 17.1112V8.79284C19.9681 8.38299 18.9241 8.03832 17.8692 7.7591V7.70197C17.8692 7.67886 17.8675 7.65585 17.8641 7.63316C17.8675 7.61044 17.8692 7.58743 17.8692 7.56432V7.49767C17.8692 7.39649 17.8428 7.30657 17.7957 7.23337C17.8022 7.21466 17.8075 7.19547 17.8116 7.17578C19.0151 7.4849 20.2052 7.87716 21.3745 8.35275L21.5458 8.4225H21.5457Z" fill="#1F3F66"/>
<path d="M19.8072 23.207C19.1252 24.313 18.1744 25.255 17.016 25.9238L11.0095 29.3919L5.00339 25.9238C3.84496 25.255 2.8941 24.313 2.21217 23.207L1.60547 23.2599C2.34112 24.5443 3.40864 25.638 4.72859 26.3999L11.0095 30.0265L17.2908 26.3999C18.6107 25.638 19.6783 24.5443 20.4139 23.2599L19.8072 23.207H19.8072Z" fill="#1F3F66"/>
<path d="M21.7131 16.9123V17.3287C14.6095 17.2738 7.40905 17.2738 0.30542 17.3287V16.9123C1.60034 16.9023 2.89848 16.8941 4.19867 16.8877C4.21176 16.8887 4.22488 16.8895 4.23797 16.8903L4.25092 16.891C6.53519 16.891 8.91977 16.8711 11.281 16.8711H11.3444L11.3917 16.8711L11.5024 16.8711L11.6132 16.8712C13.8654 16.8729 16.1337 16.891 18.3108 16.891L18.3236 16.8903C19.4554 16.8962 20.5855 16.9036 21.7132 16.9123H21.7131Z" fill="#1F3F66"/>
<path d="M21.7131 23.3283V23.7557C14.7059 22.1589 7.31265 22.1589 0.30542 23.7557V23.3283C3.81202 22.536 7.41162 22.1348 11.0091 22.1348C14.607 22.1348 18.2066 22.536 21.7131 23.3283Z" fill="#1F3F66"/>
<path d="M3.30462 22.2302C3.2728 22.1761 3.25652 22.1094 3.25652 22.0388C3.25652 21.7223 3.25652 21.4058 3.25652 21.0893C3.25652 20.7728 3.25652 20.4564 3.25652 20.1394C3.25652 19.9228 2.89375 19.7748 2.70135 19.7913C2.89375 19.7747 3.25652 19.5716 3.25652 19.3551C3.25652 19.1295 3.25652 18.9044 3.25652 18.6788C3.25652 18.4532 3.25652 18.2281 3.25652 18.002C3.25652 17.7839 3.09817 17.6074 2.90379 17.6074C2.26442 17.6074 1.62708 17.6074 0.989746 17.6074C1.03182 17.6946 1.07399 17.7812 1.11599 17.8678C1.14811 17.9341 1.16412 18.0084 1.16412 18.0854C1.16412 18.8103 1.16412 19.5363 1.16412 20.2607C1.16412 20.9851 1.16412 21.7111 1.16412 22.4355C1.16412 22.5125 1.14772 22.592 1.11599 22.6643C1.07359 22.7609 1.03182 22.8578 0.989746 22.9535C1.34247 22.8702 1.6952 22.7878 2.04798 22.7114C2.00588 22.6381 1.96402 22.5631 1.92171 22.4885C1.88987 22.4322 1.87163 22.3617 1.87163 22.2874C1.87163 21.9544 1.87163 21.6202 1.87163 21.2872C1.87163 20.9541 1.87163 20.6205 1.87163 20.2864C2.05199 20.2661 2.23244 20.2461 2.41275 20.2276C2.48695 20.22 2.54705 20.2826 2.54705 20.3682C2.54705 20.667 2.54705 20.9659 2.54705 21.2642C2.54705 21.5619 2.54705 21.8613 2.54705 22.1591C2.54705 22.2318 2.53121 22.3052 2.49895 22.374C2.45708 22.4634 2.41475 22.5536 2.37268 22.6435C2.72541 22.5734 3.07816 22.5077 3.43091 22.444C3.38882 22.3735 3.34695 22.3022 3.30465 22.2302H3.30462ZM1.87363 19.4476C1.87363 19.1134 1.87363 18.7793 1.87363 18.4452C2.05199 18.4387 2.23241 18.4327 2.41275 18.427C2.48693 18.4247 2.54705 18.4927 2.54705 18.5783C2.54705 18.8001 2.54705 19.0215 2.54705 19.2433C2.54705 19.3289 2.48693 19.4022 2.41275 19.4074C2.23241 19.4203 2.05199 19.4342 1.87363 19.4475V19.4476ZM3.82574 17.6074C3.86784 17.6865 3.90977 17.7652 3.95401 17.8432C3.98592 17.8994 4.00011 17.9651 4.00011 18.0303C4.00011 18.6804 4.00011 19.331 4.00011 19.98C4.00011 20.6296 4.00011 21.2802 4.00011 21.9297C4.00011 21.9949 3.98625 22.0619 3.95401 22.1243C3.91009 22.2094 3.86784 22.2943 3.82574 22.3793C4.58133 22.2655 5.33694 22.1665 6.09253 22.0837C6.09253 21.7811 6.09253 21.4785 6.09253 21.1754C6.02036 21.2251 5.94807 21.2741 5.87807 21.324C5.82586 21.3612 5.76583 21.3842 5.7057 21.3898C5.37301 21.4206 5.04031 21.4566 4.7096 21.4919C4.7096 21.247 4.7096 21.0027 4.7096 20.7584C4.7096 20.5136 4.7096 20.2693 4.7096 20.0249C4.92206 20.0105 5.13648 19.9959 5.35097 19.9822C5.41105 19.9783 5.47113 19.9915 5.52334 20.0207C5.59537 20.0609 5.66763 20.1008 5.73978 20.141C5.73978 19.7748 5.73978 19.408 5.73978 19.0418C5.66763 19.0889 5.59551 19.136 5.52334 19.1835C5.47127 19.2178 5.41107 19.2364 5.35097 19.2391C5.1365 19.2487 4.92206 19.2583 4.7096 19.2679C4.7096 18.9664 4.7096 18.6649 4.7096 18.3634C5.04031 18.3564 5.37303 18.3495 5.7057 18.3436C5.76585 18.3426 5.82605 18.3585 5.87807 18.3901C5.94826 18.4328 6.02036 18.4751 6.09253 18.5168C6.09253 18.2137 6.09253 17.9106 6.09253 17.6074C5.33694 17.6074 4.58133 17.6074 3.82574 17.6074V17.6074ZM8.04264 17.6074C7.52155 17.6074 7.00244 17.6074 6.48335 17.6074C6.52545 17.6807 6.56743 17.753 6.60962 17.825C6.64156 17.8796 6.65772 17.9416 6.65772 18.0046C6.65772 18.6098 6.65772 19.215 6.65772 19.8197C6.65772 20.4243 6.65772 21.0289 6.65772 21.6336C6.65772 21.6972 6.64165 21.7603 6.60962 21.818C6.56752 21.8939 6.52545 21.9699 6.48335 22.0463C7.12272 21.9928 7.76199 21.9468 8.40341 21.9126C8.59572 21.9024 8.75015 21.7448 8.75015 21.5561C8.75015 20.9552 8.75015 20.3537 8.75015 19.7534C8.75015 19.1525 8.75015 18.551 8.75015 17.9501C8.75015 17.7614 8.59583 17.6074 8.40341 17.6074C8.28315 17.6074 8.16289 17.6074 8.04264 17.6074V17.6074ZM7.87831 21.2353C7.70794 21.2449 7.53758 21.2545 7.36723 21.2641C7.36723 20.7734 7.36723 20.2821 7.36723 19.7918C7.36723 19.3011 7.36723 18.8098 7.36723 18.319C7.53758 18.3174 7.70794 18.315 7.87831 18.3136C7.96849 18.3129 8.04264 18.3853 8.04264 18.4761C8.04264 18.9076 8.04264 19.339 8.04264 19.7704C8.04264 20.2013 8.04264 20.6333 8.04264 21.0642C8.04264 21.1551 7.96849 21.2315 7.87831 21.2353V21.2353ZM12.0972 17.6074C11.7184 17.6074 11.3396 17.6074 10.9608 17.6074C10.7644 17.6074 10.6061 17.7625 10.6061 17.9539C10.6061 18.2073 10.6061 18.4612 10.6061 18.7141C10.6061 18.9675 10.6061 19.2209 10.6061 19.4743C10.6061 19.6641 10.7644 19.8181 10.9608 19.8181C11.2474 19.8181 11.534 19.8187 11.8226 19.8208C11.9148 19.8214 11.991 19.8951 11.991 19.9859C11.991 20.3291 11.991 20.6718 11.991 21.0145C11.991 21.099 11.9208 21.1664 11.8326 21.1653C11.7164 21.1638 11.6021 21.1629 11.4879 21.1626C11.3917 21.1624 11.3135 21.0867 11.3135 20.9937C11.3135 20.6905 11.3135 20.3874 11.3135 20.0843C11.1352 20.1837 10.9587 20.2841 10.7824 20.3848C10.6741 20.4466 10.606 20.5601 10.606 20.6841C10.606 20.9589 10.606 21.2337 10.606 21.508C10.606 21.6988 10.7644 21.8517 10.9608 21.8517C11.4217 21.8517 11.8827 21.857 12.3437 21.8667C12.5401 21.8708 12.6984 21.7213 12.6984 21.5293C12.6984 21.1883 12.6984 20.8472 12.6984 20.5061C12.6984 20.1656 12.6984 19.824 12.6984 19.4829C12.6984 19.2909 12.5401 19.1337 12.3437 19.1322C12.0511 19.1299 11.7584 19.1282 11.4678 19.1274C11.3837 19.1271 11.3135 19.0605 11.3135 18.9782C11.3135 18.8066 11.3135 18.6339 11.3135 18.4618C11.3135 18.3719 11.3897 18.2991 11.4819 18.2992C11.7545 18.2996 12.027 18.301 12.2996 18.3014C12.3677 18.3015 12.4336 18.3207 12.492 18.3554C12.5598 18.3955 12.6283 18.435 12.6985 18.4746C12.6985 18.3019 12.6985 18.1287 12.6985 17.9555C12.6985 17.7635 12.5401 17.6074 12.3437 17.6074C12.2615 17.6074 12.1794 17.6074 12.0972 17.6074H12.0972ZM15.3561 18.0079C15.3561 17.9427 15.3735 17.8781 15.4062 17.8218C15.4476 17.7504 15.4903 17.6796 15.5324 17.6074C14.7167 17.6074 13.903 17.6074 13.0893 17.6074C13.1314 17.6769 13.1739 17.7457 13.2155 17.8154C13.248 17.8697 13.2637 17.933 13.2637 17.9961C13.2637 18.582 13.2637 19.1674 13.2637 19.7528C13.2637 20.3387 13.2637 20.9241 13.2637 21.5095C13.2637 21.5726 13.2483 21.6345 13.2155 21.6881C13.1742 21.7558 13.1314 21.8228 13.0893 21.8902C13.442 21.9041 13.7948 21.9217 14.1475 21.9404C14.1054 21.8688 14.0641 21.7967 14.0233 21.7255C13.9899 21.6674 13.9732 21.6042 13.9732 21.5405C13.9732 21.3021 13.9732 21.0631 13.9732 20.8247C13.9732 20.5862 13.9732 20.3473 13.9732 20.1088C14.1976 19.9859 14.4221 19.8645 14.6486 19.741C14.6486 20.0479 14.6486 20.3548 14.6486 20.6611C14.6486 20.9669 14.6486 21.2737 14.6486 21.5795C14.6486 21.6437 14.631 21.7065 14.5985 21.7597C14.5569 21.8278 14.5143 21.8949 14.4743 21.9623C14.827 21.9863 15.1797 22.0147 15.5325 22.0452C15.4904 21.9703 15.4476 21.8953 15.4062 21.8201C15.3735 21.7606 15.3561 21.6945 15.3561 21.6298C15.3561 21.0262 15.3561 20.4226 15.3561 19.8191C15.3561 19.2155 15.3561 18.6119 15.3561 18.0078L15.3561 18.0079ZM13.9732 19.2952C13.9732 18.9675 13.9732 18.6398 13.9732 18.3121C14.1976 18.3142 14.4221 18.3169 14.6486 18.319C14.6486 18.5195 14.6486 18.72 14.6486 18.9199C14.4221 19.0461 14.1976 19.1706 13.9732 19.2952V19.2952ZM18.1941 18.0341C18.1941 17.9673 18.2104 17.9016 18.2422 17.8432C18.2845 17.7653 18.3263 17.6866 18.3684 17.6074C18.0157 17.6074 17.663 17.6074 17.3102 17.6074C17.3523 17.6844 17.3957 17.7602 17.4385 17.8373C17.4698 17.8938 17.4866 17.9587 17.4866 18.0244C17.4866 18.3356 17.4866 18.6467 17.4866 18.9579C17.4866 19.2685 17.4866 19.5796 17.4866 19.8902C17.3924 19.5625 17.2963 19.2364 17.204 18.9135C17.1119 18.5917 17.0153 18.2716 16.9234 17.9533C16.8951 17.8551 16.9053 17.7502 16.9555 17.6615C16.9655 17.6438 16.9755 17.6257 16.9855 17.6075C16.6328 17.6075 16.2801 17.6075 15.9273 17.6075C15.9694 17.6818 16.0112 17.7552 16.0536 17.8288C16.0853 17.884 16.1017 17.9459 16.1017 18.0106C16.1017 18.6254 16.1017 19.2412 16.1017 19.856C16.1017 20.4703 16.1017 21.0856 16.1017 21.7004C16.1017 21.763 16.0851 21.8236 16.0536 21.8747C16.0109 21.9438 15.9694 22.0137 15.9273 22.0832C16.2801 22.1206 16.6328 22.1602 16.9855 22.2045C16.9435 22.1244 16.9016 22.0434 16.8593 21.9634C16.8275 21.9034 16.8112 21.8389 16.8112 21.7747C16.8112 21.4721 16.8112 21.1695 16.8112 20.8669C16.8112 20.5649 16.8112 20.2618 16.8112 19.9586C16.9034 20.2799 16.9978 20.6033 17.0897 20.9273C17.1822 21.2529 17.277 21.5804 17.3703 21.9116C17.3992 22.014 17.3871 22.12 17.3383 22.2013C17.329 22.2168 17.3182 22.2313 17.3102 22.2462C17.6629 22.2976 18.0157 22.3505 18.3684 22.4072C18.3263 22.3216 18.2844 22.2365 18.2422 22.1522C18.2103 22.0885 18.1941 22.0201 18.1941 21.9533C18.1941 21.3005 18.1941 20.6473 18.1941 19.994C18.1941 19.3407 18.1941 18.6874 18.1941 18.0341V18.0341ZM20.3226 17.6074C19.8015 17.6074 19.2824 17.6074 18.7633 17.6074C18.8054 17.6876 18.849 17.767 18.8916 17.848C18.9232 17.9082 18.9397 17.9774 18.9397 18.048C18.9397 18.7178 18.9397 19.3882 18.9397 20.0581C18.9397 20.728 18.9397 21.3984 18.9397 22.0677C18.9397 22.1377 18.9232 22.2038 18.8916 22.2586C18.849 22.3322 18.8054 22.4034 18.7633 22.4751C19.4026 22.5943 20.0423 22.7244 20.6833 22.8707C20.8761 22.9147 21.0321 22.7627 21.0321 22.5275C21.0321 21.779 21.0321 21.0295 21.0321 20.281C21.0321 19.5326 21.0321 18.7831 21.0321 18.0341C21.0321 17.7989 20.8758 17.6075 20.6833 17.6075C20.5631 17.6075 20.4428 17.6075 20.3226 17.6075V17.6074ZM20.1582 21.9137C19.9879 21.8827 19.8175 21.8523 19.6472 21.8234C19.6472 21.2578 19.6472 20.6916 19.6472 20.126C19.6472 19.5604 19.6472 18.9942 19.6472 18.4281C19.8175 18.4334 19.9879 18.4398 20.1582 18.4457C20.2484 18.4489 20.3226 18.5387 20.3226 18.6478C20.3226 19.1648 20.3226 19.6817 20.3226 20.1976C20.3226 20.7141 20.3226 21.231 20.3226 21.7475C20.3226 21.8565 20.2484 21.9303 20.1582 21.9137V21.9137Z" fill="#1F3F67"/>
<path d="M5.74308 23.9258C5.70121 23.9303 5.65935 23.9348 5.61746 23.9394C5.61746 24.1489 5.61746 24.3585 5.61746 24.5678C5.61746 24.7772 5.61746 24.9868 5.61746 25.1961C5.54187 25.1984 5.46743 25.2006 5.393 25.2027C5.393 24.9967 5.393 24.7904 5.393 24.5843C5.393 24.3781 5.393 24.1719 5.393 23.9656C5.35112 23.9702 5.30925 23.9752 5.26855 23.9799C5.26855 23.9189 5.26855 23.8577 5.26855 23.7967C5.42674 23.7762 5.58492 23.7555 5.7431 23.7366C5.7431 23.7998 5.7431 23.8629 5.7431 23.9258H5.74308ZM6.37003 25.1786C6.29557 25.1804 6.22112 25.1824 6.14671 25.1842C6.12229 25.1426 6.11064 25.0233 6.11064 24.8259C6.11064 24.8254 6.11064 24.8246 6.11064 24.8237C6.11064 24.7941 6.11137 24.7644 6.11181 24.7344C6.11367 24.6103 6.11297 24.5472 6.11297 24.5443C6.11297 24.4936 6.09089 24.4697 6.04553 24.4728C6.04553 24.5914 6.04553 24.7101 6.04553 24.8287C6.04553 24.9473 6.04553 25.0661 6.04553 25.1845C5.96991 25.1865 5.8955 25.1884 5.82105 25.1904C5.82105 24.9466 5.82105 24.7028 5.82105 24.459C5.82105 24.2152 5.82105 23.9713 5.82105 23.7273C5.91295 23.7166 6.00486 23.706 6.09671 23.6961C6.16071 23.6892 6.21545 23.7046 6.26188 23.7421C6.30848 23.7798 6.33166 23.845 6.33166 23.9372C6.33166 23.9977 6.33166 24.0578 6.33166 24.1181C6.33166 24.2351 6.2863 24.3171 6.19325 24.3649C6.2863 24.3906 6.33247 24.4708 6.33166 24.6046C6.33133 24.6596 6.32933 24.7146 6.32933 24.7697C6.32933 24.8902 6.33284 24.9847 6.33862 25.0527C6.34445 25.1208 6.35607 25.1629 6.37005 25.1786L6.37003 25.1786ZM6.11295 24.2087C6.11295 24.127 6.11295 24.0453 6.11295 23.9636C6.11295 23.9116 6.09087 23.8878 6.04551 23.8923C6.04551 23.959 6.04551 24.0259 6.04551 24.0926C6.04551 24.1593 6.04551 24.226 6.04551 24.2927C6.09087 24.2891 6.11295 24.2614 6.11295 24.2087V24.2087ZM6.43283 23.6607C6.50729 23.6533 6.58172 23.646 6.65731 23.6389C6.65731 23.8529 6.65731 24.0669 6.65731 24.2809C6.65731 24.4949 6.65731 24.7089 6.65731 24.9229C6.65731 24.9536 6.6701 24.9685 6.69452 24.9677C6.71891 24.9669 6.73175 24.9512 6.73175 24.9204C6.73175 24.7057 6.73175 24.4908 6.73175 24.2761C6.73175 24.0614 6.73175 23.8465 6.73175 23.6317C6.80618 23.6252 6.88063 23.6186 6.95621 23.6121C6.95621 23.8261 6.95621 24.0403 6.95621 24.2543C6.95621 24.4681 6.95621 24.6823 6.95621 24.8961C6.95621 24.9855 6.93102 25.0556 6.88294 25.1055C6.83448 25.1558 6.77128 25.1808 6.6945 25.1823C6.62358 25.1838 6.56317 25.1635 6.51073 25.1215C6.45853 25.0798 6.43278 25.0115 6.43278 24.9159C6.43278 24.7067 6.43278 24.4975 6.43278 24.2882C6.43278 24.079 6.43278 23.8698 6.43278 23.6606L6.43283 23.6607ZM7.52734 24.1224C7.45873 24.1257 7.39126 24.1295 7.32377 24.1334C7.32377 24.03 7.32377 23.9266 7.32377 23.8229C7.32377 23.7973 7.31331 23.7855 7.29237 23.7869C7.27031 23.7885 7.2598 23.8017 7.2598 23.8274C7.2598 24.0084 7.2598 24.1896 7.2598 24.3706C7.2598 24.5514 7.2598 24.7328 7.2598 24.9136C7.2598 24.9391 7.27029 24.9516 7.29237 24.9511C7.31331 24.9506 7.32377 24.9373 7.32377 24.9117C7.32377 24.782 7.32377 24.6524 7.32377 24.5227C7.39124 24.5199 7.45873 24.5172 7.52734 24.5145C7.52734 24.649 7.52734 24.7834 7.52734 24.9179C7.52734 24.9932 7.50418 25.0543 7.4564 25.1005C7.4088 25.1466 7.35518 25.17 7.2947 25.171C7.1214 25.1739 7.03532 25.0823 7.03532 24.8958C7.03532 24.7289 7.03532 24.5619 7.03532 24.3952C7.03532 24.2283 7.03532 24.0612 7.03532 23.8943C7.03532 23.6924 7.1214 23.5842 7.2947 23.5706C7.45055 23.5584 7.52734 23.6469 7.52734 23.8344C7.52734 23.9305 7.52734 24.0264 7.52734 24.1224V24.1224ZM8.16822 25.1442C8.08565 25.1453 8.00307 25.1463 7.92163 25.1476C7.90651 25.0486 7.89139 24.9496 7.87743 24.8508C7.8635 24.7521 7.84952 24.6533 7.83557 24.5545C7.83557 24.6536 7.83557 24.7528 7.83557 24.8517C7.83557 24.9507 7.83557 25.0499 7.83557 25.1488C7.75995 25.1499 7.68552 25.1512 7.61109 25.1522C7.61109 24.8873 7.61109 24.6219 7.61109 24.3569C7.61109 24.0917 7.61109 23.8265 7.61109 23.5613C7.68552 23.5561 7.75997 23.551 7.83557 23.546C7.83557 23.6348 7.83557 23.7238 7.83557 23.8126C7.83557 23.9014 7.83557 23.9902 7.83557 24.0792C7.85185 23.9895 7.86816 23.8996 7.88442 23.8099C7.9007 23.7201 7.91699 23.6302 7.93327 23.5399C8.0019 23.536 8.0717 23.5317 8.14147 23.5274C8.11822 23.6516 8.09381 23.7759 8.0717 23.8996C8.04964 24.0232 8.02515 24.1468 8.00307 24.2702C8.02981 24.4154 8.05777 24.5607 8.08449 24.7062C8.11123 24.8519 8.14031 24.998 8.16822 25.1442V25.1442ZM8.48924 25.1403C8.48924 24.8685 8.48924 24.5965 8.48924 24.3247C8.48924 24.053 8.48924 23.7812 8.48924 23.5092C8.58228 23.5048 8.67535 23.5007 8.76837 23.4966C8.82885 23.4939 8.88239 23.5181 8.93007 23.5695C8.97776 23.6208 9.00101 23.702 9.00101 23.8124C9.00101 23.9786 9.00101 24.1452 9.00101 24.3112C9.00101 24.4774 9.00101 24.6438 9.00101 24.81C9.00101 24.9127 8.97909 24.9927 8.93473 25.0504C8.8907 25.1076 8.83586 25.1368 8.76956 25.1374C8.6754 25.1383 8.58231 25.1392 8.48926 25.1403H8.48924ZM8.77653 24.8391C8.77653 24.6648 8.77653 24.4906 8.77653 24.3164C8.77653 24.142 8.77653 23.9675 8.77653 23.7932C8.77653 23.7357 8.75558 23.7081 8.71256 23.7099C8.71256 23.9128 8.71256 24.1158 8.71256 24.3185C8.71256 24.5215 8.71256 24.7244 8.71256 24.9272C8.75558 24.9266 8.77653 24.8974 8.77653 24.8391ZM9.63262 25.1329C9.55816 25.1335 9.48371 25.134 9.4093 25.1344C9.38486 25.0876 9.37324 24.9543 9.37324 24.7345C9.37324 24.7338 9.37324 24.7331 9.37324 24.7322C9.37324 24.6992 9.37396 24.6659 9.3744 24.6327C9.37627 24.4944 9.37557 24.4243 9.37557 24.421C9.37557 24.3645 9.35348 24.3369 9.30813 24.3378C9.30813 24.4703 9.30813 24.6029 9.30813 24.7353C9.30813 24.8678 9.30813 25.0004 9.30813 25.1328C9.23251 25.1333 9.1581 25.1338 9.08364 25.1345C9.08364 24.8596 9.08364 24.5844 9.08364 24.3094C9.08364 24.0344 9.08364 23.7593 9.08364 23.4843C9.17555 23.4809 9.26743 23.4774 9.35931 23.4748C9.42328 23.473 9.47793 23.4952 9.52448 23.541C9.57095 23.5867 9.59425 23.6605 9.59425 23.7623C9.59425 23.8288 9.59425 23.8953 9.59425 23.9618C9.59425 24.0908 9.54889 24.1789 9.45585 24.2261C9.54889 24.26 9.59507 24.3509 9.59425 24.4986C9.59392 24.5594 9.59192 24.6202 9.59192 24.6808C9.59192 24.8141 9.59541 24.9184 9.60122 24.9936C9.60702 25.0687 9.61866 25.1153 9.63264 25.1329L9.63262 25.1329ZM9.37554 24.0471C9.37554 23.9563 9.37554 23.8654 9.37554 23.7744C9.37554 23.7164 9.35346 23.6881 9.3081 23.6893C9.3081 23.7641 9.3081 23.8386 9.3081 23.9131C9.3081 23.9875 9.3081 24.0621 9.3081 24.1366C9.35346 24.1355 9.37554 24.1061 9.37554 24.047V24.0471ZM9.91874 25.1294C9.84312 25.1297 9.76872 25.1301 9.69426 25.1304C9.69426 24.8529 9.69426 24.5755 9.69426 24.2982C9.69426 24.0208 9.69426 23.7432 9.69426 23.4657C9.76872 23.4639 9.84315 23.4623 9.91874 23.4607C9.91874 23.7389 9.91874 24.0171 9.91874 24.2951C9.91874 24.5731 9.91874 24.8513 9.91874 25.1293V25.1294ZM10.5678 23.4518C10.5445 23.7312 10.5201 24.0107 10.498 24.29C10.4759 24.569 10.4514 24.8483 10.4294 25.1274C10.3235 25.1276 10.2177 25.1279 10.1118 25.1283C10.0886 24.8501 10.0641 24.5717 10.042 24.2935C10.02 24.0155 9.99667 23.7373 9.97456 23.4595C10.0467 23.4582 10.12 23.4574 10.1932 23.4561C10.206 23.6506 10.2188 23.8452 10.2316 24.0399C10.2444 24.2345 10.2572 24.4292 10.2712 24.624C10.284 24.4291 10.2967 24.2341 10.3095 24.0391C10.3223 23.844 10.3351 23.6488 10.3479 23.4538C10.4212 23.4531 10.4945 23.4525 10.5678 23.4518V23.4518ZM10.8504 25.1267C10.7748 25.1267 10.7004 25.1269 10.6259 25.127C10.6259 24.8478 10.6259 24.5685 10.6259 24.2892C10.6259 24.01 10.6259 23.7305 10.6259 23.4513C10.7004 23.4505 10.7748 23.4504 10.8504 23.45C10.8504 23.7295 10.8504 24.0091 10.8504 24.2884C10.8504 24.5678 10.8504 24.8474 10.8504 25.1267ZM11.4983 25.1267C11.4215 25.1265 11.3447 25.1265 11.2679 25.1265C11.2412 24.9776 11.2156 24.8287 11.19 24.6798C11.1644 24.5309 11.1388 24.382 11.1132 24.2329C11.1132 24.382 11.1132 24.5309 11.1132 24.6798C11.1132 24.8287 11.1132 24.9776 11.1132 25.1265C11.0504 25.1267 10.9888 25.1267 10.9271 25.1267C10.9271 24.8473 10.9271 24.5678 10.9271 24.2884C10.9271 24.0089 10.9271 23.7295 10.9271 23.4499C11.012 23.4497 11.097 23.4497 11.1818 23.4499C11.2028 23.5772 11.2249 23.7047 11.2458 23.8322C11.2668 23.9597 11.29 24.087 11.3121 24.2143C11.3121 24.087 11.3121 23.9597 11.3121 23.8324C11.3121 23.7048 11.3121 23.5775 11.3121 23.4502C11.3738 23.4504 11.4354 23.4505 11.4982 23.4511C11.4982 23.7304 11.4982 24.0098 11.4982 24.2889C11.4982 24.5681 11.4982 24.8476 11.4982 25.1267H11.4983ZM12.0694 25.1281C12.0333 25.1281 11.9972 25.1279 11.9624 25.1278C11.9519 25.0973 11.9426 25.0666 11.9333 25.0357C11.8844 25.1065 11.8321 25.1416 11.7774 25.1415C11.7239 25.1414 11.677 25.119 11.6367 25.0732C11.5968 25.0279 11.5774 24.9549 11.5774 24.8553C11.5774 24.6734 11.5774 24.4911 11.5774 24.3092C11.5774 24.1271 11.5774 23.9451 11.5774 23.7628C11.5774 23.5458 11.6611 23.4374 11.8298 23.4395C11.9891 23.4415 12.0694 23.542 12.0694 23.7393C12.0694 23.8429 12.0694 23.9463 12.0694 24.0495C12.0007 24.0488 11.9333 24.0481 11.8658 24.0472C11.8658 23.9351 11.8658 23.8227 11.8658 23.7104C11.8658 23.6831 11.8553 23.6694 11.8332 23.6692C11.8123 23.6689 11.8018 23.6824 11.8018 23.7095C11.8018 23.9024 11.8018 24.0954 11.8018 24.2881C11.8018 24.4809 11.8018 24.6739 11.8018 24.8667C11.8018 24.8938 11.8123 24.9075 11.8332 24.9075C11.8553 24.9075 11.8658 24.8941 11.8658 24.8667C11.8658 24.7625 11.8658 24.6582 11.8658 24.5539C11.8507 24.5537 11.8356 24.5537 11.8216 24.5535C11.8216 24.4684 11.8216 24.3832 11.8216 24.298C11.9042 24.2987 11.9868 24.2994 12.0694 24.3001C12.0694 24.4383 12.0694 24.5763 12.0694 24.7142C12.0694 24.8522 12.0694 24.9902 12.0694 25.1281V25.1281ZM13.0161 25.1338C12.9417 25.1331 12.8673 25.1326 12.7928 25.1322C12.7859 25.0579 12.7788 24.9837 12.773 24.9095C12.7672 24.8352 12.7614 24.7609 12.7556 24.6866C12.7219 24.6862 12.6893 24.6857 12.6567 24.6853C12.6497 24.7597 12.6428 24.8339 12.637 24.9081C12.6311 24.9824 12.6242 25.0568 12.6183 25.131C12.5439 25.1306 12.4694 25.1303 12.395 25.1299C12.423 24.8524 12.4509 24.5751 12.4788 24.2982C12.5067 24.0214 12.5346 23.7444 12.5625 23.4678C12.6579 23.4707 12.7533 23.4734 12.8486 23.4762C12.8766 23.7532 12.9045 24.0297 12.9324 24.306C12.9603 24.5822 12.9882 24.8581 13.0161 25.1338L13.0161 25.1338ZM12.737 24.4564C12.7312 24.3738 12.7254 24.2911 12.7207 24.2085C12.7161 24.1259 12.7103 24.0432 12.7056 23.9604C12.6998 24.043 12.694 24.1255 12.6893 24.2079C12.6847 24.2903 12.6789 24.3729 12.6742 24.4555C12.6951 24.4556 12.7161 24.456 12.737 24.4564V24.4564ZM13.5745 24.0765C13.5058 24.0744 13.4372 24.072 13.3697 24.0699C13.3697 23.962 13.3697 23.8541 13.3697 23.7462C13.3697 23.7197 13.3593 23.7061 13.3395 23.7052C13.3174 23.7043 13.3058 23.7172 13.3058 23.7439C13.3058 23.9333 13.3058 24.123 13.3058 24.3123C13.3058 24.5015 13.3058 24.691 13.3058 24.8803C13.3058 24.9068 13.3174 24.9204 13.3395 24.9207C13.3593 24.9211 13.3697 24.9077 13.3697 24.881C13.3697 24.7458 13.3697 24.6108 13.3697 24.4756C13.4372 24.4772 13.5058 24.479 13.5745 24.4806C13.5745 24.6192 13.5745 24.7576 13.5745 24.8961C13.5745 24.9735 13.5501 25.0356 13.5023 25.0821C13.4547 25.1285 13.4011 25.1512 13.3418 25.1506C13.1685 25.149 13.0824 25.0495 13.0824 24.8517C13.0824 24.675 13.0824 24.4981 13.0824 24.3214C13.0824 24.1446 13.0824 23.9675 13.0824 23.7906C13.0824 23.5768 13.1685 23.4727 13.3418 23.48C13.4965 23.4864 13.5745 23.5868 13.5745 23.7799C13.5745 23.8789 13.5745 23.9777 13.5745 24.0765V24.0765ZM14.2607 25.1476C14.1863 25.1465 14.1118 25.1454 14.0386 25.1446C14.0316 25.072 14.0246 24.9996 14.0188 24.9272C14.013 24.8546 14.006 24.7822 14.0002 24.7096C13.9664 24.7087 13.9339 24.708 13.9013 24.7073C13.8943 24.7797 13.8873 24.8523 13.8815 24.9247C13.8757 24.9972 13.8687 25.0696 13.8629 25.1424C13.7885 25.1415 13.714 25.1404 13.6408 25.1396C13.6675 24.8681 13.6966 24.5969 13.7233 24.3262C13.75 24.0558 13.7792 23.7858 13.8071 23.516C13.9024 23.5208 13.9978 23.5258 14.0932 23.5317C14.1211 23.8023 14.149 24.0723 14.1769 24.3417C14.2048 24.6106 14.2328 24.8794 14.2607 25.1476L14.2607 25.1476ZM13.9827 24.4847C13.9769 24.4041 13.9699 24.3232 13.9653 24.2426C13.9606 24.1618 13.9548 24.0812 13.9502 24C13.9443 24.0806 13.9385 24.1611 13.9339 24.2415C13.9292 24.3219 13.9246 24.4025 13.9199 24.4829C13.9409 24.4835 13.9618 24.4842 13.9827 24.4847V24.4847ZM14.3259 25.1485C14.3259 24.8814 14.3259 24.6142 14.3259 24.3472C14.3259 24.0803 14.3259 23.813 14.3259 23.5458C14.4189 23.5519 14.512 23.5583 14.605 23.5647C14.6655 23.5688 14.7197 23.5987 14.7667 23.653C14.8139 23.7076 14.8388 23.7873 14.8388 23.8927C14.8388 24.0516 14.8388 24.2106 14.8388 24.3694C14.8388 24.5283 14.8388 24.6873 14.8388 24.846C14.8388 24.9443 14.8165 25.0197 14.7714 25.0738C14.7269 25.1271 14.6725 25.154 14.6062 25.1529C14.512 25.1514 14.4189 25.1499 14.3259 25.1485H14.3259ZM14.6143 24.8646C14.6143 24.6961 14.6143 24.5274 14.6143 24.3588C14.6143 24.1901 14.6143 24.0214 14.6143 23.8527C14.6143 23.7971 14.5922 23.768 14.5503 23.7655C14.5503 23.9626 14.5503 24.1596 14.5503 24.3565C14.5503 24.5536 14.5503 24.7506 14.5503 24.9475C14.5922 24.9484 14.6143 24.9209 14.6143 24.8646ZM15.3553 25.1669C15.2087 25.1636 15.0633 25.161 14.9179 25.1583C14.9179 24.8967 14.9179 24.6349 14.9179 24.3733C14.9179 24.1117 14.9179 23.8499 14.9179 23.5881C15.0621 23.5993 15.2076 23.612 15.3529 23.6245C15.3529 23.6906 15.3529 23.7568 15.3529 23.8228C15.282 23.8172 15.211 23.8115 15.1412 23.8062C15.1412 23.8763 15.1412 23.9465 15.1412 24.0164C15.1412 24.0863 15.1412 24.1564 15.1412 24.2263C15.2041 24.2301 15.268 24.234 15.332 24.2379C15.332 24.3003 15.332 24.3629 15.332 24.4253C15.268 24.4219 15.2041 24.4185 15.1412 24.4153C15.1412 24.5065 15.1412 24.5978 15.1412 24.6889C15.1412 24.7799 15.1412 24.8712 15.1412 24.9623C15.2122 24.9645 15.2831 24.9664 15.3553 24.9686C15.3553 25.0347 15.3553 25.1007 15.3553 25.1669V25.1669ZM16.2055 25.1865C16.1392 25.1849 16.0729 25.1833 16.0066 25.1815C16.0066 25.0418 16.0066 24.9022 16.0066 24.7626C16.0066 24.6229 16.0066 24.4833 16.0066 24.3437C15.9868 24.482 15.9659 24.6206 15.9473 24.7597C15.9286 24.8991 15.9077 25.0386 15.8891 25.1786C15.8379 25.1772 15.7867 25.1761 15.7356 25.1751C15.7123 25.0326 15.6902 24.8899 15.6681 24.7469C15.646 24.6037 15.6239 24.4601 15.6018 24.3162C15.6018 24.4589 15.6018 24.6014 15.6018 24.744C15.6018 24.8867 15.6018 25.0294 15.6018 25.1718C15.5425 25.1706 15.4844 25.1693 15.4262 25.1681C15.4262 24.912 15.4262 24.6557 15.4262 24.3997C15.4262 24.1436 15.4262 23.8873 15.4262 23.631C15.5216 23.6401 15.6181 23.6494 15.7147 23.6589C15.7309 23.7914 15.7484 23.9237 15.7647 24.0558C15.7809 24.1878 15.7996 24.3196 15.817 24.4512C15.831 24.3217 15.8461 24.1926 15.86 24.0637C15.874 23.9349 15.8903 23.8065 15.9054 23.6783C16.0054 23.6891 16.1055 23.6998 16.2055 23.7109C16.2055 23.9568 16.2055 24.2029 16.2055 24.4487C16.2055 24.6946 16.2055 24.9405 16.2055 25.1864V25.1865ZM16.8999 23.7968C16.8743 23.8884 16.8498 23.9806 16.8254 24.0728C16.801 24.1655 16.7766 24.2586 16.7521 24.3519C16.7277 24.4453 16.7033 24.5393 16.6789 24.6336C16.6789 24.728 16.6789 24.8223 16.6789 24.9167C16.6789 25.011 16.6789 25.1054 16.6789 25.1997C16.6044 25.1975 16.53 25.1954 16.4556 25.1934C16.4556 25.0996 16.4556 25.0056 16.4556 24.9119C16.4556 24.8181 16.4585 24.724 16.4556 24.6301C16.4539 24.578 16.4325 24.4767 16.3974 24.3246C16.3825 24.2598 16.3636 24.1771 16.3427 24.0763C16.3218 23.9754 16.2962 23.8559 16.2683 23.7184C16.3392 23.7266 16.4102 23.735 16.4823 23.7436C16.4986 23.8306 16.5161 23.9175 16.5323 24.0039C16.5486 24.0906 16.566 24.1771 16.5835 24.2634C16.6021 24.1807 16.6207 24.0981 16.6393 24.0159C16.6579 23.9339 16.6777 23.8522 16.6975 23.7708C16.7649 23.7792 16.8324 23.788 16.8999 23.7967L16.8999 23.7968Z" fill="#FEFEFE"/>
<path fill-rule="evenodd" clip-rule="evenodd" d="M4.5082 4.52633L5.16583 4.49053C5.26784 4.48498 5.36245 4.55846 5.36245 4.66476V6.26021C5.36245 6.36317 5.27311 6.44273 5.17312 6.44818L4.51544 6.48399C4.41343 6.48953 4.31885 6.41606 4.31885 6.30976V4.71431C4.31885 4.61134 4.40814 4.53179 4.5082 4.52633V4.52633Z" fill="black"/>
<path fill-rule="evenodd" clip-rule="evenodd" d="M18.0522 4.52633L17.3946 4.49053C17.2926 4.48498 17.198 4.55846 17.198 4.66476V6.26021C17.198 6.36317 17.2874 6.44273 17.3874 6.44818L18.045 6.48399C18.147 6.48953 18.2417 6.41606 18.2417 6.30976V4.71431C18.2417 4.61134 18.1523 4.53179 18.0522 4.52633V4.52633Z" fill="black"/>
<path fill-rule="evenodd" clip-rule="evenodd" d="M4.51129 4.59461L5.16894 4.5588C5.23825 4.55503 5.29497 4.60334 5.29497 4.66615V6.26159C5.29497 6.32442 5.23825 6.37891 5.16894 6.38266L4.51129 6.41849C4.44196 6.42227 4.38525 6.37395 4.38525 6.31114V4.7157C4.38525 4.65282 4.44196 4.59838 4.51129 4.59461Z" fill="#1F3F67"/>
<path fill-rule="evenodd" clip-rule="evenodd" d="M18.0469 4.59461L17.3892 4.5588C17.3199 4.55503 17.2632 4.60334 17.2632 4.66615V6.26159C17.2632 6.32442 17.3199 6.37891 17.3892 6.38266L18.0469 6.41849C18.1162 6.42227 18.1729 6.37395 18.1729 6.31114V4.7157C18.1729 4.65282 18.1162 4.59838 18.0469 4.59461Z" fill="#1F3F67"/>
<path fill-rule="evenodd" clip-rule="evenodd" d="M5.05584 4.56502C5.09386 4.56292 5.13185 4.56087 5.1699 4.5588C5.2392 4.55503 5.29593 4.60334 5.29593 4.66615C5.29593 5.198 5.29593 5.72979 5.29593 6.26159C5.29593 6.29186 5.28279 6.32014 5.26143 6.34176C5.10117 6.23147 4.99867 6.20526 4.82092 6.20203C4.81379 5.75036 4.80659 5.22123 4.79944 4.76956C4.79518 4.77816 4.90269 4.61471 4.90269 4.61471C4.90269 4.61471 4.96911 4.59321 5.05584 4.565V4.56502Z" fill="#08203B"/>
<path fill-rule="evenodd" clip-rule="evenodd" d="M17.5033 4.56502C17.4653 4.56292 17.4273 4.56087 17.3892 4.5588C17.3199 4.55503 17.2632 4.60334 17.2632 4.66615C17.2632 5.198 17.2632 5.72979 17.2632 6.26159C17.2632 6.29186 17.2763 6.32014 17.2977 6.34176C17.458 6.23147 17.5604 6.20526 17.7382 6.20203C17.7453 5.75036 17.7525 5.22123 17.7596 4.76956C17.764 4.77816 17.6564 4.61471 17.6564 4.61471C17.6564 4.61471 17.59 4.59321 17.5033 4.565V4.56502Z" fill="#08203B"/>
<path fill-rule="evenodd" clip-rule="evenodd" d="M4.51285 4.59461L5.1705 4.55881C5.22546 4.55578 5.27252 4.58555 5.28962 4.62939C5.01675 4.84216 4.69349 4.90524 4.41333 4.64442C4.43644 4.61621 4.47255 4.5968 4.51287 4.59461H4.51285Z" fill="#1F3F67"/>
<path fill-rule="evenodd" clip-rule="evenodd" d="M18.048 4.59461L17.3903 4.55881C17.3354 4.55578 17.2883 4.58555 17.2712 4.62939C17.5441 4.84216 17.8673 4.90524 18.1475 4.64442C18.1244 4.61621 18.0884 4.5968 18.048 4.59461H18.048Z" fill="#1F3F67"/>
<path fill-rule="evenodd" clip-rule="evenodd" d="M6.7742 3.21084C6.75982 2.98785 6.89331 2.80008 7.11875 2.75629C8.49188 2.48941 9.87882 2.2793 11.2809 2.2793C12.6828 2.2793 14.0697 2.48938 15.4429 2.75629C15.6684 2.80008 15.8019 2.98785 15.7874 3.21084C15.789 3.22335 15.7898 3.23596 15.7906 3.2481C15.7932 3.28833 15.7951 3.32865 15.7971 3.36893C15.8039 3.51053 15.8096 3.65224 15.8154 3.79388C15.8326 4.22281 15.8483 4.65181 15.8638 5.08077C15.8863 5.70464 15.9081 6.32849 15.9296 6.95241L15.9343 7.09044L11.2809 6.99569L6.6272 7.09044L6.63216 6.95222C6.65427 6.32844 6.67544 5.70459 6.69797 5.08077C6.71349 4.65181 6.72917 4.22281 6.74643 3.79388C6.75214 3.65224 6.75782 3.51053 6.76467 3.36893C6.76663 3.32868 6.76861 3.28835 6.77117 3.2481C6.77194 3.23596 6.77282 3.22335 6.77429 3.21084H6.7742Z" fill="black"/>
<path fill-rule="evenodd" clip-rule="evenodd" d="M6.90462 3.20875C6.89208 3.07738 6.95086 2.91622 7.14273 2.8789C8.51178 2.61281 9.88598 2.40254 11.2799 2.40431C12.6736 2.40254 14.0479 2.61279 15.4169 2.8789C15.6088 2.9162 15.6676 3.07738 15.6551 3.20875C15.6645 3.20875 15.7979 6.95118 15.7979 6.95118L11.2798 6.85923L6.76172 6.95118C6.76172 6.95118 6.89509 3.20875 6.90457 3.20875H6.90462Z" fill="#08203B"/>
<path fill-rule="evenodd" clip-rule="evenodd" d="M7.11115 1.46936C7.11115 3.25299 7.11115 5.0366 7.11115 6.8202V6.95094H6.98044C6.71374 6.95094 6.44698 6.95094 6.18028 6.95094H6.04952V6.8202C6.04952 5.10742 6.04952 3.39465 6.04952 1.68189V1.67907L6.04963 1.67627C6.05208 1.61938 6.02487 1.55136 5.9999 1.50134C5.96777 1.43695 5.92658 1.37552 5.88339 1.31802C5.85795 1.28413 5.81504 1.23747 5.79505 1.20236C5.70219 1.0391 5.69276 0.840008 5.72437 0.65853C5.75088 0.506219 5.80999 0.345079 5.89553 0.215831C5.96977 0.10366 6.09003 -0.0194374 6.23789 0.00257756C6.2874 0.00993918 6.33129 0.0332587 6.36702 0.0679469C6.44728 0.145803 6.5242 0.241551 6.59223 0.330169C6.69126 0.459207 6.78414 0.595304 6.86598 0.735967C6.98647 0.943001 7.12021 1.22451 7.11113 1.46931L7.11115 1.46936Z" fill="black"/>
<path fill-rule="evenodd" clip-rule="evenodd" d="M15.4487 1.46936C15.4487 3.25299 15.4487 5.0366 15.4487 6.8202V6.95094H15.5794C15.8461 6.95094 16.1128 6.95094 16.3795 6.95094H16.5103V6.8202C16.5103 5.10742 16.5103 3.39465 16.5103 1.68189V1.67907L16.5101 1.67627C16.5077 1.61938 16.5349 1.55136 16.5599 1.50134C16.592 1.43695 16.6332 1.37552 16.6764 1.31802C16.7019 1.28413 16.7447 1.23747 16.7648 1.20236C16.8576 1.0391 16.867 0.840008 16.8354 0.65853C16.8089 0.506219 16.7498 0.345079 16.6642 0.215831C16.5901 0.10366 16.4698 -0.0194374 16.3219 0.00257756C16.2724 0.00993918 16.2285 0.0332587 16.1927 0.0679469C16.1125 0.145803 16.0356 0.241551 15.9676 0.330169C15.8686 0.459207 15.7756 0.595304 15.6938 0.735967C15.5733 0.943001 15.4396 1.22451 15.4487 1.46931L15.4487 1.46936Z" fill="black"/>
<path fill-rule="evenodd" clip-rule="evenodd" d="M6.17966 1.67604C6.18954 1.44603 5.92401 1.15986 5.9081 1.13186C5.67702 0.725619 6.0756 -0.0378455 6.27541 0.155956C6.45002 0.325297 6.99794 1.02609 6.97982 1.46094C6.97982 3.24541 6.97982 5.0299 6.97982 6.81435C6.71308 6.81435 6.44636 6.81435 6.17966 6.81435C6.17966 5.0299 6.17966 3.46051 6.17966 1.67604V1.67604Z" fill="white"/>
<path fill-rule="evenodd" clip-rule="evenodd" d="M16.3802 1.67604C16.3703 1.44603 16.6359 1.15986 16.6517 1.13186C16.8828 0.725619 16.4842 -0.0378455 16.2844 0.155956C16.1098 0.325297 15.5619 1.02609 15.58 1.46094C15.58 3.24541 15.58 5.0299 15.58 6.81435C15.8467 6.81435 16.1135 6.81435 16.3802 6.81435C16.3802 5.0299 16.3802 3.46051 16.3802 1.67604V1.67604Z" fill="white"/>
<path fill-rule="evenodd" clip-rule="evenodd" d="M6.17966 1.67604C6.18952 1.44603 5.92406 1.15986 5.9081 1.13186C5.67702 0.725619 6.0756 -0.0378455 6.27541 0.155956C6.32755 0.206556 6.38297 0.257318 6.47674 0.38151C6.5968 0.50752 6.90108 0.999583 6.91794 1.34723C6.94595 1.92647 6.50257 1.68065 6.50257 2.26313C6.50257 3.87485 6.50686 5.20267 6.50686 6.81435C6.39781 6.81435 6.28871 6.81435 6.17966 6.81435C6.17966 5.0299 6.17966 3.46051 6.17966 1.67604V1.67604Z" fill="#B3B3B3"/>
<path fill-rule="evenodd" clip-rule="evenodd" d="M16.3808 1.67604C16.371 1.44603 16.6365 1.15986 16.6524 1.13186C16.8835 0.725619 16.4848 -0.0378455 16.2851 0.155956C16.2329 0.206556 16.1776 0.257318 16.0837 0.38151C15.9637 0.50752 15.6594 0.999583 15.6426 1.34723C15.6146 1.92647 16.0579 1.68065 16.0579 2.26313C16.0579 3.87485 16.0536 5.20267 16.0536 6.81435C16.1627 6.81435 16.2718 6.81435 16.3808 6.81435C16.3808 5.0299 16.3808 3.46051 16.3808 1.67604V1.67604Z" fill="#B3B3B3"/>
<path fill-rule="evenodd" clip-rule="evenodd" d="M5.83813 0.832779C5.83953 0.441169 6.1186 0.00389877 6.27534 0.155953C6.42028 0.2965 6.77499 0.687038 6.92728 1.18991C6.97767 1.83813 6.29714 1.63249 6.24834 1.49099C6.18462 1.30658 6.05025 1.18518 5.94006 1.06837C5.94006 1.06837 5.87336 0.960839 5.86905 0.950053C5.86532 0.940688 5.84375 0.855074 5.83813 0.832779Z" fill="white"/>
<path fill-rule="evenodd" clip-rule="evenodd" d="M16.7219 0.832779C16.7206 0.441169 16.4414 0.00389877 16.2847 0.155953C16.1398 0.2965 15.785 0.687038 15.6328 1.18991C15.5824 1.83813 16.2629 1.63249 16.3117 1.49099C16.3754 1.30658 16.5098 1.18518 16.62 1.06837C16.62 1.06837 16.6867 0.960839 16.691 0.950053C16.6947 0.940688 16.7163 0.855074 16.7219 0.832779Z" fill="white"/>
<path fill-rule="evenodd" clip-rule="evenodd" d="M7.0441 7.13737V7.54358H5.19657V7.13737C5.11599 7.12931 5.05127 7.06256 5.05127 6.97947V6.92784C5.05127 6.84651 5.11317 6.78091 5.19135 6.77054C5.22012 6.72554 5.27123 6.69602 5.32845 6.69602H5.42084C5.60053 6.60095 5.93844 6.58203 6.12031 6.58203C6.30221 6.58203 6.64007 6.60095 6.81978 6.69602H6.91222C6.96944 6.69602 7.0205 6.72554 7.0493 6.77054C7.12752 6.78091 7.18938 6.84651 7.18938 6.92784V6.97947C7.18938 7.06256 7.12471 7.12928 7.0441 7.13737Z" fill="black"/>
<path fill-rule="evenodd" clip-rule="evenodd" d="M15.5142 7.13737V7.54358H17.3617V7.13737C17.4423 7.12931 17.5069 7.06256 17.5069 6.97947V6.92784C17.5069 6.84651 17.4451 6.78091 17.3669 6.77054C17.3381 6.72554 17.287 6.69602 17.2298 6.69602H17.1374C16.9577 6.60095 16.6198 6.58203 16.438 6.58203C16.2561 6.58203 15.9181 6.60095 15.7384 6.69602H15.6461C15.5888 6.69602 15.5377 6.72554 15.509 6.77054C15.4307 6.78091 15.3689 6.84651 15.3689 6.92784V6.97947C15.3689 7.06256 15.4336 7.12928 15.5142 7.13737V7.13737Z" fill="black"/>
<path fill-rule="evenodd" clip-rule="evenodd" d="M5.32861 6.9707H6.91469V7.40087H5.32861V6.9707Z" fill="#B3B3B3"/>
<path fill-rule="evenodd" clip-rule="evenodd" d="M17.2319 6.9707H15.6458V7.40087H17.2319V6.9707Z" fill="#B3B3B3"/>
<path fill-rule="evenodd" clip-rule="evenodd" d="M6.80503 6.75464H6.91387C6.95922 6.75464 6.99892 6.78523 7.00917 6.82776H7.02937C7.08213 6.82776 7.12724 6.86914 7.12724 6.92267V6.9743C7.12724 7.02781 7.08213 7.06921 7.02937 7.06921H5.21461C5.16185 7.06921 5.1167 7.02781 5.1167 6.9743V6.92267C5.1167 6.86914 5.16185 6.82776 5.21461 6.82776H5.23481C5.24506 6.78523 5.28471 6.75464 5.33012 6.75464H5.43896C5.59982 6.65959 5.95005 6.64062 6.12196 6.64062C6.29391 6.64062 6.64414 6.65959 6.805 6.75464H6.80503Z" fill="black"/>
<path fill-rule="evenodd" clip-rule="evenodd" d="M15.756 6.75464H15.6472C15.6018 6.75464 15.5621 6.78523 15.5519 6.82776H15.5318C15.4789 6.82776 15.4338 6.86914 15.4338 6.92267V6.9743C15.4338 7.02781 15.4789 7.06921 15.5318 7.06921H17.3464C17.3993 7.06921 17.4444 7.02781 17.4444 6.9743V6.92267C17.4444 6.86914 17.3993 6.82776 17.3464 6.82776H17.3263C17.316 6.78523 17.2764 6.75464 17.2309 6.75464H17.1221C16.9612 6.65959 16.611 6.64062 16.4391 6.64062C16.2672 6.64062 15.9169 6.65959 15.756 6.75464H15.756Z" fill="black"/>
<path fill-rule="evenodd" clip-rule="evenodd" d="M6.12219 6.70703C6.42974 6.70703 6.69106 6.75467 6.78567 6.821H6.91407C6.9311 6.821 6.94501 6.83355 6.94501 6.84898V6.89412H7.02953C7.04656 6.89412 7.06051 6.9067 7.06051 6.9221V6.97373C7.06051 6.98913 7.04656 7.00166 7.02953 7.00166H5.21482C5.19779 7.00166 5.18384 6.98913 5.18384 6.97373V6.9221C5.18384 6.9067 5.19779 6.89412 5.21482 6.89412H5.29936V6.84898C5.29936 6.83355 5.31329 6.821 5.33032 6.821H5.45873C5.55332 6.75467 5.81461 6.70703 6.12216 6.70703H6.12219Z" fill="#808080"/>
<path fill-rule="evenodd" clip-rule="evenodd" d="M16.4388 6.70703C16.1312 6.70703 15.8699 6.75467 15.7753 6.821H15.647C15.63 6.821 15.616 6.83355 15.616 6.84898V6.89412H15.5315C15.5144 6.89412 15.5005 6.9067 15.5005 6.9221V6.97373C15.5005 6.98913 15.5144 7.00166 15.5315 7.00166H17.3461C17.3632 7.00166 17.3771 6.98913 17.3771 6.97373V6.9221C17.3771 6.9067 17.3632 6.89412 17.3461 6.89412H17.2616V6.84898C17.2616 6.83355 17.2477 6.821 17.2307 6.821H17.1023C17.0077 6.75467 16.7464 6.70703 16.4389 6.70703H16.4388Z" fill="#808080"/>
<path fill-rule="evenodd" clip-rule="evenodd" d="M5.15867 7.24023H7.08292C7.11598 7.24023 7.14685 7.25053 7.17212 7.26817H7.20413V7.29801C7.22496 7.32389 7.23752 7.35662 7.23752 7.39248V7.45913C7.23752 7.48401 7.23146 7.50737 7.22084 7.52797C7.23146 7.54856 7.23752 7.5719 7.23752 7.59678V7.7237C7.23752 7.75951 7.22501 7.79229 7.20413 7.81812V9.27029C7.22501 9.29613 7.23752 9.32891 7.23752 9.36476V9.49163C7.23752 9.52748 7.22501 9.56022 7.20413 9.5861V10.0246H5.03751V9.5861C5.01668 9.56022 5.00415 9.52748 5.00415 9.49163V9.36476C5.00415 9.32891 5.01668 9.29613 5.03751 9.27029V7.81812C5.01668 7.79229 5.00415 7.75951 5.00415 7.7237V7.59678C5.00415 7.5719 5.01016 7.54854 5.02083 7.52797C5.01016 7.50735 5.00415 7.48401 5.00415 7.45913V7.39248C5.00415 7.29079 5.05936 7.24023 5.15867 7.24023V7.24023Z" fill="black"/>
<path fill-rule="evenodd" clip-rule="evenodd" d="M17.4001 7.24023H15.4759C15.4429 7.24023 15.412 7.25053 15.3867 7.26817H15.3547V7.29801C15.3339 7.32389 15.3213 7.35662 15.3213 7.39248V7.45913C15.3213 7.48401 15.3273 7.50737 15.338 7.52797C15.3273 7.54856 15.3213 7.5719 15.3213 7.59678V7.7237C15.3213 7.75951 15.3339 7.79229 15.3547 7.81812V9.27029C15.3339 9.29613 15.3213 9.32891 15.3213 9.36476V9.49163C15.3213 9.52748 15.3339 9.56022 15.3547 9.5861V10.0246H17.5213V9.5861C17.5421 9.56022 17.5547 9.52748 17.5547 9.49163V9.36476C17.5547 9.32891 17.5421 9.29613 17.5213 9.27029V7.81812C17.5421 7.79229 17.5547 7.75951 17.5547 7.7237V7.59678C17.5547 7.5719 17.5487 7.54854 17.538 7.52797C17.5487 7.50735 17.5547 7.48401 17.5547 7.45913V7.39248C17.5547 7.29079 17.4994 7.24023 17.4001 7.24023V7.24023Z" fill="black"/>
<path fill-rule="evenodd" clip-rule="evenodd" d="M5.16968 7.40039H7.0748V9.89535H5.16968V7.40039Z" fill="#999999"/>
<path fill-rule="evenodd" clip-rule="evenodd" d="M17.3915 7.40039H15.4863V9.89535H17.3915V7.40039Z" fill="#999999"/>
<path fill-rule="evenodd" clip-rule="evenodd" d="M5.76019 9.88994H5.16968V7.50195H5.76019V9.88994Z" fill="#E6E6E6"/>
<path fill-rule="evenodd" clip-rule="evenodd" d="M16.8013 9.88994H17.3918V7.50195H16.8013V9.88994Z" fill="#E6E6E6"/>
<path fill-rule="evenodd" clip-rule="evenodd" d="M5.62621 9.89838H5.48853V7.65234H5.62621V9.89838Z" fill="#999999"/>
<path fill-rule="evenodd" clip-rule="evenodd" d="M16.9343 9.89838H17.0719V7.65234H16.9343V9.89838Z" fill="#999999"/>
<path fill-rule="evenodd" clip-rule="evenodd" d="M7.07394 7.61719V9.88834H6.44792C6.45097 9.52447 6.45412 8.85846 6.45384 8.49939C6.45333 7.92586 6.28576 7.84314 5.54321 7.77886C5.54321 7.77255 6.5279 7.65994 7.07394 7.61719Z" fill="#666666"/>
<path fill-rule="evenodd" clip-rule="evenodd" d="M15.4863 7.61719V9.88834H16.1124C16.1093 9.52447 16.1061 8.85846 16.1064 8.49939C16.107 7.92586 16.2746 7.84314 17.0171 7.77886C17.0171 7.77255 16.0324 7.65994 15.4863 7.61719Z" fill="#666666"/>
<path fill-rule="evenodd" clip-rule="evenodd" d="M5.15839 9.27309H7.08264C7.13181 9.27309 7.17342 9.31183 7.17342 9.36157V9.48844C7.17342 9.53818 7.13181 9.57692 7.08264 9.57692H5.15839C5.10923 9.57692 5.06763 9.53818 5.06763 9.48844V9.36157C5.06763 9.31183 5.10923 9.27309 5.15839 9.27309V9.27309ZM7.13962 7.52475C7.1601 7.54085 7.17342 7.56543 7.17342 7.59357V7.72049C7.17342 7.77018 7.13181 7.80894 7.08264 7.80894H5.15839C5.10923 7.80894 5.06763 7.77018 5.06763 7.72049V7.59357C5.06763 7.56543 5.08095 7.5408 5.10143 7.52475C5.08095 7.50868 5.06763 7.48403 5.06763 7.45591V7.38926C5.06763 7.33957 5.10923 7.30078 5.15839 7.30078H7.08264C7.13186 7.30078 7.17342 7.33952 7.17342 7.38926V7.45591C7.17342 7.48403 7.1601 7.50868 7.13962 7.52475V7.52475Z" fill="black"/>
<path fill-rule="evenodd" clip-rule="evenodd" d="M17.4018 9.27309H15.4775C15.4283 9.27309 15.3867 9.31183 15.3867 9.36157V9.48844C15.3867 9.53818 15.4283 9.57692 15.4775 9.57692H17.4018C17.451 9.57692 17.4925 9.53818 17.4925 9.48844V9.36157C17.4925 9.31183 17.451 9.27309 17.4018 9.27309ZM15.4205 7.52475C15.4 7.54085 15.3867 7.56543 15.3867 7.59357V7.72049C15.3867 7.77018 15.4283 7.80894 15.4775 7.80894H17.4018C17.451 7.80894 17.4925 7.77018 17.4925 7.72049V7.59357C17.4925 7.56543 17.4793 7.5408 17.4587 7.52475C17.4793 7.50868 17.4925 7.48403 17.4925 7.45591V7.38926C17.4925 7.33957 17.451 7.30078 17.4018 7.30078H15.4775C15.4283 7.30078 15.3867 7.33952 15.3867 7.38926V7.45591C15.3867 7.48403 15.4 7.50868 15.4205 7.52475Z" fill="black"/>
<path fill-rule="evenodd" clip-rule="evenodd" d="M5.15928 7.36328H7.08353C7.09662 7.36328 7.10736 7.37293 7.10736 7.38478V7.45143C7.10736 7.46329 7.09662 7.47294 7.08353 7.47294H5.15928C5.14619 7.47294 5.1355 7.46329 5.1355 7.45143V7.38478C5.1355 7.37293 5.14619 7.36328 5.15928 7.36328V7.36328ZM5.15928 7.56761H7.08353C7.09662 7.56761 7.10736 7.5773 7.10736 7.58911V7.71603C7.10736 7.72784 7.09662 7.73749 7.08353 7.73749H5.15928C5.14621 7.73749 5.1355 7.72784 5.1355 7.71603V7.58911C5.1355 7.57726 5.14619 7.56761 5.15928 7.56761V7.56761ZM5.15928 9.33561H7.08353C7.09662 9.33561 7.10736 9.34526 7.10736 9.35711V9.48399C7.10736 9.49584 7.09662 9.50549 7.08353 9.50549H5.15928C5.14621 9.50549 5.1355 9.49584 5.1355 9.48399V9.35711C5.1355 9.34526 5.14619 9.33561 5.15928 9.33561V9.33561Z" fill="#E6E6E6"/>
<path fill-rule="evenodd" clip-rule="evenodd" d="M17.4014 7.36328H15.4772C15.4641 7.36328 15.4534 7.37293 15.4534 7.38478V7.45143C15.4534 7.46329 15.4641 7.47294 15.4772 7.47294H17.4014C17.4145 7.47294 17.4252 7.46329 17.4252 7.45143V7.38478C17.4252 7.37293 17.4145 7.36328 17.4014 7.36328ZM17.4014 7.56761H15.4772C15.4641 7.56761 15.4534 7.5773 15.4534 7.58911V7.71603C15.4534 7.72784 15.4641 7.73749 15.4772 7.73749H17.4014C17.4145 7.73749 17.4252 7.72784 17.4252 7.71603V7.58911C17.4252 7.57726 17.4145 7.56761 17.4014 7.56761ZM17.4014 9.33561H15.4772C15.4641 9.33561 15.4534 9.34526 15.4534 9.35711V9.48399C15.4534 9.49584 15.4641 9.50549 15.4772 9.50549H17.4014C17.4145 9.50549 17.4252 9.49584 17.4252 9.48399V9.35711C17.4252 9.34526 17.4145 9.33561 17.4014 9.33561Z" fill="#E6E6E6"/>
<path fill-rule="evenodd" clip-rule="evenodd" d="M6.14196 7.56761C6.07461 7.63436 5.92829 7.69404 5.80347 7.73751H7.0832C7.09629 7.73751 7.10703 7.72787 7.10703 7.71606V7.58914C7.10703 7.57733 7.09629 7.56764 7.0832 7.56764H6.14196V7.56761ZM6.02616 7.36328C6.11696 7.39976 6.16232 7.43676 6.17532 7.47296H7.0832C7.09629 7.47296 7.10703 7.46332 7.10703 7.45146V7.38481C7.10703 7.37295 7.09629 7.3633 7.0832 7.3633H6.02616V7.36328ZM6.17921 9.33559H7.0832C7.09629 9.33559 7.10703 9.34523 7.10703 9.35709V9.48396C7.10703 9.49582 7.09629 9.50547 7.0832 9.50547H6.17723C6.21767 9.46472 6.22105 9.4154 6.17924 9.33557L6.17921 9.33559Z" fill="#999999"/>
<path fill-rule="evenodd" clip-rule="evenodd" d="M16.4184 7.56761C16.4858 7.63436 16.6321 7.69404 16.7569 7.73751H15.4772C15.4641 7.73751 15.4534 7.72787 15.4534 7.71606V7.58914C15.4534 7.57733 15.4641 7.56764 15.4772 7.56764H16.4184V7.56761ZM16.5342 7.36328C16.4434 7.39976 16.3981 7.43676 16.3851 7.47296H15.4772C15.4641 7.47296 15.4534 7.46332 15.4534 7.45146V7.38481C15.4534 7.37295 15.4641 7.3633 15.4772 7.3633H16.5342V7.36328ZM16.3812 9.33559H15.4772C15.4641 9.33559 15.4534 9.34523 15.4534 9.35709V9.48396C15.4534 9.49582 15.4641 9.50547 15.4772 9.50547H16.3831C16.3427 9.46472 16.3393 9.4154 16.3812 9.33557L16.3812 9.33559Z" fill="#999999"/>
<path fill-rule="evenodd" clip-rule="evenodd" d="M5.34302 7.47296V7.36328H5.48068V7.47296H5.34302ZM5.34302 7.73749V7.56759H5.48068V7.73749H5.34302ZM5.34302 9.33559H5.48068V9.50549H5.34302V9.33559Z" fill="#808080"/>
<path fill-rule="evenodd" clip-rule="evenodd" d="M17.218 7.47296V7.36328H17.0803V7.47296H17.218ZM17.218 7.73749V7.56759H17.0803V7.73749H17.218ZM17.218 9.33559H17.0803V9.50549H17.218V9.33559Z" fill="#808080"/>
<path fill-rule="evenodd" clip-rule="evenodd" d="M4.00466 13.0074C4.00554 13.0071 4.00641 13.0068 4.00731 13.0065L4.12603 12.9645L4.13211 12.9804L4.98121 12.8105L4.37106 13.1156H18.2922C18.3133 13.1037 18.3343 13.0915 18.3552 13.0792C18.3668 13.0723 18.3805 13.0646 18.3936 13.0566L18.4073 12.9881L18.5255 13.0002C18.7271 13.0208 18.8863 13.1036 18.9 13.3288L18.9002 13.3331V13.3374C18.8954 14.2652 18.8907 15.1928 18.8858 16.1206V16.1277L18.8851 16.1348C18.8518 16.4252 18.5525 16.5014 18.3062 16.5171L18.302 16.5173H4.25975L4.25563 16.5171C4.00932 16.5014 3.71008 16.4252 3.67681 16.1348L3.67599 16.1277V16.1206C3.67122 15.1928 3.66647 14.2652 3.66169 13.3374L3.66162 13.3238L3.66435 13.3105C3.68473 13.2109 3.73517 13.1309 3.82309 13.0782C3.88273 13.0424 3.94099 13.0299 4.00468 13.0075L4.00466 13.0074Z" fill="black"/>
<path fill-rule="evenodd" clip-rule="evenodd" d="M4.04869 13.1289C3.94386 13.1659 3.82384 13.1775 3.7915 13.3354C3.79628 14.2631 3.80103 15.1908 3.80581 16.1185C3.82547 16.2903 3.99567 16.3681 4.263 16.3852H18.2969C18.5643 16.3681 18.7345 16.2903 18.7542 16.1185C18.759 15.1908 18.7638 14.2631 18.7685 13.3354C18.759 13.1779 18.6445 13.1424 18.5113 13.1289C18.5256 13.1332 18.3255 13.245 18.3255 13.245H4.23444C4.23444 13.245 4.03441 13.1332 4.04869 13.1289V13.1289Z" fill="white"/>
<path fill-rule="evenodd" clip-rule="evenodd" d="M4.04867 13.1289C3.94386 13.166 3.82384 13.1775 3.7915 13.3354C3.79628 14.2631 3.80099 15.1908 3.80581 16.1185C3.82547 16.2904 3.99567 16.3682 4.263 16.3852H7.7579L9.7187 16.3161C9.7187 16.3161 6.81079 16.2129 6.60432 16.1097C5.34576 15.8307 4.65307 14.9504 4.93968 13.245H4.23446C4.23446 13.245 4.03444 13.1332 4.04869 13.1289L4.04867 13.1289Z" fill="#E4E4E4"/>
<path fill-rule="evenodd" clip-rule="evenodd" d="M18.5034 13.1289C18.6082 13.166 18.7282 13.1775 18.7605 13.3354C18.7557 14.2631 18.751 15.1908 18.7462 16.1185C18.7266 16.2904 18.5563 16.3682 18.289 16.3852H14.7941L12.8333 16.3161C12.8333 16.3161 15.7412 16.2129 15.9477 16.1097C17.2062 15.8307 17.8989 14.9504 17.6123 13.245H18.3176C18.3176 13.245 18.5176 13.1332 18.5033 13.1289L18.5034 13.1289Z" fill="#E4E4E4"/>
<path fill-rule="evenodd" clip-rule="evenodd" d="M4.04867 13.1289C3.94386 13.1659 3.82384 13.1775 3.7915 13.3354L3.79279 13.5899H18.7672L18.7685 13.3354C18.759 13.1779 18.6445 13.1424 18.5113 13.1289C18.5256 13.1332 18.3255 13.245 18.3255 13.245H4.23444C4.23444 13.245 4.03441 13.1332 4.04867 13.1289V13.1289Z" fill="#B3B3B3"/>
<path fill-rule="evenodd" clip-rule="evenodd" d="M3.97466 13.1543C3.89294 13.1808 3.81634 13.2157 3.7915 13.337C3.79628 14.2647 3.80099 15.1924 3.80581 16.1201C3.82547 16.292 3.99567 16.3698 4.263 16.3869H4.8916C4.56105 16.2745 4.25533 16.07 4.11341 15.8298C4.35481 16.0551 4.53475 16.1554 4.79739 16.2083C4.31061 15.9997 4.05112 15.737 4.01797 14.9759C4.02426 14.3805 3.9885 13.7815 3.99945 13.1865C3.999 13.1938 3.9895 13.1804 3.97468 13.1543H3.97466Z" fill="#B3B3B3"/>
<path fill-rule="evenodd" clip-rule="evenodd" d="M18.5857 13.1543C18.6674 13.1808 18.744 13.2157 18.7688 13.337C18.764 14.2647 18.7593 15.1924 18.7546 16.1201C18.7349 16.292 18.5647 16.3698 18.2973 16.3869H17.6687C17.9993 16.2745 18.305 16.07 18.4469 15.8298C18.2056 16.0551 18.0256 16.1554 17.7629 16.2083C18.2497 15.9997 18.5093 15.737 18.5424 14.9759C18.5361 14.3805 18.5718 13.7815 18.5609 13.1865C18.5613 13.1938 18.5708 13.1804 18.5857 13.1543H18.5857Z" fill="#B1B1B1"/>
<path fill-rule="evenodd" clip-rule="evenodd" d="M7.51592 8.5C7.60149 8.5 7.67811 8.56516 7.67811 8.65299V9.84885C7.67811 9.9367 7.60153 10.0018 7.51592 10.0018H6.69004C6.60443 10.0018 6.52783 9.9367 6.52783 9.84885V8.65299C6.52783 8.56511 6.60448 8.5 6.69004 8.5H7.51592V8.5Z" fill="black"/>
<path fill-rule="evenodd" clip-rule="evenodd" d="M15.0443 8.5C14.9588 8.5 14.8821 8.56516 14.8821 8.65299V9.84885C14.8821 9.9367 14.9587 10.0018 15.0443 10.0018H15.8702C15.9558 10.0018 16.0324 9.9367 16.0324 9.84885V8.65299C16.0324 8.56511 15.9558 8.5 15.8702 8.5H15.0443V8.5Z" fill="black"/>
<path fill-rule="evenodd" clip-rule="evenodd" d="M7.51484 8.56641H6.68896C6.63661 8.56641 6.59375 8.60515 6.59375 8.65246V9.84833C6.59375 9.89564 6.63657 9.93436 6.68896 9.93436H7.51484C7.56718 9.93436 7.61005 9.89564 7.61005 9.84833V8.65246C7.61005 8.6051 7.56716 8.56641 7.51484 8.56641V8.56641Z" fill="#CCCCCC"/>
<path fill-rule="evenodd" clip-rule="evenodd" d="M15.0447 8.56641H15.8706C15.9229 8.56641 15.9659 8.60515 15.9659 8.65246V9.84833C15.9659 9.89564 15.923 9.93436 15.8706 9.93436H15.0447C14.9923 9.93436 14.9495 9.89564 14.9495 9.84833V8.65246C14.9495 8.6051 14.9924 8.56641 15.0447 8.56641Z" fill="#CCCCCC"/>
<path fill-rule="evenodd" clip-rule="evenodd" d="M7.34684 9.70515C7.4414 9.71296 7.53603 9.72039 7.63057 9.72742L7.75099 9.7363L7.75171 9.857C7.75805 10.9252 7.76441 11.9935 7.77067 13.0587C7.77226 13.1132 7.77386 13.1677 7.77547 13.2222L7.77941 13.3576L7.64392 13.3567C6.47619 13.3488 5.30851 13.3409 4.14079 13.333C4.04521 13.3324 3.89084 13.2546 3.90193 13.1344C3.99088 12.1729 4.13667 11.2119 4.43402 10.2908L4.43495 10.2879L4.43602 10.2851C4.56853 9.93155 4.77568 9.73087 5.16995 9.69327L5.175 9.69278L5.18013 9.69269C5.76838 9.68265 6.35659 9.67261 6.94484 9.66257L7.43146 9.6543L7.34691 9.70515H7.34684Z" fill="black"/>
<path fill-rule="evenodd" clip-rule="evenodd" d="M15.2141 9.70515C15.1195 9.71296 15.0249 9.72039 14.9303 9.72742L14.81 9.7363L14.8092 9.857C14.8028 10.9252 14.7965 11.9935 14.7903 13.0587C14.7886 13.1132 14.787 13.1677 14.7854 13.2222L14.7815 13.3576L14.917 13.3567C16.0848 13.3488 17.2524 13.3409 18.4201 13.333C18.5157 13.3324 18.6701 13.2546 18.659 13.1344C18.57 12.1729 18.4243 11.2119 18.1269 10.2908L18.126 10.2879L18.1249 10.2851C17.9924 9.93155 17.7853 9.73087 17.391 9.69327L17.3859 9.69278L17.3808 9.69269C16.7926 9.68265 16.2044 9.67261 15.6162 9.66257L15.1294 9.6543L15.214 9.70515H15.2141Z" fill="black"/>
<path fill-rule="evenodd" clip-rule="evenodd" d="M6.94615 9.78909C6.35792 9.7991 5.76969 9.80917 5.18148 9.81916C4.79392 9.85618 4.65223 10.0742 4.55754 10.3267C4.26524 11.2322 4.12029 12.1793 4.03125 13.1422C4.06773 13.1608 4.10428 13.1794 4.14079 13.1981C5.30851 13.2059 6.47619 13.2139 7.64392 13.2217C7.64236 13.1673 7.6407 13.1128 7.63914 13.0583C7.63276 11.99 7.62644 10.9218 7.62011 9.85355C7.62011 9.85355 6.92474 9.80192 6.94612 9.78906L6.94615 9.78909Z" fill="#1F3F67"/>
<path fill-rule="evenodd" clip-rule="evenodd" d="M15.6148 9.78909C16.203 9.7991 16.7912 9.80917 17.3795 9.81916C17.767 9.85618 17.9087 10.0742 18.0034 10.3267C18.2957 11.2322 18.4406 12.1793 18.5297 13.1422C18.4932 13.1608 18.4567 13.1794 18.4201 13.1981C17.2524 13.2059 16.0848 13.2139 14.917 13.2217C14.9186 13.1673 14.9202 13.1128 14.9218 13.0583C14.9282 11.99 14.9345 10.9218 14.9408 9.85355C14.9408 9.85355 15.6362 9.80192 15.6148 9.78906L15.6148 9.78909Z" fill="#1F3F67"/>
<path fill-rule="evenodd" clip-rule="evenodd" d="M4.5718 13.2027L7.64425 13.2234C7.64269 13.1689 7.64104 13.1145 7.63947 13.0599L7.62862 11.2354L7.50047 11.1998C7.54198 11.1682 7.58291 11.1293 7.62773 11.082L7.62771 11.0762C7.60027 11.0506 7.4449 10.8594 7.4449 10.8594C7.36334 10.9867 7.33304 11.0077 7.14154 11.0229C6.55273 11.0257 5.7317 11.0243 5.14289 11.0272C4.65683 11.0251 4.60649 11.3153 4.60288 11.5753L4.57178 13.2027L4.5718 13.2027Z" fill="#08203B"/>
<path fill-rule="evenodd" clip-rule="evenodd" d="M17.9894 13.2027L14.917 13.2234C14.9186 13.1689 14.9202 13.1145 14.9218 13.0599L14.9326 11.2354L15.0608 11.1998C15.0192 11.1682 14.9784 11.1293 14.9335 11.082L14.9336 11.0762C14.9611 11.0506 15.1164 10.8594 15.1164 10.8594C15.1979 10.9867 15.2282 11.0077 15.4197 11.0229C16.0085 11.0257 16.8296 11.0243 17.4183 11.0272C17.9044 11.0251 17.9548 11.3153 17.9584 11.5753L17.9895 13.2027L17.9894 13.2027Z" fill="#08203B"/>
<path fill-rule="evenodd" clip-rule="evenodd" d="M7.41456 4.29353C7.3324 5.00181 7.31842 5.70132 7.32524 6.39814C7.32529 6.47103 7.53626 6.50952 7.83487 6.53363L11.2815 6.51056L14.728 6.53363C15.0266 6.50952 15.2376 6.47101 15.2376 6.39814C15.2445 5.70132 15.2305 5.00181 15.1483 4.29353C15.1599 4.28498 12.0095 4.16288 11.2815 4.13477C10.5532 4.16288 7.40296 4.28496 7.41456 4.29353Z" fill="black"/>
<path fill-rule="evenodd" clip-rule="evenodd" d="M7.42341 6.36245C7.50227 6.39975 7.76466 6.42361 7.83811 6.42962L11.2817 6.40658L14.7238 6.42962C14.7974 6.42358 15.0597 6.39975 15.1385 6.36245C15.1439 5.70035 15.1303 5.03869 15.0588 4.38008C15.0168 4.37791 14.9738 4.37696 14.9342 4.37514C14.7814 4.36801 14.6286 4.36154 14.4759 4.35511C14.0294 4.33631 13.5828 4.31853 13.1363 4.30083C12.5178 4.27639 11.8994 4.25235 11.281 4.22852C10.6625 4.25235 10.0441 4.27639 9.4257 4.30083C8.97914 4.31853 8.53262 4.33633 8.0861 4.35511C7.9333 4.36154 7.78054 4.36801 7.62774 4.37514C7.58826 4.37696 7.54523 4.37791 7.50327 4.38008C7.43168 5.03869 7.41803 5.70033 7.42341 6.36245V6.36245Z" fill="#EBECEC"/>
<path fill-rule="evenodd" clip-rule="evenodd" d="M15.0728 4.51054C15.0685 4.46702 15.0641 4.42351 15.0594 4.38008C15.0174 4.37791 14.9744 4.37696 14.9348 4.37514C14.7821 4.36801 14.6293 4.36154 14.4766 4.35511C14.03 4.33631 13.5835 4.31853 13.1369 4.30083C12.5185 4.27639 11.9001 4.25235 11.2817 4.22852C10.6632 4.25235 10.0448 4.27639 9.42635 4.30083C8.97979 4.31853 8.53327 4.33633 8.08675 4.35511C7.93395 4.36154 7.78119 4.36801 7.62839 4.37514C7.58891 4.37696 7.54588 4.37791 7.50392 4.38008C7.49914 4.42355 7.49477 4.46707 7.49048 4.51061L7.49195 4.51725L7.49304 4.52203L7.49481 4.52661C7.53579 4.63494 7.62818 4.68428 7.73574 4.6977L7.7384 4.69805L11.2817 4.83387L14.8249 4.69805L14.8275 4.6977C14.9351 4.68428 15.0275 4.63494 15.0685 4.52661L15.0702 4.52203L15.0713 4.51725L15.0728 4.51054V4.51054Z" fill="#FEFEFE"/>
<path fill-rule="evenodd" clip-rule="evenodd" d="M11.1685 6.41033L11.2809 6.40956L11.3921 6.41028V4.30078H11.1685V6.41033Z" fill="black"/>
<path fill-rule="evenodd" clip-rule="evenodd" d="M15.5623 9.58389C15.6246 9.63749 15.6868 9.69117 15.7491 9.74487L15.8278 9.81277L15.7334 9.85636C15.6057 9.9153 15.4904 10.5886 15.464 10.7253C15.4569 10.762 15.4498 10.7987 15.4427 10.8354C15.4185 10.9821 15.2404 11.0393 15.1162 11.0694L15.089 11.076L11.2807 8.71051L7.47226 11.076L7.44498 11.0694C7.32093 11.0393 7.14274 10.9821 7.11862 10.8354C7.11145 10.7987 7.10434 10.762 7.09726 10.7253C7.07082 10.5886 6.9555 9.9153 6.82786 9.85636L6.7334 9.81277L6.81216 9.74487C6.87443 9.69119 6.93663 9.63752 6.99891 9.58389C7.00988 8.74359 7.02085 7.90339 7.03185 7.06528C7.02896 6.91356 7.04666 6.73855 7.14008 6.6128C7.20526 6.52507 7.29155 6.47987 7.39396 6.44924L7.40167 6.44691L7.40976 6.44651C8.6996 6.38158 9.98865 6.31836 11.2806 6.31836C12.5725 6.31836 13.8616 6.38158 15.1514 6.44651L15.1594 6.44691L15.1672 6.44924C15.2696 6.47987 15.3559 6.52507 15.421 6.6128C15.5145 6.73855 15.5322 6.91356 15.5293 7.06314C15.5402 7.90339 15.5512 8.74359 15.5622 9.58389H15.5623Z" fill="black"/>
<path fill-rule="evenodd" clip-rule="evenodd" d="M11.28 6.38477C9.96614 6.39394 8.69682 6.4482 7.41247 6.51285C7.25455 6.56009 7.09033 6.65356 7.09813 7.06348C7.087 7.91375 7.07591 8.76406 7.06475 9.61435C6.99489 9.67457 6.92504 9.73479 6.85522 9.79499C7.01021 9.86655 7.09394 10.3633 7.18382 10.8231C7.19819 10.9143 7.30911 10.9671 7.46011 11.0038L11.28 8.63115L15.0998 11.0038C15.2507 10.9671 15.3617 10.9143 15.376 10.8231C15.466 10.3633 15.5497 9.86655 15.7047 9.79499C15.6348 9.73477 15.565 9.67455 15.4951 9.61435C15.484 8.76406 15.4729 7.91375 15.4618 7.06348C15.4696 6.65356 15.3053 6.56007 15.1474 6.51285C13.863 6.4482 12.5936 6.39394 11.28 6.38477H11.28Z" fill="#1F3F67"/>
<path fill-rule="evenodd" clip-rule="evenodd" d="M7.44236 6.50977L7.41247 6.51128C7.25455 6.55853 7.09033 6.65199 7.09809 7.06191C7.087 7.91218 7.07591 8.76249 7.06475 9.61278C6.99489 9.673 6.92504 9.73322 6.85522 9.79342C7.01019 9.86499 7.09394 10.3618 7.18382 10.8215C7.19819 10.9127 7.30911 10.9655 7.46011 11.0022L7.87639 10.7436L7.87979 10.5177C7.76797 9.51689 7.65615 8.51609 7.5443 7.51519C7.21918 7.08027 7.08043 6.69148 7.44238 6.50977H7.44236Z" fill="#08203B"/>
<path fill-rule="evenodd" clip-rule="evenodd" d="M15.1189 6.50977L15.1487 6.51128C15.3066 6.55853 15.4709 6.65199 15.4631 7.06191C15.4742 7.91218 15.4853 8.76249 15.4965 9.61278C15.5663 9.673 15.6361 9.73322 15.706 9.79342C15.551 9.86499 15.4673 10.3618 15.3774 10.8215C15.363 10.9127 15.2521 10.9655 15.1011 11.0022L14.6848 10.7436L14.6814 10.5177C14.7932 9.51689 14.9051 8.51609 15.017 7.51519C15.342 7.08027 15.4808 6.69148 15.1189 6.50977H15.1189Z" fill="#08203B"/>
<path fill-rule="evenodd" clip-rule="evenodd" d="M7.0648 9.61523L7.06475 9.61901C6.99489 9.67923 6.92504 9.73945 6.85522 9.79965C7.01019 9.87121 7.12835 10.2648 7.21825 10.7245C7.23262 10.8158 7.33925 10.89 7.49023 10.9267L7.57554 10.9367C7.48362 10.7829 7.41096 10.6659 7.41096 10.6659C7.37135 10.2567 7.24423 9.67427 7.06482 9.61523H7.0648Z" fill="#1F3F67"/>
<path fill-rule="evenodd" clip-rule="evenodd" d="M15.4941 9.61523L15.4941 9.61901C15.564 9.67923 15.6339 9.73945 15.7037 9.79965C15.5487 9.87121 15.4305 10.2648 15.3407 10.7245C15.3263 10.8158 15.2197 10.89 15.0687 10.9267L14.9834 10.9367C15.0753 10.7829 15.148 10.6659 15.148 10.6659C15.1876 10.2567 15.3146 9.67427 15.4941 9.61523H15.4941Z" fill="#FF0000"/>
<path fill-rule="evenodd" clip-rule="evenodd" d="M15.4958 9.61523L15.4959 9.61901C15.5657 9.67923 15.6355 9.73945 15.7054 9.79965C15.5504 9.87121 15.4322 10.2648 15.3423 10.7245C15.328 10.8158 15.2214 10.89 15.0704 10.9267L14.9851 10.9367C15.077 10.7829 15.1497 10.6659 15.1497 10.6659C15.1893 10.2567 15.3164 9.67427 15.4958 9.61523H15.4958Z" fill="#1F3F67"/>
<path d="M7.2898 4.44822C6.94362 4.43918 6.54968 4.42055 6.15578 4.40196C5.75986 4.38327 5.36392 4.36461 5.02503 4.35571H5.02473C5.01844 4.35555 5.01257 4.35548 5.00714 4.35555C4.93748 4.35683 4.88919 4.38022 4.85834 4.41444C4.82559 4.45074 4.80998 4.49989 4.80812 4.54896C4.80795 4.55469 4.80786 4.56021 4.80798 4.56538V4.56592C4.81117 4.88848 4.81497 5.20307 4.81872 5.51764C4.82245 5.83193 4.82624 6.06028 4.82941 6.3826C4.83046 6.43017 4.84532 6.46582 4.87209 6.49098C4.89965 6.51688 4.94186 6.53452 4.99651 6.54493L7.25888 6.53207L7.15619 6.6571L4.98906 6.66996L4.97545 6.66901C4.89028 6.65377 4.82151 6.62416 4.77213 6.57776C4.72099 6.52965 4.69278 6.46614 4.69094 6.38503V6.3843C4.68777 6.06165 4.684 5.83311 4.68024 5.51859C4.67647 5.20421 4.67267 4.88973 4.66951 4.56731C4.66937 4.55965 4.66944 4.55222 4.66967 4.54502C4.67253 4.47061 4.69772 4.39443 4.75083 4.33549C4.80588 4.27443 4.88865 4.23262 5.00439 4.23057C5.01275 4.2304 5.02102 4.23045 5.02906 4.23068V4.23073C5.37517 4.23977 5.769 4.25836 6.1628 4.27695C6.55871 4.29563 6.95466 4.31434 7.29357 4.32319L7.28975 4.44822H7.2898Z" fill="black"/>
<path d="M15.2719 4.44822C15.618 4.43918 16.012 4.42055 16.4058 4.40196C16.8018 4.38327 17.1977 4.36461 17.5366 4.35571H17.5369C17.5432 4.35555 17.5491 4.35548 17.5545 4.35555C17.6241 4.35683 17.6725 4.38022 17.7033 4.41444C17.736 4.45074 17.7517 4.49989 17.7535 4.54896C17.7537 4.55469 17.7538 4.56021 17.7536 4.56538V4.56592C17.7505 4.88848 17.7466 5.20307 17.743 5.51764C17.7392 5.83193 17.7354 6.06028 17.7323 6.3826C17.7312 6.43017 17.7163 6.46582 17.6895 6.49098C17.662 6.51688 17.6198 6.53452 17.5651 6.54493L15.3027 6.53207L15.4055 6.6571L17.5726 6.66996L17.5862 6.66901C17.6714 6.65377 17.7401 6.62416 17.7895 6.57776C17.8406 6.52965 17.8689 6.46614 17.8707 6.38503V6.3843C17.8739 6.06165 17.8777 5.83311 17.8814 5.51859C17.8851 5.20421 17.889 4.88973 17.8921 4.56731C17.8923 4.55965 17.8922 4.55222 17.8919 4.54502C17.8891 4.47061 17.8639 4.39443 17.8108 4.33549C17.7557 4.27443 17.673 4.23262 17.5573 4.23057C17.5489 4.2304 17.5406 4.23045 17.5326 4.23068V4.23073C17.1864 4.23977 16.7926 4.25836 16.3988 4.27695C16.0029 4.29563 15.6069 4.31434 15.2681 4.32319L15.2719 4.44822H15.2719Z" fill="black"/>
<path d="M5.67123 4.30664L5.68075 6.44025V6.44198C5.67915 6.49514 5.65543 6.55158 5.6114 6.59473C5.57264 6.6327 5.51864 6.6608 5.45059 6.66814L5.43433 6.54359C5.4665 6.54015 5.49163 6.52724 5.50932 6.50993C5.53024 6.48941 5.54154 6.46313 5.5423 6.43869L5.53282 4.30664H5.67123V4.30664Z" fill="black"/>
<path d="M16.8886 4.30664L16.8792 6.44025V6.44198C16.8808 6.49514 16.9045 6.55158 16.9485 6.59473C16.9872 6.6327 17.0412 6.6608 17.1093 6.66814L17.1256 6.54359C17.0934 6.54015 17.0683 6.52724 17.0505 6.50993C17.0296 6.48941 17.0183 6.46313 17.0175 6.43869L17.0271 4.30664H16.8886V4.30664Z" fill="black"/>
<path d="M7.35174 4.36315L5.74991 6.61508L5.63208 6.54937L7.20383 4.33398L7.35174 4.36315Z" fill="black"/>
<path d="M15.2078 4.36315L16.8097 6.61508L16.9275 6.54937L15.3557 4.33398L15.2078 4.36315Z" fill="black"/>
<path fill-rule="evenodd" clip-rule="evenodd" d="M10.8719 2.7506C10.8796 2.91975 10.8839 3.06209 10.8777 3.22915C10.8746 3.33741 10.7697 3.39397 10.6241 3.41088C9.51301 3.50335 8.40199 3.59586 7.29097 3.68832C7.22434 3.68021 7.20936 3.65209 7.21684 3.61521C7.25856 3.44457 7.30022 3.27395 7.34192 3.10333C7.36824 3.02677 7.43606 2.9748 7.55501 2.95274C8.53308 2.78552 9.58966 2.67985 10.7282 2.63875C10.8121 2.63626 10.8631 2.6921 10.8719 2.7506V2.7506Z" fill="black"/>
<path fill-rule="evenodd" clip-rule="evenodd" d="M10.8053 2.76497C10.7985 2.72926 10.7657 2.7117 10.7308 2.71295C9.67189 2.75067 8.61114 2.84581 7.56654 3.02601C7.50112 3.03733 7.43096 3.06272 7.40633 3.12982C7.36582 3.29548 7.32538 3.46111 7.28491 3.62675C7.28764 3.62735 7.29046 3.62789 7.293 3.62829C8.40152 3.53601 9.51008 3.44371 10.6165 3.35167C10.682 3.34407 10.808 3.32057 10.8109 3.23416C10.8162 3.07707 10.8125 2.92192 10.8053 2.76497H10.8053Z" fill="#EBECEC"/>
<path fill-rule="evenodd" clip-rule="evenodd" d="M11.6906 2.7506C11.6829 2.91975 11.6787 3.06209 11.6848 3.22915C11.688 3.33741 11.7928 3.39397 11.9384 3.41088C13.0494 3.50335 14.1606 3.59586 15.2715 3.68832C15.3382 3.68021 15.3532 3.65209 15.3456 3.61521C15.304 3.44457 15.2623 3.27395 15.2206 3.10333C15.1943 3.02677 15.1264 2.9748 15.0075 2.95274C14.0294 2.78552 12.9729 2.67985 11.8342 2.63875C11.7504 2.63626 11.6994 2.6921 11.6906 2.7506V2.7506Z" fill="black"/>
<path fill-rule="evenodd" clip-rule="evenodd" d="M11.7579 2.76497C11.7507 2.92192 11.7469 3.07707 11.7522 3.23416C11.7552 3.32057 11.8812 3.34405 11.9444 3.35143C13.0531 3.44371 14.1616 3.53601 15.2702 3.62829C15.2727 3.62789 15.2755 3.62735 15.2782 3.62675C15.2378 3.46111 15.1973 3.29548 15.1569 3.12982C15.1323 3.06275 15.0621 3.03733 14.9966 3.02601C13.952 2.84581 12.8912 2.75067 11.8323 2.71295C11.7974 2.7117 11.7647 2.72926 11.7578 2.76497H11.7579Z" fill="#EBECEC"/>
<path fill-rule="evenodd" clip-rule="evenodd" d="M7.34657 7.77356C7.35978 7.44093 7.54604 7.2069 7.86627 7.15905C8.99639 6.9902 10.1344 6.86086 11.2725 6.76818L11.2799 6.76758L11.2872 6.76818C12.4253 6.86083 13.5632 6.99017 14.6934 7.15905C15.0137 7.2069 15.1999 7.44093 15.2131 7.77356L15.2132 7.77579V7.77805C15.2062 9.60574 15.1921 11.4334 15.1851 13.261L15.1847 13.3595H7.37486L7.37451 13.261C7.36757 11.4334 7.35342 9.60574 7.34646 7.77805L7.34644 7.77579L7.34655 7.77356H7.34657Z" fill="black"/>
<path fill-rule="evenodd" clip-rule="evenodd" d="M7.44238 7.76833C7.44942 9.61185 7.46344 11.4077 7.47043 13.2513H15.092C15.099 11.4077 15.113 9.61185 15.12 7.76833C15.1092 7.49539 14.967 7.29027 14.6814 7.24756C13.6128 7.08791 12.4491 6.95247 11.2813 6.85742C10.1133 6.95245 8.94953 7.08791 7.88105 7.24756C7.59544 7.29027 7.45322 7.49541 7.44241 7.76833H7.44238Z" fill="white"/>
<path fill-rule="evenodd" clip-rule="evenodd" d="M7.44238 7.7648C7.44364 8.09658 7.44513 8.42685 7.44681 8.75608C7.47775 9.1622 7.70288 10.6012 7.70288 10.6012C7.70288 10.6012 7.75448 8.70843 7.75448 8.66545C7.75448 8.62242 7.70717 7.93842 7.70717 7.91694C7.70717 7.89544 8.49006 7.51688 8.49006 7.51688C7.78516 7.66276 7.51055 7.47285 7.90637 7.24023L7.88103 7.24401C7.59542 7.28671 7.45319 7.49186 7.44238 7.76477V7.7648Z" fill="#B3B3B3"/>
<path fill-rule="evenodd" clip-rule="evenodd" d="M15.1202 7.76477C15.119 8.09656 15.1174 8.42683 15.1158 8.75605C14.9988 8.82664 14.8769 11.169 14.8769 11.169C14.8769 11.169 14.8081 8.70843 14.8081 8.66545C14.8081 8.62242 14.8554 7.93842 14.8554 7.91694C14.8554 7.89544 14.0725 7.51688 14.0725 7.51688C14.7774 7.66276 15.0521 7.47285 14.6562 7.24023L14.6816 7.24401C14.9671 7.28671 15.1094 7.49186 15.1202 7.76477V7.76477Z" fill="#B3B3B3"/>
<path fill-rule="evenodd" clip-rule="evenodd" d="M7.44458 8.38672C7.45201 10.0176 7.4638 11.6192 7.47004 13.2584H15.0916C15.0977 11.6364 15.1094 10.0513 15.1168 8.43818C15.0361 8.56878 14.8824 10.8725 14.7421 10.9883C12.389 10.9983 10.1651 10.2943 7.8121 10.3043C7.65606 10.1969 7.48756 8.53943 7.44458 8.38674V8.38672Z" fill="#808080"/>
<path fill-rule="evenodd" clip-rule="evenodd" d="M7.62456 8.05877C7.63127 9.81419 7.64459 11.5242 7.65128 13.2796H14.9085C14.9152 11.5242 14.9284 9.81417 14.9352 8.05877C14.9248 7.79883 14.7894 7.60354 14.5175 7.56291C13.5 7.41088 12.3919 7.28191 11.2799 7.19141C10.1678 7.28191 9.05965 7.41088 8.04219 7.56291C7.77025 7.60354 7.63486 7.79883 7.62451 8.05877H7.62456Z" fill="black"/>
<path fill-rule="evenodd" clip-rule="evenodd" d="M7.69409 8.15182C7.70064 9.87423 7.71378 11.552 7.7203 13.2744H14.8409C14.8474 11.552 14.8605 9.87423 14.8671 8.15182C14.857 7.89682 14.724 7.70513 14.4572 7.66527C13.459 7.51611 12.3717 7.38959 11.2806 7.30078C10.1895 7.38961 9.10216 7.51613 8.10387 7.66527C7.83706 7.70513 7.70418 7.89682 7.69409 8.15182V8.15182Z" fill="white"/>
<path fill-rule="evenodd" clip-rule="evenodd" d="M8.04994 8.47656H14.5121C14.5861 8.47656 14.6468 8.53716 14.6468 8.61119V12.936C14.6468 13.0101 14.5861 13.0707 14.5121 13.0707H8.04994C7.97588 13.0707 7.91528 13.0101 7.91528 12.936V8.61119C7.91528 8.53716 7.97588 8.47656 8.04994 8.47656V8.47656Z" fill="#333333"/>
<path fill-rule="evenodd" clip-rule="evenodd" d="M8.32739 8.39648H8.40318V13.2315H8.32739V8.39648Z" fill="white"/>
<path fill-rule="evenodd" clip-rule="evenodd" d="M8.97412 8.39648C8.9994 8.39648 9.02467 8.39648 9.04995 8.39648C9.04995 10.0082 9.04995 11.6198 9.04995 13.2315C9.0247 13.2315 8.99942 13.2315 8.97412 13.2315C8.97412 11.6198 8.97412 10.0081 8.97412 8.39648Z" fill="white"/>
<path fill-rule="evenodd" clip-rule="evenodd" d="M9.62354 8.39648C9.64881 8.39648 9.67409 8.39648 9.69939 8.39648C9.69939 10.0082 9.69939 11.6198 9.69939 13.2315C9.67411 13.2315 9.64883 13.2315 9.62354 13.2315C9.62354 11.6198 9.62354 10.0081 9.62354 8.39648Z" fill="white"/>
<path fill-rule="evenodd" clip-rule="evenodd" d="M10.2715 8.39648C10.2968 8.39648 10.322 8.39648 10.3473 8.39648C10.3473 10.0082 10.3473 11.6198 10.3473 13.2315C10.3221 13.2315 10.2968 13.2315 10.2715 13.2315C10.2715 11.6198 10.2715 10.0081 10.2715 8.39648Z" fill="white"/>
<path fill-rule="evenodd" clip-rule="evenodd" d="M10.9197 8.39648C10.9449 8.39648 10.9702 8.39648 10.9955 8.39648C10.9955 10.0082 10.9955 11.6198 10.9955 13.2315C10.9703 13.2315 10.9449 13.2315 10.9197 13.2315C10.9197 11.6198 10.9197 10.0081 10.9197 8.39648Z" fill="white"/>
<path fill-rule="evenodd" clip-rule="evenodd" d="M11.5676 8.39648C11.5929 8.39648 11.6181 8.39648 11.6434 8.39648C11.6434 10.0082 11.6434 11.6198 11.6434 13.2315C11.6181 13.2315 11.5929 13.2315 11.5676 13.2315C11.5676 11.6198 11.5676 10.0081 11.5676 8.39648Z" fill="white"/>
<path fill-rule="evenodd" clip-rule="evenodd" d="M12.2151 8.39648C12.2404 8.39648 12.2656 8.39648 12.2909 8.39648C12.2909 10.0082 12.2909 11.6198 12.2909 13.2315C12.2657 13.2315 12.2404 13.2315 12.2151 13.2315C12.2151 11.6198 12.2151 10.0081 12.2151 8.39648Z" fill="white"/>
<path fill-rule="evenodd" clip-rule="evenodd" d="M12.8633 8.39648C12.8885 8.39648 12.9138 8.39648 12.9391 8.39648C12.9391 10.0082 12.9391 11.6198 12.9391 13.2315C12.9139 13.2315 12.8885 13.2315 12.8633 13.2315C12.8633 11.6198 12.8633 10.0081 12.8633 8.39648Z" fill="white"/>
<path fill-rule="evenodd" clip-rule="evenodd" d="M13.5112 8.39648C13.5365 8.39648 13.5618 8.39648 13.5871 8.39648C13.5871 10.0082 13.5871 11.6198 13.5871 13.2315C13.5618 13.2315 13.5366 13.2315 13.5112 13.2315C13.5112 11.6198 13.5112 10.0081 13.5112 8.39648Z" fill="white"/>
<path fill-rule="evenodd" clip-rule="evenodd" d="M14.1589 8.39648H14.2347V13.2315H14.1589V8.39648Z" fill="white"/>
<path fill-rule="evenodd" clip-rule="evenodd" d="M7.60568 13.3017L7.59282 9.61523L7.55518 13.2963C7.55518 13.2963 7.60892 13.3006 7.60568 13.3017Z" fill="black"/>
<path fill-rule="evenodd" clip-rule="evenodd" d="M15.0055 13.3017L14.9927 9.61523L14.9551 13.2963C14.9551 13.2963 15.0088 13.3006 15.0055 13.3017Z" fill="black"/>
<path fill-rule="evenodd" clip-rule="evenodd" d="M11.2812 3.32812L14.9515 3.46399L14.9542 3.46431C15.0656 3.47776 15.1613 3.5271 15.2038 3.63538L15.2056 3.63999L15.2067 3.64477C15.2527 3.84409 15.2988 4.04339 15.3443 4.24066C15.3651 4.3195 15.3102 4.37024 15.2379 4.38748L15.2311 4.38906L11.2812 4.49564L7.33108 4.38906L7.32431 4.38748C7.25195 4.37024 7.19706 4.31952 7.21742 4.24271C7.2635 4.04339 7.30954 3.84409 7.35555 3.64477L7.35666 3.63999L7.35848 3.63538C7.40095 3.5271 7.49665 3.47776 7.60805 3.46431L7.61083 3.46399L11.2811 3.32812H11.2812Z" fill="black"/>
<path fill-rule="evenodd" clip-rule="evenodd" d="M11.281 3.39453L7.6159 3.53019C7.50907 3.54304 7.44812 3.58908 7.42064 3.65922C7.3746 3.85855 7.32852 4.05782 7.28251 4.25714C7.27475 4.2865 7.28878 4.30958 7.33968 4.32168L11.281 4.428L15.2222 4.32168C15.2731 4.30958 15.2871 4.28647 15.2793 4.25714C15.2333 4.05782 15.1873 3.85855 15.1412 3.65922C15.1137 3.58908 15.0528 3.54304 14.946 3.53019L11.281 3.39453V3.39453Z" fill="#1F3F67"/>
<path fill-rule="evenodd" clip-rule="evenodd" d="M7.8429 3.51953C7.76726 3.52235 7.69159 3.52517 7.6159 3.52794C7.50907 3.5408 7.44812 3.58683 7.42064 3.65698C7.37456 3.8563 7.32852 4.05558 7.28251 4.2549C7.27475 4.28425 7.28878 4.30734 7.33968 4.31943C7.49625 4.32367 7.65285 4.32786 7.80945 4.33208C7.68899 4.3185 7.38809 4.29504 7.3927 4.22452C7.40137 4.09488 7.49609 3.70436 7.58394 3.59042C7.63375 3.52591 7.72922 3.54103 7.84293 3.51953H7.8429Z" fill="#08203B"/>
<path fill-rule="evenodd" clip-rule="evenodd" d="M11.2817 3.39453C11.2786 3.39467 11.2757 3.39474 11.2727 3.39486C11.2727 3.73918 11.2727 4.08347 11.2727 4.42777C11.2758 4.42784 11.2786 4.42793 11.2817 4.428C12.5954 4.39259 13.9091 4.35713 15.2229 4.32168C15.2738 4.30958 15.2878 4.28647 15.2801 4.25714C15.1169 3.71173 14.7278 3.57081 14.3507 3.50812C13.3278 3.47027 12.3046 3.43239 11.2817 3.39453Z" fill="#08203B"/>
<path fill-rule="evenodd" clip-rule="evenodd" d="M6.81301 8.71289C6.90997 8.71289 6.98857 8.79149 6.98857 8.88845C6.98857 8.98543 6.90999 9.06401 6.81301 9.06401C6.71603 9.06401 6.63745 8.98546 6.63745 8.88845C6.63745 8.79152 6.71601 8.71289 6.81301 8.71289Z" fill="black"/>
<path fill-rule="evenodd" clip-rule="evenodd" d="M6.81418 8.74414C6.89464 8.74414 6.95989 8.80935 6.95989 8.88986C6.95989 8.97035 6.89466 9.03558 6.81418 9.03558C6.73369 9.03558 6.66846 8.97037 6.66846 8.88986C6.66846 8.80937 6.73366 8.74414 6.81418 8.74414Z" fill="#E6E6E6"/>
<path fill-rule="evenodd" clip-rule="evenodd" d="M6.81369 8.75586C6.88957 8.75586 6.95107 8.81738 6.95107 8.89324C6.95107 8.96914 6.88955 9.03062 6.81369 9.03062C6.73779 9.03062 6.67627 8.96911 6.67627 8.89324C6.67627 8.81736 6.73782 8.75586 6.81369 8.75586Z" fill="black"/>
<path fill-rule="evenodd" clip-rule="evenodd" d="M6.81372 8.77344C6.8783 8.77344 6.93067 8.82578 6.93067 8.89038C6.93067 8.95496 6.87832 9.00733 6.81372 9.00733C6.7491 9.00733 6.69678 8.95499 6.69678 8.89038C6.69678 8.82581 6.74908 8.77344 6.81372 8.77344Z" fill="#DB261C"/>
<path fill-rule="evenodd" clip-rule="evenodd" d="M15.7454 8.71289C15.6484 8.71289 15.5698 8.79149 15.5698 8.88845C15.5698 8.98543 15.6484 9.06401 15.7454 9.06401C15.8423 9.06401 15.921 8.98546 15.921 8.88845C15.921 8.79152 15.8424 8.71289 15.7454 8.71289Z" fill="black"/>
<path fill-rule="evenodd" clip-rule="evenodd" d="M15.7463 8.74414C15.6658 8.74414 15.6006 8.80935 15.6006 8.88986C15.6006 8.97035 15.6658 9.03558 15.7463 9.03558C15.8268 9.03558 15.892 8.97037 15.892 8.88986C15.892 8.80937 15.8268 8.74414 15.7463 8.74414Z" fill="#E6E6E6"/>
<path fill-rule="evenodd" clip-rule="evenodd" d="M15.746 8.75586C15.6701 8.75586 15.6086 8.81738 15.6086 8.89324C15.6086 8.96914 15.6701 9.03062 15.746 9.03062C15.8219 9.03062 15.8834 8.96911 15.8834 8.89324C15.8834 8.81736 15.8218 8.75586 15.746 8.75586Z" fill="black"/>
<path fill-rule="evenodd" clip-rule="evenodd" d="M15.747 8.77344C15.6825 8.77344 15.6301 8.82578 15.6301 8.89038C15.6301 8.95496 15.6825 9.00733 15.747 9.00733C15.8116 9.00733 15.864 8.95499 15.864 8.89038C15.864 8.82581 15.8116 8.77344 15.747 8.77344Z" fill="#DB261C"/>
<path fill-rule="evenodd" clip-rule="evenodd" d="M6.81301 9.16211C6.90997 9.16211 6.98857 9.24071 6.98857 9.33769C6.98857 9.43468 6.90999 9.51325 6.81301 9.51325C6.71603 9.51325 6.63745 9.4347 6.63745 9.33769C6.63745 9.24073 6.71601 9.16211 6.81301 9.16211Z" fill="black"/>
<path fill-rule="evenodd" clip-rule="evenodd" d="M6.81418 9.19141C6.89464 9.19141 6.95989 9.25661 6.95989 9.33712C6.95989 9.41759 6.89466 9.48287 6.81418 9.48287C6.73369 9.48287 6.66846 9.41761 6.66846 9.33712C6.66846 9.25664 6.73366 9.19141 6.81418 9.19141Z" fill="#E6E6E6"/>
<path fill-rule="evenodd" clip-rule="evenodd" d="M6.81369 9.19336C6.88957 9.19336 6.95107 9.25486 6.95107 9.33074C6.95107 9.40661 6.88955 9.46814 6.81369 9.46814C6.73779 9.46814 6.67627 9.40659 6.67627 9.33074C6.67627 9.25484 6.73782 9.19336 6.81369 9.19336Z" fill="black"/>
<path fill-rule="evenodd" clip-rule="evenodd" d="M6.81372 9.21289C6.8783 9.21289 6.93067 9.26521 6.93067 9.32981C6.93067 9.39437 6.87832 9.44676 6.81372 9.44676C6.7491 9.44676 6.69678 9.39439 6.69678 9.32981C6.69678 9.26524 6.74908 9.21289 6.81372 9.21289Z" fill="#DB261C"/>
<path fill-rule="evenodd" clip-rule="evenodd" d="M15.7454 9.16211C15.6484 9.16211 15.5698 9.24071 15.5698 9.33769C15.5698 9.43468 15.6484 9.51325 15.7454 9.51325C15.8423 9.51325 15.921 9.4347 15.921 9.33769C15.921 9.24073 15.8424 9.16211 15.7454 9.16211Z" fill="black"/>
<path fill-rule="evenodd" clip-rule="evenodd" d="M15.7463 9.19141C15.6658 9.19141 15.6006 9.25661 15.6006 9.33712C15.6006 9.41759 15.6658 9.48287 15.7463 9.48287C15.8268 9.48287 15.892 9.41761 15.892 9.33712C15.892 9.25664 15.8268 9.19141 15.7463 9.19141Z" fill="#E6E6E6"/>
<path fill-rule="evenodd" clip-rule="evenodd" d="M15.746 9.19336C15.6701 9.19336 15.6086 9.25486 15.6086 9.33074C15.6086 9.40661 15.6701 9.46814 15.746 9.46814C15.8219 9.46814 15.8834 9.40659 15.8834 9.33074C15.8834 9.25484 15.8218 9.19336 15.746 9.19336Z" fill="black"/>
<path fill-rule="evenodd" clip-rule="evenodd" d="M15.747 9.21289C15.6825 9.21289 15.6301 9.26521 15.6301 9.32981C15.6301 9.39437 15.6825 9.44676 15.747 9.44676C15.8116 9.44676 15.864 9.39439 15.864 9.32981C15.864 9.26524 15.8116 9.21289 15.747 9.21289Z" fill="#DB261C"/>
<path fill-rule="evenodd" clip-rule="evenodd" d="M4.89616 11.834C5.57007 11.834 6.59615 11.834 7.27009 11.834C7.3492 11.834 7.41381 11.8987 7.41381 11.9777C7.41381 12.2071 7.41381 12.9029 7.41381 13.1324C7.41381 13.2115 7.34923 13.2761 7.27009 13.2761C6.59613 13.2761 5.57005 13.2761 4.89616 13.2761C4.81707 13.2761 4.75244 13.2115 4.75244 13.1324C4.75244 12.9029 4.75244 12.2071 4.75244 11.9777C4.75244 11.8987 4.81704 11.834 4.89616 11.834Z" fill="black"/>
<path fill-rule="evenodd" clip-rule="evenodd" d="M17.6576 11.8281C16.9836 11.8281 15.9576 11.8281 15.2837 11.8281C15.2045 11.8281 15.1399 11.8927 15.1399 11.9719C15.1399 12.2013 15.1399 12.8971 15.1399 13.1265C15.1399 13.2057 15.2045 13.2703 15.2837 13.2703C15.9576 13.2703 16.9836 13.2703 17.6576 13.2703C17.7366 13.2703 17.8012 13.2057 17.8012 13.1265C17.8012 12.8971 17.8012 12.2013 17.8012 11.9719C17.8012 11.8928 17.7367 11.8281 17.6576 11.8281Z" fill="black"/>
<path fill-rule="evenodd" clip-rule="evenodd" d="M4.95304 11.8809C5.59399 11.8809 6.56985 11.8809 7.21077 11.8809C7.25352 11.8809 7.29184 11.9007 7.31698 11.9317H5.01582C4.93629 11.9317 4.87129 11.9967 4.87129 12.0762V13.225C4.83803 13.2001 4.81641 13.1603 4.81641 13.1156C4.81641 12.8974 4.81641 12.2357 4.81641 12.0175C4.81641 11.9423 4.87786 11.8809 4.95304 11.8809V11.8809Z" fill="#B3B3B3"/>
<path fill-rule="evenodd" clip-rule="evenodd" d="M17.6007 11.8809C16.9598 11.8809 15.9839 11.8809 15.343 11.8809C15.3002 11.8809 15.2619 11.9007 15.2368 11.9317H17.538C17.6174 11.9317 17.6824 11.9967 17.6824 12.0763V13.225C17.7158 13.2001 17.7373 13.1603 17.7373 13.1156C17.7373 12.8974 17.7373 12.2357 17.7373 12.0175C17.7373 11.9423 17.6759 11.8809 17.6007 11.8809Z" fill="#B3B3B3"/>
<path fill-rule="evenodd" clip-rule="evenodd" d="M5.44853 13.5H7.32192C7.37631 13.5 7.42083 13.5445 7.42083 13.5989V14.227C7.42083 14.2814 7.37631 14.3259 7.32192 14.3259H5.44853C5.39411 14.3259 5.34961 14.2814 5.34961 14.227V13.5989C5.34961 13.5445 5.39411 13.5 5.44853 13.5Z" fill="#B3B3B3"/>
<path fill-rule="evenodd" clip-rule="evenodd" d="M5.5318 13.5H7.23885C7.29586 13.5 7.34243 13.5466 7.34243 13.6036V14.2611C7.34243 14.3181 7.29586 14.3647 7.23885 14.3647H5.5318C5.47477 14.3647 5.42822 14.3181 5.42822 14.2611V13.6036C5.42822 13.5466 5.47477 13.5 5.5318 13.5V13.5Z" fill="white"/>
<path fill-rule="evenodd" clip-rule="evenodd" d="M5.44358 13.4238H7.32715C7.35629 13.4238 7.38012 13.4476 7.38012 13.4768V13.8129C7.38012 13.842 7.35629 13.8658 7.32715 13.8658H5.44358C5.41446 13.8658 5.39062 13.842 5.39062 13.8129V13.4768C5.39062 13.4476 5.41446 13.4238 5.44358 13.4238V13.4238Z" fill="#B3B3B3"/>
<path fill-rule="evenodd" clip-rule="evenodd" d="M15.2388 13.5H17.1122C17.1666 13.5 17.2111 13.5445 17.2111 13.5989V14.227C17.2111 14.2814 17.1666 14.3259 17.1122 14.3259H15.2388C15.1844 14.3259 15.1399 14.2814 15.1399 14.227V13.5989C15.1399 13.5445 15.1844 13.5 15.2388 13.5Z" fill="#B3B3B3"/>
<path fill-rule="evenodd" clip-rule="evenodd" d="M15.3223 13.5H17.0294C17.0863 13.5 17.133 13.5466 17.133 13.6036V14.2611C17.133 14.3181 17.0863 14.3647 17.0294 14.3647H15.3223C15.2653 14.3647 15.2188 14.3181 15.2188 14.2611V13.6036C15.2188 13.5466 15.2653 13.5 15.3223 13.5Z" fill="white"/>
<path fill-rule="evenodd" clip-rule="evenodd" d="M15.2353 13.4238H17.1189C17.148 13.4238 17.1718 13.4476 17.1718 13.4768V13.8129C17.1718 13.842 17.148 13.8658 17.1189 13.8658H15.2353C15.2062 13.8658 15.1824 13.842 15.1824 13.8129V13.4768C15.1824 13.4476 15.2062 13.4238 15.2353 13.4238Z" fill="#B3B3B3"/>
<path fill-rule="evenodd" clip-rule="evenodd" d="M5.5265 12.041C5.82171 12.041 6.06106 12.2803 6.06106 12.5756C6.06106 12.8708 5.82171 13.1101 5.5265 13.1101C5.23124 13.1101 4.99194 12.8708 4.99194 12.5756C4.99194 12.2803 5.23124 12.041 5.5265 12.041Z" fill="#CCCCCC"/>
<path fill-rule="evenodd" clip-rule="evenodd" d="M6.74425 12.041C7.03953 12.041 7.27883 12.2803 7.27883 12.5756C7.27883 12.8708 7.03953 13.1101 6.74425 13.1101C6.44904 13.1101 6.20972 12.8708 6.20972 12.5756C6.20972 12.2803 6.44904 12.041 6.74425 12.041Z" fill="#CCCCCC"/>
<path fill-rule="evenodd" clip-rule="evenodd" d="M5.36026 13.0118C5.18859 12.9456 5.06689 12.779 5.06689 12.584C5.06689 12.3891 5.18859 12.2225 5.36026 12.1562C5.22766 12.2316 5.1359 12.3947 5.1359 12.584C5.1359 12.7733 5.22769 12.9364 5.36026 13.0118ZM5.69021 12.1562C5.86183 12.2225 5.98358 12.3891 5.98358 12.584C5.98358 12.779 5.86183 12.9456 5.69021 13.0118C5.82276 12.9364 5.9146 12.7733 5.9146 12.584C5.9146 12.3947 5.82274 12.2316 5.69021 12.1562Z" fill="white"/>
<path fill-rule="evenodd" clip-rule="evenodd" d="M6.57877 13.0118C6.40715 12.9456 6.2854 12.779 6.2854 12.584C6.2854 12.3891 6.40715 12.2225 6.57877 12.1562C6.44619 12.2316 6.35438 12.3947 6.35438 12.584C6.35438 12.7733 6.44621 12.9364 6.57877 13.0118ZM6.90869 12.1562C7.08034 12.2225 7.20206 12.3891 7.20206 12.584C7.20206 12.779 7.08034 12.9456 6.90869 13.0118C7.04132 12.9364 7.13308 12.7733 7.13308 12.584C7.13308 12.3947 7.04129 12.2316 6.90869 12.1562Z" fill="white"/>
<path fill-rule="evenodd" clip-rule="evenodd" d="M17.0282 12.0293C16.733 12.0293 16.4937 12.2686 16.4937 12.5639C16.4937 12.8591 16.733 13.0984 17.0282 13.0984C17.3234 13.0984 17.5628 12.8591 17.5628 12.5639C17.5628 12.2686 17.3234 12.0293 17.0282 12.0293Z" fill="#CCCCCC"/>
<path fill-rule="evenodd" clip-rule="evenodd" d="M15.8107 12.0293C15.5154 12.0293 15.2761 12.2686 15.2761 12.5639C15.2761 12.8591 15.5154 13.0984 15.8107 13.0984C16.106 13.0984 16.3452 12.8591 16.3452 12.5639C16.3452 12.2686 16.106 12.0293 15.8107 12.0293Z" fill="#CCCCCC"/>
<path fill-rule="evenodd" clip-rule="evenodd" d="M15.6449 12.9883C15.4733 12.9221 15.3516 12.7555 15.3516 12.5606C15.3516 12.3656 15.4733 12.199 15.6449 12.1328C15.5123 12.2081 15.4205 12.3712 15.4205 12.5606C15.4205 12.7499 15.5123 12.913 15.6449 12.9883ZM15.9749 12.1328C16.1465 12.199 16.2682 12.3656 16.2682 12.5606C16.2682 12.7555 16.1465 12.9221 15.9749 12.9883C16.1074 12.913 16.1992 12.7499 16.1992 12.5606C16.1992 12.3712 16.1074 12.2081 15.9749 12.1328Z" fill="white"/>
<path fill-rule="evenodd" clip-rule="evenodd" d="M16.8629 12.9883C16.6913 12.9221 16.5696 12.7555 16.5696 12.5606C16.5696 12.3656 16.6913 12.199 16.8629 12.1328C16.7304 12.2081 16.6386 12.3712 16.6386 12.5606C16.6386 12.7499 16.7304 12.913 16.8629 12.9883ZM17.1929 12.1328C17.3645 12.199 17.4863 12.3656 17.4863 12.5606C17.4863 12.7555 17.3645 12.9221 17.1929 12.9883C17.3255 12.913 17.4173 12.7499 17.4173 12.5606C17.4173 12.3712 17.3255 12.2081 17.1929 12.1328Z" fill="white"/>
<path fill-rule="evenodd" clip-rule="evenodd" d="M11.0098 26.3203L11.2156 26.8468L11.7799 26.8798L11.3428 27.2382L11.4858 27.7851L11.0098 27.4801L10.5339 27.7851L10.6769 27.2382L10.2397 26.8798L10.8041 26.8468L11.0098 26.3203Z" fill="#FEFEFE"/>
<path fill-rule="evenodd" clip-rule="evenodd" d="M9.68883 26.0625L9.83005 26.4237L10.2173 26.4464L9.91732 26.6923L10.0154 27.0676L9.68883 26.8584L9.36224 27.0676L9.46034 26.6923L9.1604 26.4464L9.54761 26.4237L9.68883 26.0625Z" fill="#FEFEFE"/>
<path fill-rule="evenodd" clip-rule="evenodd" d="M12.3338 26.0625L12.4751 26.4237L12.8623 26.4464L12.5623 26.6923L12.6604 27.0676L12.3338 26.8584L12.0073 27.0676L12.1054 26.6923L11.8054 26.4464L12.1926 26.4237L12.3338 26.0625Z" fill="#FEFEFE"/>
</svg>
