<svg width="53" height="74" viewBox="0 0 53 74" fill="none" xmlns="http://www.w3.org/2000/svg">
<path d="M45.8065 58.3489C44.3852 60.1474 42.6223 61.6915 40.581 62.87L26.3769 71.0713L12.1738 62.87C10.1326 61.6915 8.36851 60.1474 6.94727 58.3489C19.7687 56.2118 32.9861 56.2118 45.8065 58.3489H45.8065Z" fill="#DA241C"/>
<path d="M3.30135 22.3754C5.79337 21.4323 8.32759 20.6468 10.8897 20.0195V22.9293C10.8358 23.0638 10.8075 23.2082 10.8075 23.3554V23.6681C10.8075 23.6789 10.8077 23.6895 10.808 23.7002C10.1595 24.0321 9.73454 24.6041 9.45303 25.3506L9.44379 25.3752L9.4357 25.4001C8.75246 27.5182 8.38375 29.7175 8.15392 31.9268C7.81816 32.169 7.604 32.5187 7.51954 32.9308L7.49669 33.0423L7.49727 33.1563C7.50904 35.4414 7.53252 37.7265 7.53252 40.0117V40.0732L7.53952 40.1345C7.55434 40.2637 7.58075 40.3821 7.61732 40.4908C6.065 40.4992 4.51429 40.5086 2.96484 40.5192V22.5024L3.30141 22.3754L3.30135 22.3754Z" fill="#DA241C"/>
<path d="M49.7937 22.5125V40.5293C48.6892 40.5217 47.5841 40.5147 46.4782 40.5083C46.5162 40.3969 46.5434 40.2753 46.5583 40.1421L46.565 40.082V40.0217C46.565 37.7353 46.6003 35.4489 46.6003 33.1624V33.1311L46.5987 33.0997C46.57 32.5662 46.3291 32.1453 45.9331 31.8783C45.7044 29.6865 45.3491 27.5021 44.6556 25.4049L44.6491 25.3853L44.6419 25.3659C44.3649 24.6148 43.9364 24.0417 43.2851 23.7096C43.2853 23.6991 43.2855 23.6887 43.2855 23.6782V23.3655C43.2855 23.2181 43.2572 23.0737 43.2031 22.9391V20.3711C45.3116 20.9347 47.3989 21.6063 49.4571 22.3855L49.7936 22.5125L49.7937 22.5125Z" fill="#DA241C"/>
<path d="M0.83606 20.5846C4.14147 19.2402 7.51401 18.1662 10.9269 17.3613V17.4462C10.9269 17.579 10.9493 17.7069 10.9907 17.826C10.8747 18.0064 10.8095 18.228 10.8095 18.4772V18.6415C10.8095 18.6883 10.8124 18.7348 10.818 18.781C7.761 19.5225 4.73772 20.4855 1.76859 21.6693V42.1702C1.31742 42.1733 0.865226 42.1764 0.414062 42.1806V20.7566L0.83606 20.5847V20.5846Z" fill="white"/>
<path d="M52.3477 20.7562V42.1802C51.8965 42.176 51.4443 42.1729 50.9931 42.1698V21.6689C48.4595 20.6588 45.8866 19.8094 43.2868 19.1212V18.9804C43.2868 18.9235 43.2825 18.8667 43.2742 18.8108C43.2825 18.7548 43.2868 18.6981 43.2868 18.6412V18.4769C43.2868 18.2275 43.2216 18.0059 43.1055 17.8255C43.1215 17.7794 43.1346 17.7321 43.1448 17.6836C46.1109 18.4454 49.0439 19.4122 51.9257 20.5843L52.3478 20.7562H52.3477Z" fill="white"/>
<path d="M48.064 57.1934C46.3833 59.9191 44.0399 62.2406 41.1849 63.889L26.3816 72.4363L11.5794 63.889C8.7244 62.2406 6.38096 59.9191 4.70033 57.1934L3.20508 57.3236C5.01812 60.4891 7.64908 63.1846 10.9021 65.0623L26.3817 74.0003L41.8622 65.0623C45.1152 63.1846 47.7463 60.489 49.5593 57.3236L48.0641 57.1934H48.064Z" fill="white"/>
<path d="M52.7602 41.6816V42.708C35.253 42.5725 17.5072 42.5725 0 42.708V41.6816C3.19139 41.6569 6.3907 41.6367 9.59507 41.6211C9.62733 41.6234 9.65966 41.6255 9.69193 41.6273L9.72385 41.6291C15.3535 41.6291 21.2304 41.5801 27.0497 41.5801H27.206L27.3226 41.5801L27.5955 41.5802L27.8684 41.5804C33.4192 41.5846 39.0095 41.6291 44.375 41.6291L44.4065 41.6273C47.1958 41.642 49.981 41.6601 52.7603 41.6816H52.7602Z" fill="white"/>
<path d="M52.7602 57.4922V58.5457C35.4906 54.6102 17.2696 54.6102 0 58.5457V57.4922C8.64216 55.5396 17.5135 54.5508 26.3796 54.5508C35.2468 54.5508 44.1181 55.5396 52.7602 57.4922Z" fill="white"/>
<path d="M8.01103 54.2411C7.93323 54.1095 7.89342 53.9473 7.89342 53.7757C7.89342 53.0061 7.89342 52.2365 7.89342 51.4669C7.89342 50.6973 7.89342 49.9277 7.89342 49.1568C7.89342 48.6303 7.00651 48.2703 6.53612 48.3105C7.00651 48.2702 7.89342 47.7762 7.89342 47.2497C7.89342 46.7012 7.89342 46.1539 7.89342 45.6052C7.89342 45.0566 7.89342 44.5094 7.89342 43.9595C7.89342 43.4291 7.50629 43.0001 7.03106 43.0001C5.46792 43.0001 3.90974 43.0001 2.35156 43.0001C2.45442 43.212 2.55751 43.4225 2.6602 43.6332C2.73874 43.7943 2.77787 43.9751 2.77787 44.1623C2.77787 45.9251 2.77787 47.6905 2.77787 49.452C2.77787 51.2135 2.77787 52.9789 2.77787 54.7403C2.77787 54.9275 2.73778 55.1209 2.6602 55.2967C2.55654 55.5316 2.45442 55.7673 2.35156 56C3.21392 55.7973 4.07628 55.5971 4.93875 55.4111C4.83584 55.233 4.73349 55.0507 4.63006 54.8691C4.5522 54.7323 4.5076 54.561 4.5076 54.3802C4.5076 53.5703 4.5076 52.7579 4.5076 51.948C4.5076 51.1381 4.5076 50.3268 4.5076 49.5143C4.94855 49.4649 5.38972 49.4164 5.83056 49.3714C6.01196 49.3528 6.1589 49.5052 6.1589 49.7132C6.1589 50.4399 6.1589 51.1666 6.1589 51.892C6.1589 52.6161 6.1589 53.3441 6.1589 54.0682C6.1589 54.245 6.12018 54.4234 6.04129 54.5908C5.93894 54.8082 5.83546 55.0276 5.7326 55.246C6.59495 55.0757 7.45737 54.9158 8.31979 54.7611C8.21687 54.5895 8.11452 54.4162 8.01109 54.2411H8.01103ZM4.5125 47.4746C4.5125 46.6621 4.5125 45.8496 4.5125 45.0371C4.94855 45.0215 5.38967 45.0067 5.83056 44.9929C6.0119 44.9872 6.1589 45.1528 6.1589 45.3608C6.1589 45.9003 6.1589 46.4385 6.1589 46.9779C6.1589 47.186 6.0119 47.3642 5.83056 47.377C5.38967 47.4083 4.94855 47.442 4.5125 47.4745V47.4746ZM9.28506 43C9.38798 43.1924 9.4905 43.3837 9.59866 43.5733C9.67669 43.71 9.71137 43.8697 9.71137 44.0283C9.71137 45.6091 9.71137 47.1912 9.71137 48.7693C9.71137 50.3488 9.71137 51.931 9.71137 53.5105C9.71137 53.669 9.67748 53.8318 9.59866 53.9836C9.4913 54.1905 9.38798 54.397 9.28506 54.6037C11.1323 54.3268 12.9797 54.0863 14.827 53.8848C14.827 53.149 14.827 52.4133 14.827 51.6762C14.6505 51.7971 14.4738 51.9162 14.3026 52.0376C14.175 52.1281 14.0282 52.184 13.8812 52.1974C13.0679 52.2723 12.2545 52.3599 11.4459 52.4457C11.4459 51.8504 11.4459 51.2562 11.4459 50.6622C11.4459 50.0668 11.4459 49.4727 11.4459 48.8786C11.9654 48.8436 12.4896 48.8081 13.014 48.7746C13.1609 48.7653 13.3078 48.7972 13.4354 48.8682C13.6115 48.9661 13.7882 49.0632 13.9646 49.1607C13.9646 48.2703 13.9646 47.3784 13.9646 46.4879C13.7882 46.6024 13.6118 46.7169 13.4354 46.8325C13.3081 46.9158 13.1609 46.9611 13.014 46.9676C12.4896 46.991 11.9654 47.0145 11.4459 47.0378C11.4459 46.3046 11.4459 45.5714 11.4459 44.8383C12.2545 44.8214 13.0679 44.8045 13.8812 44.7902C14.0283 44.7876 14.1755 44.8264 14.3026 44.9033C14.4743 45.007 14.6505 45.1099 14.827 45.2113C14.827 44.4742 14.827 43.7372 14.827 43.0001C12.9797 43.0001 11.1323 43.0001 9.28506 43.0001V43ZM19.5946 43C18.3207 43 17.0515 43 15.7825 43C15.8854 43.1782 15.988 43.3539 16.0912 43.5292C16.1692 43.6619 16.2088 43.8126 16.2088 43.9659C16.2088 45.4375 16.2088 46.9091 16.2088 48.3794C16.2088 49.8498 16.2088 51.32 16.2088 52.7903C16.2088 52.945 16.1695 53.0984 16.0912 53.2388C15.9882 53.4234 15.8854 53.608 15.7825 53.7939C17.3456 53.6639 18.9085 53.5519 20.4766 53.4689C20.9468 53.444 21.3244 53.0607 21.3244 52.6018C21.3244 51.1406 21.3244 49.6781 21.3244 48.2183C21.3244 46.757 21.3244 45.2945 21.3244 43.8334C21.3244 43.3744 20.9471 43.0001 20.4766 43.0001C20.1826 43.0001 19.8886 43.0001 19.5946 43.0001V43ZM19.1929 51.8217C18.7764 51.8451 18.3599 51.8686 17.9434 51.8919C17.9434 50.6985 17.9434 49.5039 17.9434 48.3117C17.9434 47.1184 17.9434 45.9237 17.9434 44.7303C18.3599 44.7264 18.7764 44.7207 19.1929 44.7173C19.4134 44.7155 19.5946 44.8914 19.5946 45.1124C19.5946 46.1616 19.5946 47.2107 19.5946 48.2597C19.5946 49.3076 19.5946 50.3579 19.5946 51.4057C19.5946 51.6267 19.4134 51.8126 19.1929 51.8217V51.8217ZM29.5074 43C28.5813 43 27.6551 43 26.7291 43C26.2489 43 25.8618 43.377 25.8618 43.8424C25.8618 44.4587 25.8618 45.0761 25.8618 45.691C25.8618 46.3072 25.8618 46.9234 25.8618 47.5397C25.8618 48.0012 26.2489 48.3756 26.7291 48.3756C27.4297 48.3756 28.1305 48.3772 28.836 48.3821C29.0615 48.3836 29.2476 48.5628 29.2476 48.7837C29.2476 49.6183 29.2476 50.4516 29.2476 51.2849C29.2476 51.4904 29.0761 51.6543 28.8605 51.6515C28.5764 51.6478 28.2969 51.6457 28.0177 51.645C27.7825 51.6444 27.5914 51.4604 27.5914 51.2342C27.5914 50.4971 27.5914 49.7601 27.5914 49.023C27.1553 49.2647 26.7239 49.5088 26.2929 49.7536C26.0281 49.904 25.8617 50.18 25.8617 50.4816C25.8617 51.1497 25.8617 51.8179 25.8617 52.4848C25.8617 52.949 26.2488 53.3207 26.729 53.3207C27.8559 53.3207 28.983 53.3335 30.1099 53.3571C30.5902 53.3672 30.9773 53.0035 30.9773 52.5368C30.9773 51.7074 30.9773 50.878 30.9773 50.0487C30.9773 49.2206 30.9773 48.3899 30.9773 47.5605C30.9773 47.0938 30.5901 46.7113 30.1099 46.7077C29.3946 46.7023 28.6791 46.698 27.9687 46.696C27.7629 46.6954 27.5914 46.5335 27.5914 46.3333C27.5914 45.916 27.5914 45.4961 27.5914 45.0775C27.5914 44.859 27.7777 44.682 28.003 44.6822C28.6694 44.6832 29.3358 44.6864 30.0022 44.6875C30.1687 44.6877 30.3297 44.7345 30.4726 44.8188C30.6383 44.9164 30.8058 45.0124 30.9773 45.1086C30.9773 44.6888 30.9773 44.2676 30.9773 43.8463C30.9773 43.3796 30.5902 43 30.11 43C29.9091 43 29.7082 43 29.5073 43H29.5074ZM37.4747 43.9737C37.4747 43.8152 37.5173 43.6582 37.5972 43.5213C37.6985 43.3476 37.8029 43.1756 37.9059 43C35.9116 43 33.9221 43 31.9328 43C32.0357 43.169 32.1396 43.3362 32.2415 43.5057C32.3208 43.6378 32.3591 43.7917 32.3591 43.9451C32.3591 45.3699 32.3591 46.7934 32.3591 48.2169C32.3591 49.6417 32.3591 51.0652 32.3591 52.4887C32.3591 52.6421 32.3215 52.7926 32.2415 52.9228C32.1403 53.0876 32.0357 53.2505 31.9328 53.4143C32.7952 53.448 33.6576 53.491 34.52 53.5364C34.4171 53.3622 34.316 53.1869 34.2162 53.0138C34.1347 52.8724 34.0938 52.7187 34.0938 52.564C34.0938 51.9842 34.0938 51.4032 34.0938 50.8233C34.0938 50.2435 34.0938 49.6625 34.0938 49.0826C34.6426 48.7836 35.1913 48.4885 35.7451 48.1882C35.7451 48.9344 35.7451 49.6807 35.7451 50.4255C35.7451 51.1691 35.7451 51.9153 35.7451 52.6589C35.7451 52.8148 35.702 52.9676 35.6226 53.0969C35.5208 53.2626 35.4168 53.4258 35.3188 53.5896C36.1812 53.6481 37.0436 53.717 37.906 53.7911C37.8031 53.6091 37.6985 53.4268 37.5973 53.2439C37.5172 53.0992 37.4749 52.9384 37.4749 52.781C37.4749 51.3133 37.4749 49.8457 37.4749 48.378C37.4749 46.9102 37.4749 45.4426 37.4749 43.9736L37.4747 43.9737ZM34.0937 47.1042C34.0937 46.3072 34.0937 45.5103 34.0937 44.7135C34.6425 44.7187 35.1913 44.7252 35.745 44.7304C35.745 45.2179 35.745 45.7054 35.745 46.1916C35.1913 46.4983 34.6425 46.8012 34.0937 47.1042V47.1042ZM44.4131 44.0375C44.4131 43.875 44.453 43.7154 44.5307 43.5733C44.6343 43.3839 44.7365 43.1924 44.8394 43.0001C43.977 43.0001 43.1146 43.0001 42.2522 43.0001C42.3551 43.1873 42.4611 43.3714 42.5658 43.5591C42.6424 43.6965 42.6834 43.8541 42.6834 44.0141C42.6834 44.7707 42.6834 45.5273 42.6834 46.2839C42.6834 47.0391 42.6834 47.7957 42.6834 48.5511C42.4532 47.7542 42.2182 46.9611 41.9925 46.176C41.7674 45.3934 41.5311 44.6149 41.3065 43.8412C41.2372 43.6022 41.2623 43.3471 41.385 43.1314C41.4093 43.0885 41.434 43.0444 41.4584 43.0001C40.5961 43.0001 39.7337 43.0001 38.8712 43.0001C38.9742 43.1809 39.0763 43.3594 39.1799 43.5383C39.2576 43.6726 39.2976 43.823 39.2976 43.9803C39.2976 45.4753 39.2976 46.9729 39.2976 48.4679C39.2976 49.9615 39.2976 51.4578 39.2976 52.9528C39.2976 53.1049 39.257 53.2523 39.1799 53.3766C39.0757 53.5447 38.9742 53.7146 38.8712 53.8836C39.7337 53.9746 40.596 54.0708 41.4584 54.1786C41.3556 53.9837 41.2533 53.787 41.1498 53.5924C41.0721 53.4464 41.0321 53.2895 41.0321 53.1335C41.0321 52.3976 41.0321 51.6619 41.0321 50.9261C41.0321 50.1916 41.0321 49.4545 41.0321 48.7174C41.2576 49.4987 41.4884 50.2851 41.7132 51.073C41.9391 51.8645 42.1709 52.661 42.3992 53.4663C42.4698 53.7153 42.4402 53.9731 42.3208 54.1709C42.2981 54.2084 42.2718 54.2437 42.2522 54.2801C43.1146 54.4049 43.9769 54.5336 44.8394 54.6714C44.7365 54.4634 44.634 54.2565 44.5307 54.0513C44.4527 53.8964 44.4131 53.7302 44.4131 53.5677C44.4131 51.9804 44.4131 50.3919 44.4131 48.8033C44.4131 47.2147 44.4131 45.6261 44.4131 44.0375V44.0375ZM49.6169 43.0001C48.3429 43.0001 47.0738 43.0001 45.8047 43.0001C45.9076 43.195 46.0143 43.3881 46.1183 43.5851C46.1956 43.7313 46.236 43.8997 46.236 44.0713C46.236 45.7002 46.236 47.3303 46.236 48.9592C46.236 50.5882 46.236 52.2184 46.236 53.8459C46.236 54.0162 46.1956 54.1769 46.1183 54.31C46.0143 54.4891 45.9076 54.6624 45.8047 54.8365C47.3678 55.1265 48.9317 55.4428 50.4989 55.7986C50.9701 55.9055 51.3516 55.536 51.3516 54.964C51.3516 53.144 51.3516 51.3214 51.3516 49.5014C51.3516 47.6814 51.3516 45.8588 51.3516 44.0375C51.3516 43.4655 50.9693 43.0001 50.4989 43.0001C50.2049 43.0001 49.9109 43.0001 49.6169 43.0001V43.0001ZM49.2151 53.4715C48.7986 53.3961 48.3821 53.322 47.9656 53.2519C47.9656 51.8765 47.9656 50.4997 47.9656 49.1244C47.9656 47.749 47.9656 46.3722 47.9656 44.9956C48.3821 45.0086 48.7987 45.024 49.2151 45.0385C49.4356 45.0461 49.6169 45.2646 49.6169 45.5299C49.6169 46.787 49.6169 48.044 49.6169 49.2986C49.6169 50.5544 49.6169 51.8114 49.6169 53.0672C49.6169 53.3324 49.4356 53.5118 49.2151 53.4715V53.4715Z" fill="white"/>
<path d="M13.4939 58.3792C13.3931 58.3919 13.2923 58.4045 13.1915 58.4177C13.1915 59.0118 13.1915 59.606 13.1915 60.1997C13.1915 60.7934 13.1915 61.3876 13.1915 61.9813C13.0095 61.9878 12.8303 61.9939 12.6511 62C12.6511 61.4159 12.6511 60.8309 12.6511 60.2463C12.6511 59.6617 12.6511 59.0771 12.6511 58.492C12.5503 58.5051 12.4495 58.5193 12.3516 58.5324C12.3516 58.3595 12.3516 58.1861 12.3516 58.0131C12.7324 57.9549 13.1131 57.8963 13.4939 57.8427C13.4939 58.0217 13.4939 58.2007 13.4939 58.3792H13.4939ZM15.0031 61.9317C14.8239 61.9368 14.6447 61.9423 14.4655 61.9474C14.4068 61.8296 14.3787 61.4913 14.3787 60.9315C14.3787 60.93 14.3787 60.9279 14.3787 60.9254C14.3787 60.8414 14.3805 60.757 14.3815 60.6721C14.386 60.3201 14.3843 60.1411 14.3843 60.1329C14.3843 59.9893 14.3312 59.9215 14.222 59.9301C14.222 60.2664 14.222 60.6032 14.222 60.9395C14.222 61.2758 14.222 61.6126 14.222 61.9483C14.0399 61.954 13.8608 61.9595 13.6816 61.9651C13.6816 61.2738 13.6816 60.5825 13.6816 59.8912C13.6816 59.1999 13.6816 58.5081 13.6816 57.8163C13.9028 57.786 14.1241 57.7558 14.3452 57.7278C14.4992 57.7083 14.631 57.7518 14.7428 57.8583C14.855 57.9652 14.9108 58.1501 14.9108 58.4115C14.9108 58.583 14.9108 58.7534 14.9108 58.9243C14.9108 59.256 14.8016 59.4886 14.5776 59.6242C14.8016 59.697 14.9127 59.9246 14.9108 60.3038C14.91 60.4601 14.9051 60.6158 14.9051 60.7721C14.9051 61.1139 14.9136 61.3819 14.9275 61.5746C14.9415 61.7677 14.9695 61.8871 15.0032 61.9316L15.0031 61.9317ZM14.3843 59.1813C14.3843 58.9497 14.3843 58.718 14.3843 58.4864C14.3843 58.3388 14.3311 58.2715 14.2219 58.2842C14.2219 58.4732 14.2219 58.663 14.2219 58.852C14.2219 59.0412 14.2219 59.2303 14.2219 59.4194C14.3311 59.4093 14.3843 59.3309 14.3843 59.1813V59.1813ZM15.1543 57.6273C15.3336 57.6065 15.5127 57.5858 15.6947 57.5656C15.6947 58.1724 15.6947 58.7792 15.6947 59.3861C15.6947 59.9929 15.6947 60.5997 15.6947 61.2065C15.6947 61.2935 15.7255 61.3358 15.7843 61.3335C15.843 61.3313 15.8739 61.2869 15.8739 61.1995C15.8739 60.5906 15.8739 59.9813 15.8739 59.3724C15.8739 58.7635 15.8739 58.1542 15.8739 57.5453C16.0531 57.5266 16.2323 57.5079 16.4142 57.4897C16.4142 58.0965 16.4142 58.7038 16.4142 59.3107C16.4142 59.917 16.4142 60.5243 16.4142 61.1306C16.4142 61.384 16.3536 61.5828 16.2379 61.7243C16.1212 61.867 15.9691 61.9378 15.7842 61.9423C15.6135 61.9464 15.4681 61.8887 15.3419 61.7698C15.2162 61.6516 15.1542 61.4578 15.1542 61.1867C15.1542 60.5936 15.1542 60.0003 15.1542 59.4067C15.1542 58.8136 15.1542 58.2204 15.1542 57.6272L15.1543 57.6273ZM17.7891 58.9365C17.6239 58.9461 17.4615 58.9567 17.2991 58.9678C17.2991 58.6745 17.2991 58.3813 17.2991 58.0874C17.2991 58.0146 17.2739 57.9811 17.2235 57.9853C17.1704 57.9897 17.1451 58.0273 17.1451 58.1001C17.1451 58.6133 17.1451 59.1272 17.1451 59.6404C17.1451 60.1532 17.1451 60.6676 17.1451 61.1803C17.1451 61.2526 17.1703 61.288 17.2235 61.2865C17.2739 61.285 17.2991 61.2475 17.2991 61.1747C17.2991 60.8071 17.2991 60.4395 17.2991 60.0718C17.4615 60.0637 17.6239 60.0561 17.7891 60.0486C17.7891 60.4299 17.7891 60.8111 17.7891 61.1924C17.7891 61.4059 17.7334 61.5791 17.6183 61.7103C17.5038 61.841 17.3747 61.9072 17.2291 61.91C16.8119 61.9183 16.6047 61.6587 16.6047 61.1297C16.6047 60.6564 16.6047 60.183 16.6047 59.7102C16.6047 59.2369 16.6047 58.763 16.6047 58.2897C16.6047 57.7172 16.8119 57.4105 17.2291 57.3719C17.6043 57.3372 17.7891 57.5884 17.7891 58.1198C17.7891 58.3923 17.7891 58.6645 17.7891 58.9365V58.9365ZM19.3319 61.8341C19.1331 61.8371 18.9343 61.8401 18.7383 61.8437C18.7019 61.5631 18.6655 61.2823 18.6319 61.0022C18.5984 60.7221 18.5647 60.442 18.5311 60.1618C18.5311 60.443 18.5311 60.7241 18.5311 61.0048C18.5311 61.2854 18.5311 61.5666 18.5311 61.8473C18.3491 61.8503 18.1699 61.8539 17.9907 61.8569C17.9907 61.1055 17.9907 60.3529 17.9907 59.6015C17.9907 58.8496 17.9907 58.0975 17.9907 57.3456C18.1699 57.3309 18.3491 57.3163 18.5311 57.3021C18.5311 57.554 18.5311 57.8064 18.5311 58.0581C18.5311 58.31 18.5311 58.5618 18.5311 58.8141C18.5703 58.5597 18.6096 58.3049 18.6487 58.0505C18.6879 57.7957 18.7271 57.5408 18.7663 57.2849C18.9315 57.2738 19.0995 57.2617 19.2675 57.2495C19.2115 57.6015 19.1528 57.9541 19.0995 58.3049C19.0464 58.6554 18.9875 59.0058 18.9343 59.3557C18.9987 59.7674 19.066 60.1795 19.1303 60.5921C19.1947 61.0052 19.2647 61.4195 19.3319 61.8341V61.8341ZM20.1047 61.823C20.1047 61.0523 20.1047 60.2811 20.1047 59.5104C20.1047 58.7397 20.1047 57.9691 20.1047 57.1979C20.3287 57.1852 20.5527 57.1736 20.7766 57.1619C20.9222 57.1543 21.0511 57.2231 21.1659 57.3688C21.2807 57.5144 21.3367 57.7445 21.3367 58.0576C21.3367 58.5289 21.3367 59.0012 21.3367 59.472C21.3367 59.9433 21.3367 60.4151 21.3367 60.8864C21.3367 61.1777 21.2839 61.4046 21.1771 61.568C21.0711 61.7302 20.9391 61.813 20.7795 61.8148C20.5528 61.8175 20.3287 61.8199 20.1047 61.823H20.1047ZM20.7963 60.9688C20.7963 60.4747 20.7963 59.9807 20.7963 59.4867C20.7963 58.9921 20.7963 58.4975 20.7963 58.003C20.7963 57.8402 20.7459 57.7618 20.6423 57.7668C20.6423 58.3423 20.6423 58.9178 20.6423 59.4927C20.6423 60.0683 20.6423 60.6436 20.6423 61.2186C20.7459 61.2171 20.7963 61.1342 20.7963 60.9688ZM22.8571 61.8021C22.6779 61.8037 22.4987 61.8052 22.3195 61.8062C22.2607 61.6737 22.2327 61.2955 22.2327 60.6725C22.2327 60.6705 22.2327 60.6684 22.2327 60.6659C22.2327 60.5723 22.2345 60.4778 22.2355 60.3837C22.24 59.9914 22.2383 59.7926 22.2383 59.7835C22.2383 59.6231 22.1852 59.5448 22.076 59.5473C22.076 59.9231 22.076 60.2993 22.076 60.6745C22.076 61.0502 22.076 61.4264 22.076 61.8017C21.8939 61.8032 21.7148 61.8047 21.5356 61.8067C21.5356 61.0269 21.5356 60.2467 21.5356 59.4669C21.5356 58.6871 21.5356 57.9069 21.5356 57.1271C21.7568 57.1175 21.978 57.1077 22.1992 57.1003C22.3532 57.0951 22.4848 57.1581 22.5968 57.2879C22.7087 57.4175 22.7648 57.6267 22.7648 57.9154C22.7648 58.104 22.7648 58.2927 22.7648 58.4813C22.7648 58.8469 22.6556 59.0967 22.4316 59.2307C22.6556 59.3268 22.7667 59.5847 22.7648 60.0034C22.764 60.1759 22.7592 60.3482 22.7592 60.5202C22.7592 60.898 22.7676 61.1938 22.7815 61.4072C22.7955 61.6201 22.8235 61.752 22.8572 61.8021L22.8571 61.8021ZM22.2383 58.723C22.2383 58.4656 22.2383 58.2077 22.2383 57.9498C22.2383 57.7854 22.1851 57.705 22.0759 57.7086C22.0759 57.9205 22.0759 58.1319 22.0759 58.3432C22.0759 58.5541 22.0759 58.7655 22.0759 58.9768C22.1851 58.9738 22.2383 58.8903 22.2383 58.7229V58.723ZM23.5459 61.792C23.3639 61.793 23.1848 61.7941 23.0055 61.7951C23.0055 61.0082 23.0055 60.2214 23.0055 59.435C23.0055 58.6486 23.0055 57.8613 23.0055 57.0744C23.1848 57.0693 23.3639 57.0648 23.5459 57.0602C23.5459 57.8491 23.5459 58.638 23.5459 59.4264C23.5459 60.2147 23.5459 61.0035 23.5459 61.7919V61.792ZM25.1083 57.035C25.0523 57.8274 24.9935 58.62 24.9403 59.4118C24.8871 60.2032 24.8283 60.9951 24.7751 61.7865C24.5203 61.787 24.2655 61.788 24.0107 61.789C23.9547 61.0002 23.8959 60.2107 23.8427 59.4219C23.7896 58.6336 23.7335 57.8447 23.6803 57.0568C23.8539 57.0533 24.0303 57.0508 24.2067 57.0472C24.2375 57.5989 24.2683 58.1507 24.2991 58.7028C24.3299 59.2545 24.3607 59.8067 24.3943 60.3589C24.4251 59.8063 24.4559 59.2535 24.4867 58.7003C24.5175 58.1471 24.5483 57.5938 24.579 57.0406C24.7555 57.0386 24.9319 57.0371 25.1083 57.035V57.035ZM25.7887 61.7844C25.6067 61.7844 25.4275 61.785 25.2483 61.7854C25.2483 60.9936 25.2483 60.2016 25.2483 59.4097C25.2483 58.6178 25.2483 57.8254 25.2483 57.0335C25.4275 57.0315 25.6067 57.031 25.7887 57.0299C25.7887 57.8223 25.7887 58.6153 25.7887 59.4072C25.7887 60.1996 25.7887 60.9926 25.7887 61.7844ZM27.3483 61.7844C27.1634 61.7839 26.9787 61.7839 26.7938 61.7839C26.7295 61.3617 26.6678 60.9395 26.6062 60.5171C26.5446 60.095 26.483 59.6727 26.4214 59.2499C26.4214 59.6727 26.4214 60.0949 26.4214 60.5171C26.4214 60.9395 26.4214 61.3617 26.4214 61.7839C26.2702 61.7844 26.1218 61.7844 25.9734 61.7844C25.9734 60.9921 25.9734 60.1996 25.9734 59.4072C25.9734 58.6148 25.9734 57.8223 25.9734 57.0295C26.1778 57.029 26.3822 57.029 26.5866 57.0295C26.637 57.3905 26.6902 57.7521 26.7406 58.1137C26.791 58.4752 26.847 58.8363 26.9002 59.1973C26.9002 58.8363 26.9002 58.4752 26.9002 58.1141C26.9002 57.7526 26.9002 57.3915 26.9002 57.0305C27.0486 57.031 27.197 57.0315 27.3482 57.033C27.3482 57.8249 27.3482 58.6174 27.3482 59.4087C27.3482 60.2006 27.3482 60.993 27.3482 61.7844H27.3483ZM28.7231 61.7885C28.6363 61.7885 28.5495 61.788 28.4655 61.7875C28.4403 61.701 28.4179 61.614 28.3955 61.5265C28.2779 61.7273 28.1519 61.8267 28.0203 61.8264C27.8916 61.8262 27.7785 61.7626 27.6815 61.6328C27.5854 61.5043 27.5387 61.2974 27.5387 61.0148C27.5387 60.499 27.5387 59.9822 27.5387 59.4663C27.5387 58.9501 27.5387 58.4337 27.5387 57.9169C27.5387 57.3015 27.7403 56.9941 28.1463 57.0001C28.5299 57.0057 28.7231 57.2909 28.7231 57.8501C28.7231 58.144 28.7231 58.4372 28.7231 58.73C28.5579 58.728 28.3955 58.726 28.233 58.7235C28.233 58.4054 28.233 58.0868 28.233 57.7682C28.233 57.6909 28.2079 57.6522 28.1546 57.6514C28.1043 57.6507 28.079 57.6888 28.079 57.7657C28.079 58.3128 28.079 58.86 28.079 59.4066C28.079 59.9532 28.079 60.5004 28.079 61.0471C28.079 61.1239 28.1042 61.1629 28.1546 61.1629C28.2078 61.1629 28.233 61.125 28.233 61.0471C28.233 60.7517 28.233 60.456 28.233 60.1601C28.1967 60.1596 28.1603 60.1596 28.1267 60.1591C28.1267 59.9178 28.1267 59.6761 28.1267 59.4344C28.3254 59.4365 28.5242 59.4385 28.7231 59.4405C28.7231 59.8324 28.7231 60.2238 28.7231 60.6147C28.7231 61.0061 28.7231 61.3975 28.7231 61.7884V61.7885ZM31.0023 61.8047C30.8231 61.8027 30.6439 61.8012 30.4647 61.8002C30.4479 61.5892 30.431 61.3789 30.4171 61.1686C30.403 60.9578 30.3891 60.7473 30.3751 60.5365C30.2939 60.5354 30.2155 60.5339 30.1371 60.5329C30.1202 60.7438 30.1034 60.9542 30.0894 61.1645C30.0754 61.3753 30.0586 61.5863 30.0446 61.7966C29.8655 61.7956 29.6862 61.7946 29.507 61.7936C29.5743 61.0066 29.6415 60.2203 29.7086 59.435C29.7758 58.6501 29.843 57.8648 29.9103 57.0805C30.1398 57.0886 30.3694 57.0962 30.599 57.1042C30.6662 57.8896 30.7335 58.6739 30.8007 59.4572C30.8678 60.2405 30.935 61.0228 31.0022 61.8047L31.0023 61.8047ZM30.3303 59.8836C30.3163 59.6495 30.3023 59.4149 30.2911 59.1807C30.2799 58.9466 30.2659 58.7119 30.2547 58.4773C30.2407 58.7114 30.2267 58.9455 30.2155 59.1792C30.2043 59.4127 30.1903 59.6469 30.1791 59.8811C30.2295 59.8816 30.2799 59.8826 30.3303 59.8836V59.8836ZM32.3463 58.8065C32.1811 58.8004 32.0159 58.7938 31.8535 58.7877C31.8535 58.4819 31.8535 58.1759 31.8535 57.87C31.8535 57.7946 31.8283 57.756 31.7807 57.7536C31.7276 57.751 31.6995 57.7875 31.6995 57.8634C31.6995 58.4004 31.6995 58.9384 31.6995 59.475C31.6995 60.0116 31.6995 60.549 31.6995 61.0857C31.6995 61.161 31.7275 61.1994 31.7807 61.2004C31.8283 61.2013 31.8535 61.1635 31.8535 61.0876C31.8535 60.7043 31.8535 60.3215 31.8535 59.9382C32.0159 59.9427 32.181 59.9478 32.3463 59.9524C32.3463 60.3453 32.3463 60.7377 32.3463 61.1306C32.3463 61.3502 32.2876 61.5262 32.1727 61.6581C32.058 61.7897 31.9291 61.8538 31.7863 61.8523C31.3691 61.8478 31.1619 61.5655 31.1619 61.0047C31.1619 60.5035 31.1619 60.0019 31.1619 59.5008C31.1619 58.9996 31.1619 58.4975 31.1619 57.9958C31.1619 57.3895 31.3691 57.0943 31.7863 57.1149C32.1587 57.1333 32.3463 57.4178 32.3463 57.9655C32.3463 58.2462 32.3463 58.5263 32.3463 58.8064V58.8065ZM33.9983 61.8437C33.8191 61.8407 33.6399 61.8376 33.4635 61.8351C33.4467 61.6293 33.4299 61.424 33.4159 61.2186C33.4019 61.0129 33.3851 60.8075 33.3711 60.6017C33.2899 60.5991 33.2115 60.5971 33.1331 60.5951C33.1163 60.8004 33.0995 61.0062 33.0855 61.2116C33.0715 61.4173 33.0547 61.6227 33.0406 61.829C32.8615 61.8265 32.6822 61.8234 32.5059 61.8209C32.5703 61.0512 32.6402 60.282 32.7047 59.5145C32.769 58.7478 32.8391 57.9822 32.9063 57.2171C33.1359 57.2308 33.3655 57.2449 33.5951 57.2616C33.6623 58.0288 33.7294 58.7944 33.7967 59.5585C33.8637 60.321 33.931 61.0831 33.9983 61.8436L33.9983 61.8437ZM33.3291 59.9641C33.3151 59.7355 33.2983 59.5059 33.2871 59.2774C33.2759 59.0484 33.2619 58.8197 33.2507 58.5896C33.2367 58.8182 33.2227 59.0463 33.2115 59.2743C33.2003 59.5024 33.1891 59.731 33.1779 59.959C33.2283 59.9605 33.2787 59.9626 33.3291 59.9641V59.9641ZM34.1551 61.8463C34.1551 61.0888 34.1551 60.3312 34.1551 59.5741C34.1551 58.8171 34.1551 58.0592 34.1551 57.3016C34.3791 57.3188 34.6032 57.3371 34.8271 57.3552C34.9727 57.3669 35.1032 57.4515 35.2164 57.6055C35.33 57.7604 35.3899 57.9863 35.3899 58.2852C35.3899 58.7358 35.3899 59.1868 35.3899 59.6369C35.3899 60.0875 35.3899 60.5385 35.3899 60.9886C35.3899 61.2673 35.3361 61.4811 35.2276 61.6344C35.1206 61.7855 34.9895 61.862 34.83 61.8589C34.6032 61.8545 34.3792 61.8503 34.1552 61.8463H34.1551ZM34.8496 61.0412C34.8496 60.5633 34.8496 60.085 34.8496 59.6071C34.8496 59.1287 34.8496 58.6503 34.8496 58.1719C34.8496 58.0142 34.7964 57.9317 34.6955 57.9247C34.6955 58.4835 34.6955 59.0422 34.6955 59.6005C34.6955 60.1593 34.6955 60.718 34.6955 61.2763C34.7963 61.2789 34.8496 61.201 34.8496 61.0412ZM36.6332 61.8983C36.2804 61.8892 35.9304 61.8816 35.5804 61.8741C35.5804 61.1322 35.5804 60.3899 35.5804 59.648C35.5804 58.9062 35.5804 58.1639 35.5804 57.4215C35.9276 57.4533 36.2776 57.4892 36.6276 57.5246C36.6276 57.7122 36.6276 57.8998 36.6276 58.0869C36.4567 58.0713 36.286 58.0551 36.118 58.0399C36.118 58.2387 36.118 58.4379 36.118 58.6361C36.118 58.8343 36.118 59.033 36.118 59.2313C36.2692 59.2419 36.4232 59.253 36.5772 59.2641C36.5772 59.4411 36.5772 59.6186 36.5772 59.7956C36.4232 59.786 36.2692 59.7763 36.118 59.7673C36.118 60.0258 36.118 60.2846 36.118 60.543C36.118 60.801 36.118 61.0599 36.118 61.3183C36.2888 61.3244 36.4596 61.33 36.6332 61.336C36.6332 61.5236 36.6332 61.7108 36.6332 61.8983V61.8983ZM38.68 61.954C38.5204 61.9495 38.3607 61.9449 38.2011 61.9398C38.2011 61.5439 38.2011 61.1479 38.2011 60.7519C38.2011 60.356 38.2011 59.9601 38.2011 59.564C38.1535 59.9564 38.1031 60.3494 38.0584 60.7438C38.0135 61.1392 37.9631 61.5347 37.9183 61.9317C37.7952 61.9277 37.6719 61.9246 37.5488 61.9216C37.4928 61.5176 37.4395 61.113 37.3863 60.7074C37.3331 60.3014 37.28 59.8943 37.2268 59.4861C37.2268 59.8907 37.2268 60.2948 37.2268 60.6993C37.2268 61.1039 37.2268 61.5084 37.2268 61.9125C37.084 61.9089 36.944 61.9054 36.8039 61.9018C36.8039 61.1756 36.8039 60.449 36.8039 59.7228C36.8039 58.9966 36.8039 58.27 36.8039 57.5433C37.0335 57.5691 37.266 57.5954 37.4984 57.6222C37.5376 57.9979 37.5796 58.3732 37.6187 58.7478C37.6579 59.1221 37.7028 59.4957 37.7448 59.869C37.7783 59.5018 37.8147 59.1356 37.8483 58.77C37.8819 58.4049 37.9211 58.0409 37.9575 57.6773C38.1983 57.7081 38.4391 57.7384 38.68 57.7698C38.68 58.4672 38.68 59.165 38.68 59.8618C38.68 60.5592 38.68 61.2565 38.68 61.9539V61.954ZM40.3516 58.0132C40.2899 58.2731 40.231 58.5345 40.1723 58.796C40.1134 59.0589 40.0547 59.323 39.9959 59.5874C39.9371 59.8524 39.8783 60.1189 39.8195 60.3863C39.8195 60.6539 39.8195 60.9214 39.8195 61.1889C39.8195 61.4564 39.8195 61.7239 39.8195 61.9914C39.6403 61.9853 39.4611 61.9793 39.2819 61.9737C39.2819 61.7077 39.2819 61.4412 39.2819 61.1752C39.2819 60.9093 39.2891 60.6425 39.2819 60.3762C39.2779 60.2287 39.2264 59.9412 39.1419 59.51C39.1059 59.3263 39.0606 59.0918 39.0103 58.806C38.9599 58.5199 38.8983 58.1809 38.8311 57.7911C39.0019 57.8143 39.1727 57.8381 39.3463 57.8624C39.3855 58.1092 39.4276 58.3554 39.4667 58.6007C39.5059 58.8464 39.5479 59.0918 39.5899 59.3365C39.6347 59.1019 39.6794 58.8677 39.7242 58.6346C39.769 58.402 39.8167 58.1703 39.8643 57.9397C40.0266 57.9634 40.1891 57.9883 40.3515 58.0131L40.3516 58.0132Z" fill="#FEFEFE"/>
<path fill-rule="evenodd" clip-rule="evenodd" d="M10.3573 11.1554L11.978 11.0671C12.2295 11.0535 12.4626 11.2346 12.4626 11.4965V15.4286C12.4626 15.6823 12.2424 15.8784 11.996 15.8918L10.3751 15.9801C10.1237 15.9938 9.89062 15.8127 9.89062 15.5507V11.6187C9.89062 11.3649 10.1107 11.1688 10.3573 11.1554V11.1554Z" fill="black"/>
<path fill-rule="evenodd" clip-rule="evenodd" d="M43.7381 11.1554L42.1174 11.0671C41.8659 11.0535 41.6328 11.2346 41.6328 11.4965V15.4286C41.6328 15.6823 41.8531 15.8784 42.0995 15.8918L43.7202 15.9801C43.9716 15.9938 44.205 15.8127 44.205 15.5507V11.6187C44.205 11.3649 43.9848 11.1688 43.7381 11.1554V11.1554Z" fill="black"/>
<path fill-rule="evenodd" clip-rule="evenodd" d="M10.3653 11.3231L11.9861 11.2349C12.1569 11.2256 12.2967 11.3447 12.2967 11.4995V15.4315C12.2967 15.5863 12.1569 15.7206 11.9861 15.7299L10.3653 15.8182C10.1944 15.8275 10.0547 15.7084 10.0547 15.5536V11.6216C10.0547 11.4666 10.1944 11.3324 10.3653 11.3231Z" fill="#1F3F67"/>
<path fill-rule="evenodd" clip-rule="evenodd" d="M43.7245 11.3231L42.1036 11.2349C41.9328 11.2256 41.793 11.3447 41.793 11.4995V15.4315C41.793 15.5863 41.9328 15.7206 42.1036 15.7299L43.7245 15.8182C43.8953 15.8275 44.0351 15.7084 44.0351 15.5536V11.6216C44.0351 11.4666 43.8953 11.3324 43.7245 11.3231Z" fill="#1F3F67"/>
<path fill-rule="evenodd" clip-rule="evenodd" d="M11.7084 11.2502C11.8021 11.245 11.8957 11.24 11.9895 11.2349C12.1603 11.2256 12.3001 11.3447 12.3001 11.4995C12.3001 12.8102 12.3001 14.1208 12.3001 15.4315C12.3001 15.5061 12.2677 15.5758 12.2151 15.6291C11.8201 15.3573 11.5675 15.2927 11.1294 15.2847C11.1118 14.1715 11.0941 12.8675 11.0765 11.7543C11.066 11.7755 11.3309 11.3727 11.3309 11.3727C11.3309 11.3727 11.4946 11.3197 11.7084 11.2502V11.2502Z" fill="#08203B"/>
<path fill-rule="evenodd" clip-rule="evenodd" d="M42.3848 11.2502C42.291 11.245 42.1974 11.24 42.1036 11.2349C41.9328 11.2256 41.793 11.3447 41.793 11.4995C41.793 12.8102 41.793 14.1208 41.793 15.4315C41.793 15.5061 41.8253 15.5758 41.8779 15.6291C42.2731 15.3573 42.5255 15.2927 42.9637 15.2847C42.9812 14.1715 42.999 12.8675 43.0165 11.7543C43.0272 11.7755 42.7622 11.3727 42.7622 11.3727C42.7622 11.3727 42.5985 11.3197 42.3848 11.2502V11.2502Z" fill="#08203B"/>
<path fill-rule="evenodd" clip-rule="evenodd" d="M10.3683 11.3231L11.9891 11.2349C12.1246 11.2274 12.2406 11.3008 12.2827 11.4089C11.6102 11.9332 10.8135 12.0887 10.123 11.4459C10.18 11.3764 10.269 11.3285 10.3684 11.3231H10.3683Z" fill="#1F3F67"/>
<path fill-rule="evenodd" clip-rule="evenodd" d="M43.7268 11.3231L42.1059 11.2349C41.9705 11.2274 41.8546 11.3008 41.8125 11.4089C42.4849 11.9332 43.2815 12.0887 43.972 11.4459C43.9152 11.3764 43.8263 11.3285 43.7268 11.3231H43.7268Z" fill="#1F3F67"/>
<path fill-rule="evenodd" clip-rule="evenodd" d="M15.9424 7.91302C15.9069 7.36345 16.2359 6.90069 16.7915 6.79275C20.1757 6.13501 23.5938 5.61719 27.0493 5.61719C30.5045 5.61719 33.9225 6.13495 37.3067 6.79275C37.8624 6.90069 38.1914 7.36345 38.1558 7.91302C38.1596 7.94386 38.1618 7.97492 38.1636 8.00483C38.1701 8.10399 38.1748 8.20337 38.1796 8.30264C38.1964 8.65161 38.2106 9.00086 38.2247 9.34994C38.2671 10.4071 38.3058 11.4643 38.3442 12.5215C38.3996 14.0591 38.4534 15.5966 38.5062 17.1343L38.5179 17.4744L27.0494 17.2409L15.5801 17.4744L15.5923 17.1338C15.6468 15.5965 15.699 14.059 15.7545 12.5215C15.7927 11.4643 15.8314 10.4071 15.8739 9.34994C15.888 9.00086 15.902 8.65161 15.9189 8.30264C15.9237 8.20343 15.9286 8.10404 15.9349 8.00483C15.9368 7.97492 15.939 7.94386 15.9426 7.91302H15.9424Z" fill="black"/>
<path fill-rule="evenodd" clip-rule="evenodd" d="M16.2643 7.90839C16.2334 7.58463 16.3783 7.18744 16.8511 7.09546C20.2252 6.43967 23.612 5.92145 27.0473 5.92581C30.4823 5.92145 33.8692 6.43961 37.2432 7.09546C37.716 7.18738 37.861 7.58463 37.8301 7.90839C37.8534 7.90839 38.1822 17.1318 38.1822 17.1318L27.0472 16.9051L15.9121 17.1318C15.9121 17.1318 16.2408 7.90839 16.2642 7.90839H16.2643Z" fill="#08203B"/>
<path fill-rule="evenodd" clip-rule="evenodd" d="M16.7726 3.62129C16.7726 8.01712 16.7726 12.4129 16.7726 16.8087V17.1309H16.4504C15.7931 17.1309 15.1357 17.1309 14.4784 17.1309H14.1561V16.8087C14.1561 12.5874 14.1561 8.36626 14.1561 4.14508V4.13813L14.1564 4.13124C14.1624 3.99104 14.0954 3.82339 14.0338 3.70012C13.9546 3.54143 13.8531 3.39002 13.7467 3.24832C13.684 3.16479 13.5782 3.04978 13.529 2.96326C13.3001 2.5609 13.2769 2.07023 13.3548 1.62297C13.4201 1.2476 13.5658 0.850462 13.7766 0.531925C13.9596 0.255474 14.256 -0.0479043 14.6204 0.0063525C14.7424 0.0244955 14.8505 0.0819675 14.9386 0.167458C15.1364 0.359337 15.326 0.595311 15.4936 0.813716C15.7377 1.13174 15.9666 1.46715 16.1683 1.81382C16.4653 2.32406 16.7949 3.01786 16.7725 3.62117L16.7726 3.62129Z" fill="black"/>
<path fill-rule="evenodd" clip-rule="evenodd" d="M37.3213 3.62129C37.3213 8.01712 37.3213 12.4129 37.3213 16.8087V17.1309H37.6434C38.3008 17.1309 38.9582 17.1309 39.6155 17.1309H39.9377V16.8087C39.9377 12.5874 39.9377 8.36626 39.9377 4.14508V4.13813L39.9373 4.13124C39.9314 3.99104 39.9985 3.82339 40.06 3.70012C40.1392 3.54143 40.2407 3.39002 40.3471 3.24832C40.4099 3.16479 40.5156 3.04978 40.565 2.96326C40.7938 2.5609 40.8169 2.07023 40.7391 1.62297C40.6738 1.2476 40.528 0.850462 40.3171 0.531925C40.1344 0.255474 39.8379 -0.0479043 39.4735 0.0063525C39.3514 0.0244955 39.2432 0.0819675 39.1552 0.167458C38.9573 0.359337 38.7679 0.595311 38.6003 0.813716C38.3562 1.13174 38.1271 1.46715 37.9255 1.81382C37.6286 2.32406 37.2989 3.01786 37.3214 3.62117L37.3213 3.62129Z" fill="black"/>
<path fill-rule="evenodd" clip-rule="evenodd" d="M14.4765 4.13119C14.5008 3.56433 13.8464 2.85905 13.8072 2.79004C13.2377 1.78884 14.22 -0.0927456 14.7124 0.384886C15.1428 0.802233 16.4932 2.52938 16.4485 3.60108C16.4485 7.99898 16.4485 12.3969 16.4485 16.7948C15.7911 16.7948 15.1338 16.7948 14.4765 16.7948C14.4765 12.3969 14.4765 8.52908 14.4765 4.13119V4.13119Z" fill="white"/>
<path fill-rule="evenodd" clip-rule="evenodd" d="M39.6176 4.13119C39.5933 3.56433 40.2478 2.85905 40.2869 2.79004C40.8563 1.78884 39.8739 -0.0927456 39.3817 0.384886C38.9513 0.802233 37.601 2.52938 37.6456 3.60108C37.6456 7.99898 37.6456 12.3969 37.6456 16.7948C38.303 16.7948 38.9604 16.7948 39.6176 16.7948C39.6176 12.3969 39.6176 8.52908 39.6176 4.13119V4.13119Z" fill="white"/>
<path fill-rule="evenodd" clip-rule="evenodd" d="M14.4765 4.13119C14.5008 3.56433 13.8465 2.85905 13.8072 2.79004C13.2377 1.78884 14.22 -0.0927456 14.7124 0.384886C14.8409 0.509591 14.9775 0.634697 15.2086 0.940774C15.5045 1.25133 16.2544 2.46404 16.296 3.32084C16.365 4.74839 15.2723 4.14255 15.2723 5.57809C15.2723 9.55026 15.2829 12.8227 15.2829 16.7948C15.0141 16.7948 14.7452 16.7948 14.4765 16.7948C14.4765 12.3969 14.4765 8.52908 14.4765 4.13119V4.13119Z" fill="#B3B3B3"/>
<path fill-rule="evenodd" clip-rule="evenodd" d="M39.6194 4.13119C39.595 3.56433 40.2495 2.85905 40.2886 2.79004C40.8581 1.78884 39.8757 -0.0927456 39.3834 0.384886C39.2548 0.509591 39.1184 0.634697 38.8871 0.940774C38.5913 1.25133 37.8413 2.46404 37.8 3.32084C37.7309 4.74839 38.8236 4.14255 38.8236 5.57809C38.8236 9.55026 38.8129 12.8227 38.8129 16.7948C39.0818 16.7948 39.3506 16.7948 39.6194 16.7948C39.6194 12.3969 39.6194 8.52908 39.6194 4.13119V4.13119Z" fill="#B3B3B3"/>
<path fill-rule="evenodd" clip-rule="evenodd" d="M13.6348 2.05295C13.6382 1.08781 14.326 0.0101348 14.7123 0.38488C15.0695 0.731262 15.9437 1.69376 16.319 2.93311C16.4432 4.53067 14.766 4.02387 14.6457 3.67514C14.4887 3.22064 14.1575 2.92146 13.886 2.63358C13.886 2.63358 13.7216 2.36855 13.711 2.34197C13.7018 2.31889 13.6486 2.10789 13.6348 2.05295Z" fill="white"/>
<path fill-rule="evenodd" clip-rule="evenodd" d="M40.4584 2.05295C40.4551 1.08781 39.7671 0.0101348 39.3808 0.38488C39.0238 0.731262 38.1493 1.69376 37.7741 2.93311C37.65 4.53067 39.3271 4.02387 39.4474 3.67514C39.6043 3.22064 39.9355 2.92146 40.2072 2.63358C40.2072 2.63358 40.3715 2.36855 40.3822 2.34197C40.3913 2.31889 40.4446 2.10789 40.4584 2.05295Z" fill="white"/>
<path fill-rule="evenodd" clip-rule="evenodd" d="M16.6067 17.5894V18.5905H12.0534V17.5894C11.8548 17.5695 11.6953 17.405 11.6953 17.2002V17.073C11.6953 16.8725 11.8479 16.7109 12.0405 16.6853C12.1115 16.5744 12.2374 16.5016 12.3784 16.5016H12.6061C13.049 16.2673 13.8818 16.2207 14.33 16.2207C14.7783 16.2207 15.611 16.2673 16.0539 16.5016H16.2817C16.4227 16.5016 16.5486 16.5744 16.6195 16.6853C16.8123 16.7109 16.9648 16.8725 16.9648 17.073V17.2002C16.9648 17.405 16.8054 17.5694 16.6067 17.5894Z" fill="black"/>
<path fill-rule="evenodd" clip-rule="evenodd" d="M37.483 17.5894V18.5905H42.0362V17.5894C42.2349 17.5695 42.3943 17.405 42.3943 17.2002V17.073C42.3943 16.8725 42.2418 16.7109 42.0491 16.6853C41.9782 16.5744 41.8522 16.5016 41.7112 16.5016H41.4835C41.0408 16.2673 40.2078 16.2207 39.7598 16.2207C39.3115 16.2207 38.4786 16.2673 38.0358 16.5016H37.8081C37.6671 16.5016 37.5411 16.5744 37.4702 16.6853C37.2774 16.7109 37.125 16.8725 37.125 17.073V17.2002C37.125 17.405 37.2844 17.5694 37.483 17.5894V17.5894Z" fill="black"/>
<path fill-rule="evenodd" clip-rule="evenodd" d="M12.3789 17.1797H16.2879V18.2398H12.3789V17.1797Z" fill="#B3B3B3"/>
<path fill-rule="evenodd" clip-rule="evenodd" d="M41.7157 17.1797H37.8066V18.2398H41.7157V17.1797Z" fill="#B3B3B3"/>
<path fill-rule="evenodd" clip-rule="evenodd" d="M16.0184 16.6462H16.2866C16.3984 16.6462 16.4962 16.7216 16.5215 16.8264H16.5713C16.7013 16.8264 16.8125 16.9284 16.8125 17.0604V17.1876C16.8125 17.3195 16.7013 17.4215 16.5713 17.4215H12.0987C11.9687 17.4215 11.8574 17.3195 11.8574 17.1876V17.0604C11.8574 16.9284 11.9687 16.8264 12.0987 16.8264H12.1485C12.1738 16.7216 12.2715 16.6462 12.3834 16.6462H12.6516C13.0481 16.412 13.9113 16.3652 14.3349 16.3652C14.7587 16.3652 15.6219 16.412 16.0183 16.6462H16.0184Z" fill="black"/>
<path fill-rule="evenodd" clip-rule="evenodd" d="M38.0791 16.6462H37.811C37.6991 16.6462 37.6013 16.7216 37.576 16.8264H37.5265C37.3961 16.8264 37.2852 16.9284 37.2852 17.0604V17.1876C37.2852 17.3195 37.3961 17.4215 37.5265 17.4215H41.9987C42.129 17.4215 42.2402 17.3195 42.2402 17.1876V17.0604C42.2402 16.9284 42.129 16.8264 41.9987 16.8264H41.9491C41.9239 16.7216 41.8261 16.6462 41.7141 16.6462H41.446C41.0494 16.412 40.1863 16.3652 39.7627 16.3652C39.3389 16.3652 38.4758 16.412 38.0792 16.6462H38.0791Z" fill="black"/>
<path fill-rule="evenodd" clip-rule="evenodd" d="M14.336 16.5293C15.094 16.5293 15.738 16.6467 15.9712 16.8102H16.2877C16.3296 16.8102 16.3639 16.8411 16.3639 16.8791V16.9904H16.5722C16.6142 16.9904 16.6486 17.0214 16.6486 17.0593V17.1866C16.6486 17.2245 16.6142 17.2554 16.5722 17.2554H12.0998C12.0578 17.2554 12.0234 17.2245 12.0234 17.1866V17.0593C12.0234 17.0214 12.0578 16.9904 12.0998 16.9904H12.3082V16.8791C12.3082 16.8411 12.3425 16.8102 12.3845 16.8102H12.7009C12.934 16.6467 13.578 16.5293 14.336 16.5293H14.336Z" fill="#808080"/>
<path fill-rule="evenodd" clip-rule="evenodd" d="M39.7618 16.5293C39.0037 16.5293 38.3598 16.6467 38.1265 16.8102H37.8102C37.7683 16.8102 37.7339 16.8411 37.7339 16.8791V16.9904H37.5256C37.4836 16.9904 37.4492 17.0214 37.4492 17.0593V17.1866C37.4492 17.2245 37.4836 17.2554 37.5256 17.2554H41.9979C42.0399 17.2554 42.0743 17.2245 42.0743 17.1866V17.0593C42.0743 17.0214 42.0399 16.9904 41.9979 16.9904H41.7895V16.8791C41.7895 16.8411 41.7554 16.8102 41.7133 16.8102H41.3969C41.1638 16.6467 40.5197 16.5293 39.7619 16.5293H39.7618Z" fill="#808080"/>
<path fill-rule="evenodd" clip-rule="evenodd" d="M11.9609 17.8438H16.7033C16.7848 17.8438 16.8608 17.8691 16.9231 17.9126H17.002V17.9861C17.0534 18.0499 17.0843 18.1306 17.0843 18.219V18.3832C17.0843 18.4445 17.0694 18.5021 17.0432 18.5529C17.0694 18.6036 17.0843 18.6612 17.0843 18.7225V19.0353C17.0843 19.1235 17.0535 19.2043 17.002 19.268V22.8469C17.0535 22.9106 17.0843 22.9914 17.0843 23.0797V23.3924C17.0843 23.4808 17.0535 23.5614 17.002 23.6252V24.7059H11.6623V23.6252C11.611 23.5614 11.5801 23.4808 11.5801 23.3924V23.0797C11.5801 22.9914 11.611 22.9106 11.6623 22.8469V19.268C11.611 19.2043 11.5801 19.1235 11.5801 19.0353V18.7225C11.5801 18.6612 11.5949 18.6036 11.6212 18.5529C11.5949 18.5021 11.5801 18.4445 11.5801 18.3832V18.219C11.5801 17.9683 11.7162 17.8438 11.9609 17.8438V17.8438Z" fill="black"/>
<path fill-rule="evenodd" clip-rule="evenodd" d="M42.1312 17.8438H37.3888C37.3075 17.8438 37.2314 17.8691 37.169 17.9126H37.0902V17.9861C37.0388 18.0499 37.0078 18.1306 37.0078 18.219V18.3832C37.0078 18.4445 37.0227 18.5021 37.0489 18.5529C37.0227 18.6036 37.0078 18.6612 37.0078 18.7225V19.0353C37.0078 19.1235 37.0388 19.2043 37.0902 19.268V22.8469C37.0388 22.9106 37.0078 22.9914 37.0078 23.0797V23.3924C37.0078 23.4808 37.0388 23.5614 37.0902 23.6252V24.7059H42.4298V23.6252C42.4811 23.5614 42.5121 23.4808 42.5121 23.3924V23.0797C42.5121 22.9914 42.4811 22.9106 42.4298 22.8469V19.268C42.4811 19.2043 42.5121 19.1235 42.5121 19.0353V18.7225C42.5121 18.6612 42.4973 18.6036 42.471 18.5529C42.4973 18.5021 42.5121 18.4445 42.5121 18.3832V18.219C42.5121 17.9683 42.3759 17.8438 42.1312 17.8438V17.8438Z" fill="black"/>
<path fill-rule="evenodd" clip-rule="evenodd" d="M11.9883 18.2383H16.6835V24.3872H11.9883V18.2383Z" fill="#999999"/>
<path fill-rule="evenodd" clip-rule="evenodd" d="M42.1094 18.2383H37.4141V24.3872H42.1094V18.2383Z" fill="#999999"/>
<path fill-rule="evenodd" clip-rule="evenodd" d="M13.4436 24.3736H11.9883V18.4883H13.4436V24.3736Z" fill="#E6E6E6"/>
<path fill-rule="evenodd" clip-rule="evenodd" d="M40.6543 24.3736H42.1097V18.4883H40.6543V24.3736Z" fill="#E6E6E6"/>
<path fill-rule="evenodd" clip-rule="evenodd" d="M13.1128 24.3948H12.7734V18.8594H13.1128V24.3948Z" fill="#999999"/>
<path fill-rule="evenodd" clip-rule="evenodd" d="M40.9824 24.3948H41.3215V18.8594H40.9824V24.3948Z" fill="#999999"/>
<path fill-rule="evenodd" clip-rule="evenodd" d="M16.6807 18.7734V24.3708H15.1379C15.1454 23.474 15.1532 21.8326 15.1525 20.9477C15.1512 19.5342 14.7382 19.3303 12.9082 19.1719C12.9082 19.1563 15.335 18.8788 16.6807 18.7734Z" fill="#666666"/>
<path fill-rule="evenodd" clip-rule="evenodd" d="M37.4141 18.7734V24.3708H38.957C38.9494 23.474 38.9415 21.8326 38.9423 20.9477C38.9437 19.5342 39.3568 19.3303 41.1868 19.1719C41.1868 19.1563 38.7598 18.8788 37.4141 18.7734Z" fill="#666666"/>
<path fill-rule="evenodd" clip-rule="evenodd" d="M11.96 22.855H16.7024C16.8236 22.855 16.9261 22.9505 16.9261 23.073V23.3857C16.9261 23.5083 16.8236 23.6038 16.7024 23.6038H11.96C11.8389 23.6038 11.7363 23.5083 11.7363 23.3857V23.073C11.7363 22.9505 11.8389 22.855 11.96 22.855V22.855ZM16.8428 18.5461C16.8933 18.5858 16.9261 18.6464 16.9261 18.7157V19.0285C16.9261 19.151 16.8236 19.2465 16.7024 19.2465H11.96C11.8389 19.2465 11.7363 19.151 11.7363 19.0285V18.7157C11.7363 18.6464 11.7692 18.5857 11.8196 18.5461C11.7692 18.5065 11.7363 18.4458 11.7363 18.3765V18.2122C11.7363 18.0897 11.8389 17.9941 11.96 17.9941H16.7024C16.8237 17.9941 16.9261 18.0896 16.9261 18.2122V18.3765C16.9261 18.4458 16.8933 18.5065 16.8428 18.5461V18.5461Z" fill="black"/>
<path fill-rule="evenodd" clip-rule="evenodd" d="M42.1341 22.855H37.3917C37.2705 22.855 37.168 22.9505 37.168 23.073V23.3857C37.168 23.5083 37.2705 23.6038 37.3917 23.6038H42.1341C42.2554 23.6038 42.3578 23.5083 42.3578 23.3857V23.073C42.3578 22.9505 42.2554 22.855 42.1341 22.855ZM37.2513 18.5461C37.2008 18.5858 37.168 18.6464 37.168 18.7157V19.0285C37.168 19.151 37.2705 19.2465 37.3917 19.2465H42.1341C42.2554 19.2465 42.3578 19.151 42.3578 19.0285V18.7157C42.3578 18.6464 42.3251 18.5857 42.2745 18.5461C42.3251 18.5065 42.3578 18.4458 42.3578 18.3765V18.2122C42.3578 18.0897 42.2554 17.9941 42.1341 17.9941H37.3917C37.2705 17.9941 37.168 18.0896 37.168 18.2122V18.3765C37.168 18.4458 37.2008 18.5065 37.2513 18.5461Z" fill="black"/>
<path fill-rule="evenodd" clip-rule="evenodd" d="M11.9629 18.1465H16.7053C16.7376 18.1465 16.764 18.1703 16.764 18.1995V18.3637C16.764 18.393 16.7376 18.4167 16.7053 18.4167H11.9629C11.9306 18.4167 11.9043 18.393 11.9043 18.3637V18.1995C11.9043 18.1703 11.9306 18.1465 11.9629 18.1465V18.1465ZM11.9629 18.6501H16.7053C16.7376 18.6501 16.764 18.674 16.764 18.7031V19.0159C16.764 19.045 16.7376 19.0687 16.7053 19.0687H11.9629C11.9307 19.0687 11.9043 19.045 11.9043 19.0159V18.7031C11.9043 18.6738 11.9306 18.6501 11.9629 18.6501V18.6501ZM11.9629 23.0074H16.7053C16.7376 23.0074 16.764 23.0311 16.764 23.0604V23.373C16.764 23.4023 16.7376 23.426 16.7053 23.426H11.9629C11.9307 23.426 11.9043 23.4023 11.9043 23.373V23.0604C11.9043 23.0311 11.9306 23.0074 11.9629 23.0074V23.0074Z" fill="#E6E6E6"/>
<path fill-rule="evenodd" clip-rule="evenodd" d="M42.133 18.1465H37.3907C37.3584 18.1465 37.332 18.1703 37.332 18.1995V18.3637C37.332 18.393 37.3584 18.4167 37.3907 18.4167H42.133C42.1652 18.4167 42.1917 18.393 42.1917 18.3637V18.1995C42.1917 18.1703 42.1652 18.1465 42.133 18.1465ZM42.133 18.6501H37.3907C37.3584 18.6501 37.332 18.674 37.332 18.7031V19.0159C37.332 19.045 37.3584 19.0687 37.3907 19.0687H42.133C42.1652 19.0687 42.1917 19.045 42.1917 19.0159V18.7031C42.1917 18.6738 42.1652 18.6501 42.133 18.6501ZM42.133 23.0074H37.3907C37.3584 23.0074 37.332 23.0311 37.332 23.0604V23.373C37.332 23.4023 37.3584 23.426 37.3907 23.426H42.133C42.1652 23.426 42.1917 23.4023 42.1917 23.373V23.0604C42.1917 23.0311 42.1652 23.0074 42.133 23.0074Z" fill="#E6E6E6"/>
<path fill-rule="evenodd" clip-rule="evenodd" d="M14.385 18.6501C14.219 18.8146 13.8584 18.9617 13.5508 19.0688H16.7047C16.737 19.0688 16.7635 19.045 16.7635 19.0159V18.7031C16.7635 18.674 16.737 18.6501 16.7047 18.6501H14.385V18.6501ZM14.0996 18.1465C14.3234 18.2364 14.4352 18.3276 14.4672 18.4168H16.7047C16.737 18.4168 16.7635 18.393 16.7635 18.3638V18.1995C16.7635 18.1703 16.737 18.1465 16.7047 18.1465H14.0996V18.1465ZM14.4768 23.0073H16.7047C16.737 23.0073 16.7635 23.0311 16.7635 23.0603V23.373C16.7635 23.4022 16.737 23.426 16.7047 23.426H14.4719C14.5716 23.3256 14.5799 23.204 14.4769 23.0073L14.4768 23.0073Z" fill="#999999"/>
<path fill-rule="evenodd" clip-rule="evenodd" d="M39.7104 18.6501C39.8765 18.8146 40.2371 18.9617 40.5445 19.0688H37.3907C37.3584 19.0688 37.332 19.045 37.332 19.0159V18.7031C37.332 18.674 37.3584 18.6501 37.3907 18.6501H39.7104V18.6501ZM39.9958 18.1465C39.772 18.2364 39.6602 18.3276 39.6282 18.4168H37.3907C37.3584 18.4168 37.332 18.393 37.332 18.3638V18.1995C37.332 18.1703 37.3584 18.1465 37.3907 18.1465H39.9958V18.1465ZM39.6188 23.0073H37.3907C37.3584 23.0073 37.332 23.0311 37.332 23.0603V23.373C37.332 23.4022 37.3584 23.426 37.3907 23.426H39.6235C39.5238 23.3256 39.5154 23.204 39.6187 23.0073L39.6188 23.0073Z" fill="#999999"/>
<path fill-rule="evenodd" clip-rule="evenodd" d="M12.416 18.4168V18.1465H12.7553V18.4168H12.416ZM12.416 19.0687V18.65H12.7553V19.0687H12.416ZM12.416 23.0073H12.7553V23.426H12.416V23.0073Z" fill="#808080"/>
<path fill-rule="evenodd" clip-rule="evenodd" d="M41.6811 18.4168V18.1465H41.3418V18.4168H41.6811ZM41.6811 19.0687V18.65H41.3418V19.0687H41.6811ZM41.6811 23.0073H41.3418V23.426H41.6811V23.0073Z" fill="#808080"/>
<path fill-rule="evenodd" clip-rule="evenodd" d="M9.11691 32.0575C9.1191 32.0567 9.12122 32.0559 9.12346 32.0552L9.41604 31.9518L9.43103 31.9909L11.5237 31.5723L10.0199 32.3242H44.3291C44.3811 32.2947 44.433 32.2646 44.4845 32.2343C44.5131 32.2173 44.5467 32.1984 44.5791 32.1787L44.6128 32.0099L44.9042 32.0396C45.401 32.0904 45.7932 32.2945 45.827 32.8495L45.8276 32.8602V32.8708C45.8157 35.1572 45.8041 37.4435 45.7922 39.7301V39.7475L45.7902 39.765C45.7083 40.4807 44.9707 40.6685 44.3637 40.7072L44.3534 40.7078H9.7456L9.73544 40.7072C9.1284 40.6685 8.39091 40.4807 8.30892 39.765L8.30691 39.7475V39.7301C8.29514 37.4435 8.28343 35.1572 8.27166 32.8708L8.27148 32.8372L8.2782 32.8045C8.32844 32.5589 8.45274 32.3619 8.66942 32.2318C8.81641 32.1436 8.96 32.1128 9.11697 32.0576L9.11691 32.0575Z" fill="black"/>
<path fill-rule="evenodd" clip-rule="evenodd" d="M9.22565 32.3574C8.96729 32.4487 8.67149 32.4772 8.5918 32.8663C8.60357 35.1526 8.61528 37.439 8.62705 39.7253C8.67551 40.1489 9.09498 40.3406 9.75381 40.3827H44.341C45 40.3406 45.4195 40.1489 45.4681 39.7253C45.4797 37.439 45.4916 35.1526 45.5032 32.8663C45.4797 32.4782 45.1975 32.3908 44.8693 32.3574C44.9047 32.368 44.4115 32.6436 44.4115 32.6436H9.68342C9.68342 32.6436 9.19046 32.368 9.22565 32.3574V32.3574Z" fill="white"/>
<path fill-rule="evenodd" clip-rule="evenodd" d="M9.2256 32.3575C8.96729 32.4488 8.67149 32.4772 8.5918 32.8663C8.60357 35.1527 8.61516 37.439 8.62705 39.7254C8.67551 40.149 9.09498 40.3407 9.75381 40.3828H18.3671L23.1996 40.2124C23.1996 40.2124 16.033 39.958 15.5241 39.7037C12.4223 39.0161 10.7152 36.8466 11.4215 32.6436H9.68348C9.68348 32.6436 9.19052 32.368 9.22565 32.3574L9.2256 32.3575Z" fill="#E4E4E4"/>
<path fill-rule="evenodd" clip-rule="evenodd" d="M44.8492 32.3575C45.1075 32.4488 45.4032 32.4772 45.483 32.8663C45.4712 35.1527 45.4596 37.439 45.4477 39.7254C45.3993 40.149 44.9797 40.3407 44.3209 40.3828H35.7076L30.875 40.2124C30.875 40.2124 38.0418 39.958 38.5506 39.7037C41.6524 39.0161 43.3596 36.8466 42.6532 32.6436H44.3914C44.3914 32.6436 44.8843 32.368 44.8491 32.3574L44.8492 32.3575Z" fill="#E4E4E4"/>
<path fill-rule="evenodd" clip-rule="evenodd" d="M9.2256 32.3574C8.96729 32.4487 8.67149 32.4772 8.5918 32.8663L8.59495 33.4937H45.5001L45.5032 32.8663C45.4797 32.4782 45.1975 32.3908 44.8693 32.3574C44.9047 32.368 44.4115 32.6436 44.4115 32.6436H9.68342C9.68342 32.6436 9.19046 32.368 9.2256 32.3574V32.3574Z" fill="#B3B3B3"/>
<path fill-rule="evenodd" clip-rule="evenodd" d="M9.04319 32.418C8.84178 32.4832 8.653 32.5694 8.5918 32.8683C8.60357 35.1547 8.61516 37.441 8.62705 39.7274C8.67551 40.151 9.09498 40.3427 9.75381 40.3848H11.303C10.4884 40.1079 9.73492 39.6039 9.38515 39.0119C9.98008 39.567 10.4236 39.8142 11.0708 39.9448C9.87117 39.4305 9.23162 38.7832 9.14992 36.9074C9.16543 35.4399 9.07729 33.9637 9.10428 32.4973C9.10319 32.5154 9.07976 32.4823 9.04325 32.418H9.04319Z" fill="#B3B3B3"/>
<path fill-rule="evenodd" clip-rule="evenodd" d="M45.0529 32.418C45.2543 32.4832 45.4432 32.5694 45.5043 32.8683C45.4925 35.1547 45.4809 37.441 45.4692 39.7274C45.4206 40.151 45.0012 40.3427 44.3422 40.3848H42.793C43.6078 40.1079 44.3611 39.6039 44.7108 39.0119C44.1161 39.567 43.6726 39.8142 43.0252 39.9448C44.2249 39.4305 44.8645 38.7832 44.9462 36.9074C44.9306 35.4399 45.0187 33.9637 44.9919 32.4973C44.9929 32.5154 45.0163 32.4823 45.0529 32.418H45.0529Z" fill="#B1B1B1"/>
<path fill-rule="evenodd" clip-rule="evenodd" d="M17.7711 20.9473C17.982 20.9473 18.1708 21.1079 18.1708 21.3243V24.2716C18.1708 24.4881 17.9821 24.6486 17.7711 24.6486H15.7357C15.5247 24.6486 15.3359 24.4881 15.3359 24.2716V21.3243C15.3359 21.1077 15.5248 20.9473 15.7357 20.9473H17.7711V20.9473Z" fill="black"/>
<path fill-rule="evenodd" clip-rule="evenodd" d="M36.3237 20.9473C36.1128 20.9473 35.9238 21.1079 35.9238 21.3243V24.2716C35.9238 24.4881 36.1126 24.6486 36.3237 24.6486H38.3591C38.57 24.6486 38.7588 24.4881 38.7588 24.2716V21.3243C38.7588 21.1077 38.57 20.9473 38.3591 20.9473H36.3237V20.9473Z" fill="black"/>
<path fill-rule="evenodd" clip-rule="evenodd" d="M17.7681 21.1113H15.7327C15.6037 21.1113 15.498 21.2068 15.498 21.3234V24.2707C15.498 24.3873 15.6036 24.4827 15.7327 24.4827H17.7681C17.8971 24.4827 18.0028 24.3873 18.0028 24.2707V21.3234C18.0028 21.2067 17.8971 21.1113 17.7681 21.1113V21.1113Z" fill="#CCCCCC"/>
<path fill-rule="evenodd" clip-rule="evenodd" d="M36.3266 21.1113H38.3619C38.4909 21.1113 38.5967 21.2068 38.5967 21.3234V24.2707C38.5967 24.3873 38.4911 24.4827 38.3619 24.4827H36.3266C36.1974 24.4827 36.0918 24.3873 36.0918 24.2707V21.3234C36.0918 21.2067 36.1976 21.1113 36.3266 21.1113Z" fill="#CCCCCC"/>
<path fill-rule="evenodd" clip-rule="evenodd" d="M17.3548 23.9183C17.5878 23.9375 17.8211 23.9559 18.0541 23.9732L18.3508 23.9951L18.3526 24.2925C18.3682 26.9252 18.3839 29.558 18.3993 32.1833C18.4032 32.3175 18.4072 32.4518 18.4112 32.5862L18.4209 32.9199L18.0869 32.9177C15.209 32.8983 12.3313 32.8788 9.45335 32.8594C9.21778 32.8578 8.83735 32.666 8.86468 32.3697C9.08389 30.0002 9.44319 27.6317 10.176 25.3617L10.1783 25.3546L10.181 25.3476C10.5075 24.4763 11.0181 23.9817 11.9898 23.889L12.0022 23.8878L12.0148 23.8876C13.4646 23.8628 14.9143 23.8381 16.3641 23.8133L17.5633 23.793L17.355 23.9183H17.3548Z" fill="black"/>
<path fill-rule="evenodd" clip-rule="evenodd" d="M36.7438 23.9183C36.5108 23.9375 36.2775 23.9559 36.0446 23.9732L35.7479 23.9951L35.7461 24.2925C35.7303 26.9252 35.7148 29.558 35.6993 32.1833C35.6954 32.3175 35.6914 32.4518 35.6874 32.5862L35.6777 32.9199L36.0117 32.9177C38.8897 32.8983 41.7675 32.8788 44.6453 32.8594C44.8809 32.8578 45.2614 32.666 45.2339 32.3697C45.0147 30.0002 44.6555 27.6317 43.9227 25.3617L43.9203 25.3546L43.9178 25.3476C43.5911 24.4763 43.0807 23.9817 42.1089 23.889L42.0965 23.8878L42.0838 23.8876C40.6341 23.8628 39.1844 23.8381 37.7348 23.8133L36.5353 23.793L36.7436 23.9183H36.7438Z" fill="black"/>
<path fill-rule="evenodd" clip-rule="evenodd" d="M16.3655 24.1251C14.9158 24.1497 13.4661 24.1746 12.0164 24.1992C11.0613 24.2904 10.7121 24.8278 10.4787 25.4501C9.75831 27.6817 9.40108 30.0158 9.18164 32.3889C9.27155 32.4348 9.36164 32.4807 9.4516 32.5266C12.3295 32.5461 15.2073 32.5656 18.0852 32.585C18.0814 32.4507 18.0773 32.3165 18.0734 32.1821C18.0577 29.5494 18.0421 26.9166 18.0265 24.2839C18.0265 24.2839 16.3128 24.1567 16.3655 24.125L16.3655 24.1251Z" fill="#1F3F67"/>
<path fill-rule="evenodd" clip-rule="evenodd" d="M37.7315 24.1251C39.1812 24.1497 40.6308 24.1746 42.0806 24.1992C43.0358 24.2904 43.3849 24.8278 43.6183 25.4501C44.3386 27.6817 44.6959 30.0158 44.9153 32.3889C44.8254 32.4348 44.7354 32.4807 44.6454 32.5266C41.7675 32.5461 38.8897 32.5656 36.0117 32.585C36.0157 32.4507 36.0196 32.3165 36.0236 32.1821C36.0392 29.5494 36.0548 26.9166 36.0704 24.2839C36.0704 24.2839 37.7843 24.1567 37.7316 24.125L37.7315 24.1251Z" fill="#1F3F67"/>
<path fill-rule="evenodd" clip-rule="evenodd" d="M10.5157 32.5388L18.0879 32.5899C18.084 32.4557 18.0799 32.3214 18.0761 32.1871L18.0493 27.6905L17.7335 27.6028C17.8358 27.5249 17.9367 27.429 18.0472 27.3124L18.0471 27.298C17.9795 27.235 17.5966 26.7637 17.5966 26.7637C17.3956 27.0774 17.3209 27.1293 16.8489 27.1667C15.3978 27.1737 13.3743 27.1701 11.9231 27.1772C10.7252 27.1721 10.6012 27.8874 10.5923 28.5281L10.5156 32.5388L10.5157 32.5388Z" fill="#08203B"/>
<path fill-rule="evenodd" clip-rule="evenodd" d="M43.5839 32.5388L36.0117 32.5899C36.0157 32.4557 36.0196 32.3214 36.0236 32.1871L36.0502 27.6905L36.3662 27.6028C36.2637 27.5249 36.163 27.429 36.0524 27.3124L36.0526 27.298C36.1203 27.235 36.5032 26.7637 36.5032 26.7637C36.704 27.0774 36.7787 27.1293 37.2507 27.1667C38.7018 27.1737 40.7255 27.1701 42.1763 27.1772C43.3743 27.1721 43.4984 27.8874 43.5074 28.5281L43.584 32.5388L43.5839 32.5388Z" fill="#08203B"/>
<path fill-rule="evenodd" clip-rule="evenodd" d="M17.5207 10.5807C17.3182 12.3263 17.2838 14.0503 17.3006 15.7676C17.3007 15.9473 17.8207 16.0421 18.5566 16.1015L27.0509 16.0447L35.5451 16.1015C36.2809 16.0421 36.8008 15.9472 36.801 15.7676C36.8178 14.0503 36.7834 12.3263 36.5808 10.5807C36.6094 10.5597 28.8452 10.2588 27.0509 10.1895C25.2561 10.2588 17.4921 10.5596 17.5207 10.5807Z" fill="black"/>
<path fill-rule="evenodd" clip-rule="evenodd" d="M17.5436 15.6811C17.738 15.773 18.3846 15.8318 18.5656 15.8466L27.0524 15.7898L35.5358 15.8466C35.717 15.8317 36.3635 15.773 36.5579 15.6811C36.5711 14.0493 36.5375 12.4186 36.3612 10.7954C36.2578 10.7901 36.1517 10.7877 36.0542 10.7832C35.6778 10.7657 35.3012 10.7497 34.9248 10.7339C33.8242 10.6875 32.7237 10.6437 31.6232 10.6001C30.099 10.5399 28.575 10.4806 27.0509 10.4219C25.5265 10.4806 24.0025 10.5399 22.4783 10.6001C21.3777 10.6437 20.2773 10.6876 19.1768 10.7339C18.8002 10.7497 18.4238 10.7657 18.0472 10.7832C17.9499 10.7877 17.8438 10.7901 17.7404 10.7954C17.564 12.4186 17.5303 14.0492 17.5436 15.6811V15.6811Z" fill="#EBECEC"/>
<path fill-rule="evenodd" clip-rule="evenodd" d="M36.3939 11.1169C36.3835 11.0097 36.3726 10.9024 36.361 10.7954C36.2575 10.7901 36.1515 10.7877 36.0539 10.7832C35.6775 10.7657 35.3009 10.7497 34.9245 10.7339C33.824 10.6875 32.7235 10.6437 31.6229 10.6001C30.0988 10.5399 28.5747 10.4806 27.0506 10.4219C25.5263 10.4806 24.0022 10.5399 22.4781 10.6001C21.3775 10.6437 20.277 10.6876 19.1766 10.7339C18.8 10.7497 18.4235 10.7657 18.0469 10.7832C17.9496 10.7877 17.8436 10.7901 17.7402 10.7954C17.7284 10.9026 17.7176 11.0098 17.707 11.1171L17.7106 11.1335L17.7133 11.1452L17.7177 11.1566C17.8187 11.4235 18.0464 11.5451 18.3115 11.5782L18.318 11.5791L27.0506 11.9138L35.7829 11.5791L35.7895 11.5782C36.0546 11.5451 36.2824 11.4235 36.3835 11.1566L36.3876 11.1452L36.3902 11.1335L36.3939 11.1169V11.1169Z" fill="#FEFEFE"/>
<path fill-rule="evenodd" clip-rule="evenodd" d="M26.7715 15.7987L27.0487 15.7968L27.3226 15.7986V10.5996H26.7715V15.7987Z" fill="black"/>
<path fill-rule="evenodd" clip-rule="evenodd" d="M37.601 23.6203C37.7545 23.7524 37.9079 23.8847 38.0613 24.017L38.2554 24.1844L38.0226 24.2918C37.708 24.4371 37.4239 26.0964 37.3587 26.4333C37.3413 26.5237 37.3237 26.6143 37.3062 26.7047C37.2465 27.0663 36.8075 27.2071 36.5016 27.2813L36.4345 27.2977L27.0487 21.4678L17.6628 27.2977L17.5955 27.2813C17.2898 27.2071 16.8506 27.0663 16.7912 26.7047C16.7735 26.6143 16.756 26.5237 16.7386 26.4333C16.6734 26.0964 16.3892 24.4371 16.0746 24.2918L15.8418 24.1844L16.0359 24.017C16.1894 23.8847 16.3427 23.7525 16.4962 23.6203C16.5232 21.5494 16.5502 19.4786 16.5773 17.4131C16.5702 17.0392 16.6138 16.6079 16.8441 16.2979C17.0047 16.0817 17.2174 15.9703 17.4698 15.8948L17.4888 15.8891L17.5087 15.8881C20.6876 15.7281 23.8645 15.5723 27.0486 15.5723C30.2324 15.5723 33.4094 15.7281 36.5884 15.8881L36.6081 15.8891L36.6272 15.8948C36.8796 15.9703 37.0923 16.0817 37.2528 16.2979C37.4831 16.6079 37.5267 17.0392 37.5196 17.4078C37.5466 19.4786 37.5737 21.5494 37.6008 23.6203H37.601Z" fill="black"/>
<path fill-rule="evenodd" clip-rule="evenodd" d="M27.0475 15.7344C23.8095 15.757 20.6813 15.8907 17.5159 16.05C17.1267 16.1665 16.722 16.3968 16.7412 17.4071C16.7138 19.5026 16.6865 21.5982 16.659 23.6938C16.4868 23.8422 16.3146 23.9906 16.1426 24.139C16.5246 24.3154 16.7309 25.5397 16.9524 26.6728C16.9878 26.8976 17.2612 27.0278 17.6333 27.1181L27.0476 21.2707L36.4616 27.1181C36.8336 27.0278 37.1072 26.8975 37.1425 26.6728C37.3641 25.5397 37.5704 24.3154 37.9524 24.139C37.7801 23.9906 37.6082 23.8422 37.436 23.6938C37.4085 21.5982 37.3811 19.5026 37.3538 17.4071C37.3729 16.3968 36.9681 16.1664 36.5789 16.05C33.4135 15.8907 30.2851 15.757 27.0476 15.7344H27.0475Z" fill="#1F3F67"/>
<path fill-rule="evenodd" clip-rule="evenodd" d="M17.5896 16.043L17.5159 16.0467C17.1267 16.1631 16.722 16.3935 16.7411 17.4038C16.7138 19.4993 16.6865 21.5949 16.659 23.6905C16.4868 23.8389 16.3146 23.9873 16.1426 24.1357C16.5245 24.312 16.7309 25.5364 16.9524 26.6694C16.9878 26.8943 17.2612 27.0244 17.6333 27.1147L18.6593 26.4774L18.6677 25.9208C18.3921 23.4542 18.1165 20.9876 17.8408 18.5209C17.0396 17.449 16.6976 16.4908 17.5897 16.043H17.5896Z" fill="#08203B"/>
<path fill-rule="evenodd" clip-rule="evenodd" d="M36.5079 16.043L36.5814 16.0467C36.9706 16.1631 37.3754 16.3935 37.3563 17.4038C37.3836 19.4993 37.4109 21.5949 37.4385 23.6905C37.6106 23.8389 37.7827 23.9873 37.9548 24.1357C37.5729 24.312 37.3666 25.5364 37.145 26.6694C37.1095 26.8943 36.8362 27.0244 36.4641 27.1147L35.4382 26.4774L35.4297 25.9208C35.7053 23.4542 35.981 20.9876 36.2567 18.5209C37.0578 17.449 37.3998 16.4908 36.5079 16.043H36.5079Z" fill="#08203B"/>
<path fill-rule="evenodd" clip-rule="evenodd" d="M16.6591 23.6973L16.659 23.7066C16.4868 23.855 16.3146 24.0034 16.1426 24.1518C16.5245 24.3281 16.8157 25.298 17.0373 26.4311C17.0727 26.656 17.3355 26.839 17.7076 26.9294L17.9178 26.9541C17.6913 26.5749 17.5122 26.2867 17.5122 26.2867C17.4146 25.2781 17.1013 23.8428 16.6591 23.6973H16.6591Z" fill="#1F3F67"/>
<path fill-rule="evenodd" clip-rule="evenodd" d="M37.4324 23.6973L37.4326 23.7066C37.6048 23.855 37.777 24.0034 37.949 24.1518C37.5671 24.3281 37.2758 25.298 37.0544 26.4311C37.0189 26.656 36.7562 26.839 36.3841 26.9294L36.1738 26.9541C36.4004 26.5749 36.5794 26.2867 36.5794 26.2867C36.677 25.2781 36.9901 23.8428 37.4324 23.6973H37.4324Z" fill="#FF0000"/>
<path fill-rule="evenodd" clip-rule="evenodd" d="M37.4383 23.6973L37.4384 23.7066C37.6106 23.855 37.7826 24.0034 37.9548 24.1518C37.5729 24.3281 37.2816 25.298 37.06 26.4311C37.0247 26.656 36.762 26.839 36.3898 26.9294L36.1797 26.9541C36.4062 26.5749 36.5853 26.2867 36.5853 26.2867C36.6828 25.2781 36.9962 23.8428 37.4382 23.6973H37.4383Z" fill="#1F3F67"/>
<path d="M17.2139 10.9624C16.3607 10.9402 15.3898 10.8942 14.419 10.8484C13.4433 10.8024 12.4674 10.7564 11.6322 10.7345H11.6315C11.616 10.734 11.6015 10.7339 11.5881 10.734C11.4165 10.7372 11.2975 10.7949 11.2214 10.8792C11.1407 10.9686 11.1022 11.0898 11.0977 11.2107C11.0973 11.2248 11.097 11.2384 11.0973 11.2512V11.2525C11.1052 12.0475 11.1145 12.8228 11.1238 13.5981C11.133 14.3726 11.1423 14.9354 11.1501 15.7298C11.1527 15.847 11.1893 15.9349 11.2553 15.9969C11.3232 16.0607 11.4273 16.1042 11.562 16.1299L17.1377 16.0982L16.8846 16.4063L11.5436 16.438L11.5101 16.4357C11.3002 16.3981 11.1307 16.3251 11.0089 16.2108C10.8829 16.0922 10.8134 15.9357 10.8089 15.7358V15.734C10.801 14.9388 10.7917 14.3756 10.7825 13.6004C10.7732 12.8256 10.7638 12.0506 10.756 11.2559C10.7557 11.2371 10.7559 11.2187 10.7564 11.201C10.7635 11.0176 10.8256 10.8299 10.9565 10.6846C11.0921 10.5341 11.2961 10.4311 11.5814 10.426C11.602 10.4256 11.6224 10.4257 11.6422 10.4263V10.4264C12.4952 10.4487 13.4658 10.4945 14.4363 10.5403C15.4121 10.5864 16.3879 10.6325 17.2232 10.6543L17.2137 10.9624H17.2139Z" fill="black"/>
<path d="M36.8863 10.9624C37.7394 10.9402 38.7104 10.8942 39.681 10.8484C40.6568 10.8024 41.6326 10.7564 42.4679 10.7345H42.4686C42.4842 10.734 42.4986 10.7339 42.512 10.734C42.6836 10.7372 42.8027 10.7949 42.8787 10.8792C42.9593 10.9686 42.9979 11.0898 43.0023 11.2107C43.0029 11.2248 43.0031 11.2384 43.0027 11.2512V11.2525C42.995 12.0475 42.9855 12.8228 42.9765 13.5981C42.9672 14.3726 42.9577 14.9354 42.95 15.7298C42.9475 15.847 42.9108 15.9349 42.8448 15.9969C42.7768 16.0607 42.6728 16.1042 42.5381 16.1299L36.9624 16.0982L37.2156 16.4063L42.5565 16.438L42.59 16.4357C42.8 16.3981 42.9694 16.3251 43.0911 16.2108C43.2171 16.0922 43.2868 15.9357 43.2911 15.7358V15.734C43.2991 14.9388 43.3085 14.3756 43.3175 13.6004C43.3268 12.8256 43.3363 12.0506 43.344 11.2559C43.3444 11.2371 43.3442 11.2187 43.3436 11.201C43.3365 11.0176 43.2745 10.8299 43.1436 10.6846C43.0079 10.5341 42.8039 10.4311 42.5188 10.426C42.4981 10.4256 42.4777 10.4257 42.458 10.4263V10.4264C41.6049 10.4487 40.6343 10.4945 39.6637 10.5403C38.688 10.5864 37.7121 10.6325 36.877 10.6543L36.8864 10.9624H36.8863Z" fill="black"/>
<path d="M13.2245 10.6133L13.248 15.8717V15.8759C13.244 16.0069 13.1855 16.146 13.077 16.2524C12.9815 16.346 12.8484 16.4152 12.6807 16.4333L12.6406 16.1263C12.7199 16.1178 12.7819 16.086 12.8254 16.0434C12.877 15.9928 12.9048 15.928 12.9067 15.8678L12.8834 10.6133H13.2245V10.6133Z" fill="black"/>
<path d="M40.869 10.6133L40.8457 15.8717V15.8759C40.8497 16.0069 40.9081 16.146 41.0165 16.2524C41.112 16.346 41.2452 16.4152 41.4129 16.4333L41.453 16.1263C41.3737 16.1178 41.3118 16.086 41.2681 16.0434C41.2165 15.9928 41.1887 15.928 41.1867 15.8678L41.2102 10.6133H40.869V10.6133Z" fill="black"/>
<path d="M17.3651 10.7535L13.4174 16.3035L13.127 16.1415L17.0006 10.6816L17.3651 10.7535Z" fill="black"/>
<path d="M36.7266 10.7535L40.6745 16.3035L40.9649 16.1415L37.0911 10.6816L36.7266 10.7535Z" fill="black"/>
<path fill-rule="evenodd" clip-rule="evenodd" d="M26.0417 6.7778C26.0606 7.19469 26.0711 7.54549 26.0559 7.95721C26.0482 8.22401 25.7897 8.36342 25.4308 8.4051C22.6926 8.63298 19.9545 8.86097 17.2163 9.08885C17.0521 9.06887 17.0152 8.99957 17.0336 8.90868C17.1364 8.48812 17.2391 8.06762 17.3419 7.64711C17.4068 7.45845 17.5739 7.33036 17.867 7.27599C20.2775 6.86386 22.8815 6.60343 25.6876 6.50215C25.8943 6.49601 26.02 6.63363 26.0417 6.7778V6.7778Z" fill="black"/>
<path fill-rule="evenodd" clip-rule="evenodd" d="M25.8774 6.81391C25.8604 6.72589 25.7797 6.6826 25.6938 6.6857C23.084 6.77866 20.4697 7.01314 17.8953 7.45724C17.734 7.48514 17.5611 7.54773 17.5004 7.71308C17.4006 8.12135 17.3009 8.52957 17.2012 8.93779C17.2079 8.93928 17.2148 8.9406 17.2211 8.94158C19.9531 8.71416 22.6852 8.48668 25.412 8.25984C25.5734 8.24112 25.8839 8.18319 25.8912 7.97024C25.9042 7.58309 25.8949 7.20071 25.8773 6.81391H25.8774Z" fill="#EBECEC"/>
<path fill-rule="evenodd" clip-rule="evenodd" d="M28.0586 6.7778C28.0397 7.19469 28.0292 7.54549 28.0444 7.95721C28.0521 8.22401 28.3105 8.36342 28.6693 8.4051C31.4075 8.63298 34.1459 8.86097 36.8839 9.08885C37.0482 9.06887 37.0851 8.99957 37.0666 8.90868C36.9639 8.48812 36.8612 8.06762 36.7583 7.64711C36.6936 7.45845 36.5263 7.33036 36.2332 7.27599C33.8227 6.86386 31.2188 6.60343 28.4124 6.50215C28.2059 6.49601 28.0803 6.63363 28.0586 6.7778V6.7778Z" fill="black"/>
<path fill-rule="evenodd" clip-rule="evenodd" d="M28.225 6.81391C28.2075 7.20071 28.1982 7.58309 28.2112 7.97024C28.2185 8.18319 28.529 8.24106 28.6849 8.25926C31.4172 8.48668 34.1492 8.71416 36.8813 8.94158C36.8876 8.9406 36.8945 8.93928 36.9012 8.93779C36.8015 8.52957 36.7018 8.12135 36.602 7.71308C36.5414 7.54778 36.3685 7.48514 36.2071 7.45724C33.6326 7.01314 31.0182 6.77866 28.4086 6.6857C28.3225 6.6826 28.242 6.72589 28.225 6.81391H28.225Z" fill="#EBECEC"/>
<path fill-rule="evenodd" clip-rule="evenodd" d="M17.3539 19.157C17.3864 18.3372 17.8454 17.7605 18.6347 17.6425C21.4199 17.2264 24.2245 16.9076 27.0295 16.6792L27.0476 16.6777L27.0656 16.6792C29.8705 16.9076 32.675 17.2263 35.4604 17.6425C36.2497 17.7605 36.7086 18.3372 36.7412 19.157L36.7414 19.1625V19.1681C36.7242 23.6725 36.6894 28.1767 36.6723 32.6811L36.6713 32.9238H17.4236L17.4227 32.6811C17.4056 28.1767 17.3707 23.6725 17.3536 19.1681L17.3535 19.1625L17.3538 19.157H17.3539Z" fill="black"/>
<path fill-rule="evenodd" clip-rule="evenodd" d="M17.5898 19.1454C17.6072 23.6888 17.6417 28.1147 17.659 32.6583H36.4426C36.4598 28.1147 36.4943 23.6888 36.5117 19.1454C36.485 18.4727 36.1345 17.9672 35.4307 17.8619C32.7972 17.4685 29.929 17.1346 27.0509 16.9004C24.1724 17.1346 21.3043 17.4685 18.671 17.8619C17.9671 17.9672 17.6165 18.4727 17.5899 19.1454H17.5898Z" fill="white"/>
<path fill-rule="evenodd" clip-rule="evenodd" d="M17.5898 19.1366C17.5929 19.9543 17.5966 20.7682 17.6008 21.5796C17.677 22.5805 18.2319 26.1269 18.2319 26.1269C18.2319 26.1269 18.359 21.4622 18.359 21.3563C18.359 21.2502 18.2424 19.5645 18.2424 19.5115C18.2424 19.4585 20.1719 18.5255 20.1719 18.5255C18.4346 18.8851 17.7578 18.417 18.7334 17.8438L18.6709 17.8531C17.967 17.9583 17.6165 18.4639 17.5898 19.1365V19.1366Z" fill="#B3B3B3"/>
<path fill-rule="evenodd" clip-rule="evenodd" d="M36.5117 19.1365C36.5087 19.9542 36.505 20.7682 36.501 21.5795C36.2125 21.7535 35.9121 27.5263 35.9121 27.5263C35.9121 27.5263 35.7425 21.4622 35.7425 21.3563C35.7425 21.2502 35.8592 19.5645 35.8592 19.5115C35.8592 19.4585 33.9297 18.5255 33.9297 18.5255C35.6669 18.8851 36.3439 18.417 35.3681 17.8438L35.4307 17.8531C36.1345 17.9583 36.485 18.4639 36.5117 19.1365V19.1365Z" fill="#B3B3B3"/>
<path fill-rule="evenodd" clip-rule="evenodd" d="M17.5957 20.6699C17.614 24.6893 17.6431 28.6364 17.6585 32.6764H36.442C36.4573 28.6789 36.4859 24.7724 36.5043 20.7968C36.3054 21.1186 35.9266 26.7962 35.5806 27.0816C29.7815 27.1062 24.3006 25.3711 18.5015 25.3959C18.1169 25.1311 17.7016 21.0463 17.5957 20.67V20.6699Z" fill="#808080"/>
<path fill-rule="evenodd" clip-rule="evenodd" d="M18.0392 19.8623C18.0557 24.1886 18.0886 28.403 18.105 32.7292H35.9908C36.0072 28.4029 36.0399 24.1885 36.0565 19.8623C36.031 19.2216 35.6973 18.7403 35.0271 18.6402C32.5195 18.2655 29.7884 17.9477 27.0479 17.7246C24.307 17.9477 21.576 18.2655 19.0684 18.6402C18.3982 18.7403 18.0646 19.2216 18.0391 19.8623H18.0392Z" fill="black"/>
<path fill-rule="evenodd" clip-rule="evenodd" d="M18.209 20.0916C18.2251 24.3365 18.2575 28.4714 18.2736 32.7163H35.8225C35.8387 28.4714 35.8709 24.3365 35.887 20.0916C35.8622 19.4631 35.5346 18.9907 34.877 18.8925C32.4169 18.5248 29.7371 18.213 27.0481 17.9941C24.3589 18.2131 21.6792 18.5249 19.2189 18.8925C18.5613 18.9907 18.2338 19.4631 18.209 20.0916V20.0916Z" fill="white"/>
<path fill-rule="evenodd" clip-rule="evenodd" d="M19.0858 20.8906H35.0119C35.1944 20.8906 35.3439 21.04 35.3439 21.2224V31.8812C35.3439 32.0638 35.1944 32.2131 35.0119 32.2131H19.0858C18.9032 32.2131 18.7539 32.0638 18.7539 31.8812V21.2224C18.7539 21.04 18.9032 20.8906 19.0858 20.8906V20.8906Z" fill="#333333"/>
<path fill-rule="evenodd" clip-rule="evenodd" d="M19.7695 20.6934H19.9563V32.6095H19.7695V20.6934Z" fill="white"/>
<path fill-rule="evenodd" clip-rule="evenodd" d="M21.3652 20.6934C21.4275 20.6934 21.4898 20.6934 21.5521 20.6934C21.5521 24.6654 21.5521 28.6375 21.5521 32.6095C21.4899 32.6095 21.4276 32.6095 21.3652 32.6095C21.3652 28.6374 21.3652 24.6654 21.3652 20.6934Z" fill="white"/>
<path fill-rule="evenodd" clip-rule="evenodd" d="M22.9648 20.6934C23.0271 20.6934 23.0894 20.6934 23.1518 20.6934C23.1518 24.6654 23.1518 28.6375 23.1518 32.6095C23.0895 32.6095 23.0272 32.6095 22.9648 32.6095C22.9648 28.6374 22.9648 24.6654 22.9648 20.6934Z" fill="white"/>
<path fill-rule="evenodd" clip-rule="evenodd" d="M24.5625 20.6934C24.6248 20.6934 24.6871 20.6934 24.7494 20.6934C24.7494 24.6654 24.7494 28.6375 24.7494 32.6095C24.6871 32.6095 24.6249 32.6095 24.5625 32.6095C24.5625 28.6374 24.5625 24.6654 24.5625 20.6934Z" fill="white"/>
<path fill-rule="evenodd" clip-rule="evenodd" d="M26.1602 20.6934C26.2223 20.6934 26.2847 20.6934 26.347 20.6934C26.347 24.6654 26.347 28.6375 26.347 32.6095C26.2848 32.6095 26.2224 32.6095 26.1602 32.6095C26.1602 28.6374 26.1602 24.6654 26.1602 20.6934Z" fill="white"/>
<path fill-rule="evenodd" clip-rule="evenodd" d="M27.7559 20.6934C27.8181 20.6934 27.8803 20.6934 27.9427 20.6934C27.9427 24.6654 27.9427 28.6375 27.9427 32.6095C27.8803 32.6095 27.8182 32.6095 27.7559 32.6095C27.7559 28.6374 27.7559 24.6654 27.7559 20.6934Z" fill="white"/>
<path fill-rule="evenodd" clip-rule="evenodd" d="M29.3516 20.6934C29.414 20.6934 29.4762 20.6934 29.5384 20.6934C29.5384 24.6654 29.5384 28.6375 29.5384 32.6095C29.4762 32.6095 29.414 32.6095 29.3516 32.6095C29.3516 28.6374 29.3516 24.6654 29.3516 20.6934Z" fill="white"/>
<path fill-rule="evenodd" clip-rule="evenodd" d="M30.9492 20.6934C31.0114 20.6934 31.0738 20.6934 31.136 20.6934C31.136 24.6654 31.136 28.6375 31.136 32.6095C31.0739 32.6095 31.0115 32.6095 30.9492 32.6095C30.9492 28.6374 30.9492 24.6654 30.9492 20.6934Z" fill="white"/>
<path fill-rule="evenodd" clip-rule="evenodd" d="M32.5469 20.6934C32.6092 20.6934 32.6714 20.6934 32.7339 20.6934C32.7339 24.6654 32.7339 28.6375 32.7339 32.6095C32.6715 32.6095 32.6093 32.6095 32.5469 32.6095C32.5469 28.6374 32.5469 24.6654 32.5469 20.6934Z" fill="white"/>
<path fill-rule="evenodd" clip-rule="evenodd" d="M34.1426 20.6934H34.3294V32.6095H34.1426V20.6934Z" fill="white"/>
<path fill-rule="evenodd" clip-rule="evenodd" d="M17.9917 32.7828L17.96 23.6973L17.8672 32.7695C17.8672 32.7695 17.9996 32.7801 17.9917 32.7828Z" fill="black"/>
<path fill-rule="evenodd" clip-rule="evenodd" d="M36.2298 32.7828L36.1983 23.6973L36.1055 32.7695C36.1055 32.7695 36.2379 32.7801 36.2298 32.7828Z" fill="black"/>
<path fill-rule="evenodd" clip-rule="evenodd" d="M27.0493 8.20117L36.0948 8.53601L36.1016 8.53682C36.3761 8.56995 36.612 8.69155 36.7167 8.95841L36.7212 8.96978L36.7238 8.98155C36.8374 9.47279 36.9509 9.96397 37.063 10.4502C37.1144 10.6444 36.9791 10.7695 36.8008 10.812L36.7842 10.8159L27.0492 11.0786L17.3141 10.8159L17.2974 10.812C17.1191 10.7695 16.9838 10.6445 17.034 10.4552C17.1476 9.96397 17.261 9.47279 17.3744 8.98155L17.3772 8.96978L17.3816 8.95841C17.4863 8.69155 17.7222 8.56995 17.9967 8.53682L18.0036 8.53601L27.0492 8.20117H27.0493Z" fill="black"/>
<path fill-rule="evenodd" clip-rule="evenodd" d="M27.0487 8.36523L18.016 8.69956C17.7527 8.73125 17.6025 8.8447 17.5348 9.01758C17.4213 9.50882 17.3078 9.99994 17.1944 10.4912C17.1752 10.5635 17.2098 10.6204 17.3353 10.6502L27.0487 10.9123L36.7621 10.6502C36.8875 10.6204 36.922 10.5635 36.9029 10.4912C36.7893 9.99994 36.6759 9.50882 36.5624 9.01758C36.4947 8.8447 36.3446 8.73125 36.0812 8.69956L27.0487 8.36523V8.36523Z" fill="#1F3F67"/>
<path fill-rule="evenodd" clip-rule="evenodd" d="M18.5755 8.67383C18.389 8.68078 18.2026 8.68772 18.016 8.69455C17.7527 8.72625 17.6025 8.8397 17.5348 9.01257C17.4212 9.50381 17.3078 9.99494 17.1944 10.4862C17.1752 10.5585 17.2098 10.6154 17.3353 10.6452C17.7211 10.6557 18.1071 10.666 18.493 10.6764C18.1961 10.6429 17.4546 10.5851 17.4659 10.4113C17.4873 10.0918 17.7207 9.12936 17.9373 8.84854C18.06 8.68956 18.2953 8.72682 18.5755 8.67383H18.5755Z" fill="#08203B"/>
<path fill-rule="evenodd" clip-rule="evenodd" d="M27.0514 8.36523C27.0439 8.36558 27.0368 8.36575 27.0293 8.36604C27.0293 9.21463 27.0293 10.0632 27.0293 10.9117C27.0368 10.9119 27.0439 10.9121 27.0514 10.9123C30.2892 10.825 33.5269 10.7376 36.7647 10.6502C36.8901 10.6204 36.9247 10.5635 36.9056 10.4912C36.5035 9.14699 35.5444 8.79969 34.6153 8.64519C32.0941 8.55189 29.5725 8.45853 27.0514 8.36523Z" fill="#08203B"/>
<path fill-rule="evenodd" clip-rule="evenodd" d="M16.0381 21.4727C16.2771 21.4727 16.4708 21.6664 16.4708 21.9053C16.4708 22.1443 16.2772 22.338 16.0381 22.338C15.7991 22.338 15.6055 22.1444 15.6055 21.9053C15.6055 21.6664 15.7991 21.4727 16.0381 21.4727Z" fill="black"/>
<path fill-rule="evenodd" clip-rule="evenodd" d="M16.0408 21.5508C16.2391 21.5508 16.3999 21.7115 16.3999 21.9099C16.3999 22.1083 16.2391 22.269 16.0408 22.269C15.8424 22.269 15.6816 22.1083 15.6816 21.9099C15.6816 21.7115 15.8423 21.5508 16.0408 21.5508Z" fill="#E6E6E6"/>
<path fill-rule="evenodd" clip-rule="evenodd" d="M16.0399 21.5781C16.2269 21.5781 16.3784 21.7298 16.3784 21.9167C16.3784 22.1038 16.2268 22.2553 16.0399 22.2553C15.8528 22.2553 15.7012 22.1037 15.7012 21.9167C15.7012 21.7297 15.8529 21.5781 16.0399 21.5781Z" fill="black"/>
<path fill-rule="evenodd" clip-rule="evenodd" d="M16.0402 21.623C16.1993 21.623 16.3284 21.7521 16.3284 21.9113C16.3284 22.0704 16.1994 22.1995 16.0402 22.1995C15.8809 22.1995 15.752 22.0705 15.752 21.9113C15.752 21.7521 15.8808 21.623 16.0402 21.623Z" fill="#DB261C"/>
<path fill-rule="evenodd" clip-rule="evenodd" d="M38.0518 21.4727C37.8129 21.4727 37.6191 21.6664 37.6191 21.9053C37.6191 22.1443 37.8129 22.338 38.0518 22.338C38.2908 22.338 38.4846 22.1444 38.4846 21.9053C38.4846 21.6664 38.2908 21.4727 38.0518 21.4727Z" fill="black"/>
<path fill-rule="evenodd" clip-rule="evenodd" d="M38.0543 21.5508C37.8561 21.5508 37.6953 21.7115 37.6953 21.9099C37.6953 22.1083 37.8561 22.269 38.0543 22.269C38.2528 22.269 38.4136 22.1083 38.4136 21.9099C38.4136 21.7115 38.2529 21.5508 38.0543 21.5508Z" fill="#E6E6E6"/>
<path fill-rule="evenodd" clip-rule="evenodd" d="M38.0533 21.5781C37.8663 21.5781 37.7148 21.7298 37.7148 21.9167C37.7148 22.1038 37.8664 22.2553 38.0533 22.2553C38.2404 22.2553 38.392 22.1037 38.392 21.9167C38.392 21.7297 38.2403 21.5781 38.0533 21.5781Z" fill="black"/>
<path fill-rule="evenodd" clip-rule="evenodd" d="M38.0557 21.623C37.8966 21.623 37.7676 21.7521 37.7676 21.9113C37.7676 22.0704 37.8965 22.1995 38.0557 22.1995C38.2148 22.1995 38.344 22.0705 38.344 21.9113C38.344 21.7521 38.2149 21.623 38.0557 21.623Z" fill="#DB261C"/>
<path fill-rule="evenodd" clip-rule="evenodd" d="M16.0381 22.5801C16.2771 22.5801 16.4708 22.7738 16.4708 23.0128C16.4708 23.2518 16.2772 23.4455 16.0381 23.4455C15.7991 23.4455 15.6055 23.2519 15.6055 23.0128C15.6055 22.7739 15.7991 22.5801 16.0381 22.5801Z" fill="black"/>
<path fill-rule="evenodd" clip-rule="evenodd" d="M16.0408 22.6523C16.2391 22.6523 16.3999 22.813 16.3999 23.0115C16.3999 23.2098 16.2391 23.3707 16.0408 23.3707C15.8424 23.3707 15.6816 23.2098 15.6816 23.0115C15.6816 22.8131 15.8423 22.6523 16.0408 22.6523Z" fill="#E6E6E6"/>
<path fill-rule="evenodd" clip-rule="evenodd" d="M16.0399 22.6582C16.2269 22.6582 16.3784 22.8098 16.3784 22.9968C16.3784 23.1838 16.2268 23.3354 16.0399 23.3354C15.8528 23.3354 15.7012 23.1837 15.7012 22.9968C15.7012 22.8097 15.8529 22.6582 16.0399 22.6582Z" fill="black"/>
<path fill-rule="evenodd" clip-rule="evenodd" d="M16.0402 22.7051C16.1993 22.7051 16.3284 22.834 16.3284 22.9932C16.3284 23.1523 16.1994 23.2815 16.0402 23.2815C15.8809 23.2815 15.752 23.1524 15.752 22.9932C15.752 22.8341 15.8808 22.7051 16.0402 22.7051Z" fill="#DB261C"/>
<path fill-rule="evenodd" clip-rule="evenodd" d="M38.0518 22.5801C37.8129 22.5801 37.6191 22.7738 37.6191 23.0128C37.6191 23.2518 37.8129 23.4455 38.0518 23.4455C38.2908 23.4455 38.4846 23.2519 38.4846 23.0128C38.4846 22.7739 38.2908 22.5801 38.0518 22.5801Z" fill="black"/>
<path fill-rule="evenodd" clip-rule="evenodd" d="M38.0543 22.6523C37.8561 22.6523 37.6953 22.813 37.6953 23.0115C37.6953 23.2098 37.8561 23.3707 38.0543 23.3707C38.2528 23.3707 38.4136 23.2098 38.4136 23.0115C38.4136 22.8131 38.2529 22.6523 38.0543 22.6523Z" fill="#E6E6E6"/>
<path fill-rule="evenodd" clip-rule="evenodd" d="M38.0533 22.6582C37.8663 22.6582 37.7148 22.8098 37.7148 22.9968C37.7148 23.1838 37.8664 23.3354 38.0533 23.3354C38.2404 23.3354 38.392 23.1837 38.392 22.9968C38.392 22.8097 38.2403 22.6582 38.0533 22.6582Z" fill="black"/>
<path fill-rule="evenodd" clip-rule="evenodd" d="M38.0557 22.7051C37.8966 22.7051 37.7676 22.834 37.7676 22.9932C37.7676 23.1523 37.8965 23.2815 38.0557 23.2815C38.2148 23.2815 38.344 23.1524 38.344 22.9932C38.344 22.8341 38.2149 22.7051 38.0557 22.7051Z" fill="#DB261C"/>
<path fill-rule="evenodd" clip-rule="evenodd" d="M11.3132 29.166C12.9741 29.166 15.5029 29.166 17.1638 29.166C17.3588 29.166 17.518 29.3254 17.518 29.5203C17.518 30.0857 17.518 31.8005 17.518 32.366C17.518 32.5609 17.3589 32.7202 17.1638 32.7202C15.5028 32.7202 12.974 32.7202 11.3132 32.7202C11.1183 32.7202 10.959 32.561 10.959 32.366C10.959 31.8005 10.959 30.0857 10.959 29.5203C10.959 29.3255 11.1182 29.166 11.3132 29.166Z" fill="black"/>
<path fill-rule="evenodd" clip-rule="evenodd" d="M42.7655 29.1504C41.1045 29.1504 38.5758 29.1504 36.9149 29.1504C36.7198 29.1504 36.5605 29.3097 36.5605 29.5047C36.5605 30.0701 36.5605 31.7849 36.5605 32.3502C36.5605 32.5454 36.7197 32.7046 36.9149 32.7046C38.5759 32.7046 41.1045 32.7046 42.7655 32.7046C42.9603 32.7046 43.1195 32.5454 43.1195 32.3502C43.1195 31.7849 43.1195 30.0701 43.1195 29.5047C43.1195 29.3097 42.9604 29.1504 42.7655 29.1504Z" fill="black"/>
<path fill-rule="evenodd" clip-rule="evenodd" d="M11.4539 29.2812C13.0336 29.2812 15.4386 29.2812 17.0182 29.2812C17.1236 29.2812 17.218 29.3302 17.28 29.4065H11.6087C11.4126 29.4065 11.2525 29.5668 11.2525 29.7628V32.5939C11.1705 32.5325 11.1172 32.4345 11.1172 32.3243C11.1172 31.7866 11.1172 30.1558 11.1172 29.6181C11.1172 29.4328 11.2686 29.2812 11.4539 29.2812V29.2812Z" fill="#B3B3B3"/>
<path fill-rule="evenodd" clip-rule="evenodd" d="M42.6247 29.2812C41.0452 29.2812 38.6401 29.2812 37.0605 29.2812C36.9551 29.2812 36.8607 29.3301 36.7988 29.4065H42.4701C42.666 29.4065 42.8262 29.5667 42.8262 29.7628V32.5938C42.9083 32.5325 42.9614 32.4344 42.9614 32.3243C42.9614 31.7866 42.9614 30.1558 42.9614 29.6181C42.9614 29.4328 42.8101 29.2812 42.6247 29.2812Z" fill="#B3B3B3"/>
<path fill-rule="evenodd" clip-rule="evenodd" d="M12.6754 33.2715H17.2925C17.4265 33.2715 17.5363 33.3811 17.5363 33.5153V35.0632C17.5363 35.1973 17.4265 35.3071 17.2925 35.3071H12.6754C12.5413 35.3071 12.4316 35.1973 12.4316 35.0632V33.5153C12.4316 33.3811 12.5413 33.2715 12.6754 33.2715Z" fill="#B3B3B3"/>
<path fill-rule="evenodd" clip-rule="evenodd" d="M12.8803 33.2715H17.0874C17.2279 33.2715 17.3426 33.3863 17.3426 33.5267V35.1472C17.3426 35.2877 17.2279 35.4025 17.0874 35.4025H12.8803C12.7397 35.4025 12.625 35.2877 12.625 35.1472V33.5267C12.625 33.3863 12.7397 33.2715 12.8803 33.2715Z" fill="white"/>
<path fill-rule="evenodd" clip-rule="evenodd" d="M12.6637 33.084H17.3058C17.3777 33.084 17.4364 33.1427 17.4364 33.2144V34.0429C17.4364 34.1147 17.3777 34.1733 17.3058 34.1733H12.6637C12.5919 34.1733 12.5332 34.1147 12.5332 34.0429V33.2144C12.5332 33.1427 12.5919 33.084 12.6637 33.084V33.084Z" fill="#B3B3B3"/>
<path fill-rule="evenodd" clip-rule="evenodd" d="M36.8044 33.2715H41.4214C41.5554 33.2715 41.665 33.3811 41.665 33.5153V35.0632C41.665 35.1973 41.5554 35.3071 41.4214 35.3071H36.8044C36.6702 35.3071 36.5605 35.1973 36.5605 35.0632V33.5153C36.5605 33.3811 36.6702 33.2715 36.8044 33.2715Z" fill="#B3B3B3"/>
<path fill-rule="evenodd" clip-rule="evenodd" d="M37.0091 33.2715H41.2163C41.3567 33.2715 41.4716 33.3863 41.4716 33.5267V35.1472C41.4716 35.2877 41.3567 35.4025 41.2163 35.4025H37.0091C36.8687 35.4025 36.7539 35.2877 36.7539 35.1472V33.5267C36.7539 33.3863 36.8687 33.2715 37.0091 33.2715Z" fill="white"/>
<path fill-rule="evenodd" clip-rule="evenodd" d="M36.7946 33.084H41.4368C41.5085 33.084 41.5672 33.1427 41.5672 33.2144V34.0429C41.5672 34.1147 41.5085 34.1733 41.4368 34.1733H36.7946C36.7227 34.1733 36.6641 34.1147 36.6641 34.0429V33.2144C36.6641 33.1427 36.7227 33.084 36.7946 33.084Z" fill="#B3B3B3"/>
<path fill-rule="evenodd" clip-rule="evenodd" d="M12.8682 29.6758C13.5958 29.6758 14.1857 30.2655 14.1857 30.9932C14.1857 31.7209 13.5958 32.3107 12.8682 32.3107C12.1405 32.3107 11.5508 31.7209 11.5508 30.9932C11.5508 30.2655 12.1405 29.6758 12.8682 29.6758Z" fill="#CCCCCC"/>
<path fill-rule="evenodd" clip-rule="evenodd" d="M15.8682 29.6758C16.5959 29.6758 17.1857 30.2655 17.1857 30.9932C17.1857 31.7209 16.5959 32.3107 15.8682 32.3107C15.1406 32.3107 14.5508 31.7209 14.5508 30.9932C14.5508 30.2655 15.1406 29.6758 15.8682 29.6758Z" fill="#CCCCCC"/>
<path fill-rule="evenodd" clip-rule="evenodd" d="M12.4574 32.0694C12.0343 31.9062 11.7344 31.4956 11.7344 31.0152C11.7344 30.5347 12.0343 30.1241 12.4574 29.9609C12.1306 30.1466 11.9044 30.5486 11.9044 31.0152C11.9044 31.4817 12.1307 31.8838 12.4574 32.0694ZM13.2706 29.9609C13.6935 30.1241 13.9936 30.5347 13.9936 31.0152C13.9936 31.4956 13.6935 31.9062 13.2706 32.0694C13.5972 31.8838 13.8236 31.4817 13.8236 31.0152C13.8236 30.5486 13.5972 30.1466 13.2706 29.9609Z" fill="white"/>
<path fill-rule="evenodd" clip-rule="evenodd" d="M15.4613 32.0694C15.0383 31.9062 14.7383 31.4956 14.7383 31.0152C14.7383 30.5347 15.0383 30.1241 15.4613 29.9609C15.1346 30.1466 14.9083 30.5486 14.9083 31.0152C14.9083 31.4817 15.1346 31.8838 15.4613 32.0694ZM16.2744 29.9609C16.6974 30.1241 16.9974 30.5347 16.9974 31.0152C16.9974 31.4956 16.6974 31.9062 16.2744 32.0694C16.6013 31.8838 16.8274 31.4817 16.8274 31.0152C16.8274 30.5486 16.6012 30.1466 16.2744 29.9609Z" fill="white"/>
<path fill-rule="evenodd" clip-rule="evenodd" d="M41.2138 29.6465C40.4864 29.6465 39.8965 30.2364 39.8965 30.964C39.8965 31.6915 40.4864 32.2814 41.2138 32.2814C41.9415 32.2814 42.5314 31.6915 42.5314 30.964C42.5314 30.2364 41.9415 29.6465 41.2138 29.6465Z" fill="#CCCCCC"/>
<path fill-rule="evenodd" clip-rule="evenodd" d="M38.214 29.6465C37.4863 29.6465 36.8965 30.2364 36.8965 30.964C36.8965 31.6915 37.4863 32.2814 38.214 32.2814C38.9417 32.2814 39.5314 31.6915 39.5314 30.964C39.5314 30.2364 38.9417 29.6465 38.214 29.6465Z" fill="#CCCCCC"/>
<path fill-rule="evenodd" clip-rule="evenodd" d="M37.8049 32.0108C37.382 31.8477 37.082 31.437 37.082 30.9566C37.082 30.4761 37.382 30.0655 37.8049 29.9023C37.4781 30.088 37.252 30.49 37.252 30.9566C37.252 31.4231 37.4782 31.8252 37.8049 32.0108ZM38.6182 29.9023C39.0411 30.0655 39.3411 30.4761 39.3411 30.9566C39.3411 31.437 39.0411 31.8477 38.6182 32.0108C38.9448 31.8252 39.1711 31.4231 39.1711 30.9566C39.1711 30.49 38.9447 30.088 38.6182 29.9023Z" fill="white"/>
<path fill-rule="evenodd" clip-rule="evenodd" d="M40.8069 32.0108C40.384 31.8477 40.084 31.437 40.084 30.9566C40.084 30.4761 40.384 30.0655 40.8069 29.9023C40.4803 30.088 40.254 30.49 40.254 30.9566C40.254 31.4231 40.4804 31.8252 40.8069 32.0108ZM41.6202 29.9023C42.0431 30.0655 42.3433 30.4761 42.3433 30.9566C42.3433 31.437 42.0431 31.8477 41.6202 32.0108C41.947 31.8252 42.1732 31.4231 42.1732 30.9566C42.1732 30.49 41.947 30.088 41.6202 29.9023Z" fill="white"/>
<path fill-rule="evenodd" clip-rule="evenodd" d="M26.3823 64.8691L26.8895 66.1666L28.2802 66.248L27.203 67.1313L27.5553 68.4791L26.3823 67.7275L25.2093 68.4791L25.5617 67.1313L24.4844 66.248L25.8751 66.1666L26.3823 64.8691Z" fill="#FEFEFE"/>
<path fill-rule="evenodd" clip-rule="evenodd" d="M23.1266 64.2344L23.4746 65.1246L24.4289 65.1806L23.6897 65.7866L23.9314 66.7115L23.1266 66.1958L22.3217 66.7115L22.5634 65.7866L21.8242 65.1806L22.7785 65.1246L23.1266 64.2344Z" fill="#FEFEFE"/>
<path fill-rule="evenodd" clip-rule="evenodd" d="M29.6461 64.2344L29.9941 65.1246L30.9484 65.1806L30.2092 65.7866L30.451 66.7115L29.6461 66.1958L28.8412 66.7115L29.083 65.7866L28.3438 65.1806L29.298 65.1246L29.6461 64.2344Z" fill="#FEFEFE"/>
</svg>
